<svg xmlns="http://www.w3.org/2000/svg" width="177" height="46" fill="none"><path fill="#fff" d="M9.013 41v-8.996H.745v-8.06h8.268v-8.996h8.424v8.996h8.268v8.06h-8.268V41zm39.76.832q-5.616 0-9.828-2.236-4.16-2.288-6.5-6.396-2.289-4.108-2.288-9.568 0-5.616 2.392-9.932 2.444-4.315 6.656-6.76 4.263-2.496 9.776-2.496 6.135 0 9.62 2.392l-1.404 8.268a12.6 12.6 0 0 0-3.172-1.04 14 14 0 0 0-3.068-.364q-4.265 0-6.708 2.548-2.445 2.548-2.444 7.072 0 4.265 2.34 6.708 2.392 2.392 6.604 2.392 1.663 0 3.016-.312 1.404-.312 3.432-1.144l1.456 8.216q-4.525 2.652-9.88 2.652M71.59 45.42v-3.848a28.4 28.4 0 0 1-5.928-.832q-2.912-.728-4.94-1.82l2.34-6.604a32 32 0 0 0 4.108 1.404q2.185.572 4.42.676v-7.488a64 64 0 0 1-3.9-1.3 16.4 16.4 0 0 1-3.64-1.872 9.9 9.9 0 0 1-2.652-2.964q-.987-1.768-.988-4.368 0-4.265 2.964-7.02 3.017-2.756 8.216-3.536V.804h4.42v4.784a21.3 21.3 0 0 1 5.356.78q2.601.675 4.212 1.768l-2.236 6.24a24 24 0 0 0-3.692-1.404 14.3 14.3 0 0 0-3.64-.572v7.488q1.873.572 3.796 1.352a16 16 0 0 1 3.536 1.976 8.76 8.76 0 0 1 2.6 2.912q.988 1.716.988 4.212 0 4.628-2.912 7.436-2.86 2.807-8.008 3.536v4.108zm-2.756-29.848q0 .988.728 1.664.78.624 2.028 1.144v-5.564q-2.756.728-2.756 2.756m7.176 18.46q2.6-.833 2.6-2.964 0-.936-.728-1.56-.675-.624-1.872-1.144zm23.714 7.852-9.464-4.004 11.596-25.064H88.961V5.224h24.336v6.344zm26.609-.208q-2.392 0-4.836-.52-2.445-.468-5.044-1.612l1.664-7.956q1.716.832 3.744 1.3 2.028.416 3.796.416 2.808 0 4.108-1.04 1.3-1.092 1.3-2.964 0-1.664-1.04-2.6t-2.704-.936q-2.757 0-4.888 2.132l-5.616-2.392 1.716-20.28h20.436l-.78 7.8h-11.856l-.624 6.448a7.8 7.8 0 0 1 2.704-1.404q1.507-.416 2.86-.416 3.536 0 5.72 1.508 2.235 1.508 3.276 3.952t1.04 5.252q0 4.524-1.872 7.488t-5.252 4.42q-3.328 1.404-7.852 1.404m34.053-.26q-4.732 0-8.424-2.34-3.692-2.392-5.824-6.552-2.08-4.212-2.08-9.62 0-5.356 2.08-9.516 2.132-4.16 5.824-6.552t8.424-2.392q3.536 0 6.5 1.404a15.1 15.1 0 0 1 5.148 3.848q2.184 2.444 3.38 5.824 1.248 3.38 1.248 7.384 0 5.356-2.132 9.568-2.08 4.16-5.772 6.552-3.64 2.392-8.372 2.392m0-8.892q2.6 0 4.056-2.548 1.508-2.548 1.508-7.072 0-4.42-1.508-6.968-1.456-2.6-4.056-2.6-2.652 0-4.16 2.548-1.456 2.549-1.456 7.02 0 4.42 1.508 7.02 1.56 2.6 4.108 2.6"/></svg>