<svg xmlns="http://www.w3.org/2000/svg" width="191" height="50" fill="none"><path fill="#fff" d="M8.388 41v-8.996H.12v-8.06h8.268v-8.996h8.424v8.996h8.268v8.06h-8.268V41zm37.732 4.42v-3.9q-5.044-.26-8.788-2.496-3.693-2.236-5.772-6.084-2.028-3.848-2.028-8.892 0-5.148 2.08-9.152 2.132-4.056 5.876-6.5t8.632-2.808V.804h4.42v4.888q3.9.415 6.396 2.184l-1.352 7.956a14 14 0 0 0-2.548-.884 11 11 0 0 0-2.496-.416v17.94a13 13 0 0 0 2.34-.416q1.144-.312 2.704-.936l1.404 7.904a18.7 18.7 0 0 1-6.448 2.34v4.056zm-5.356-21.684q0 3.172 1.404 5.356 1.404 2.132 3.952 2.964V15q-2.548.885-3.952 3.12t-1.404 5.616M69.95 41.572q-2.704 0-5.46-.572-2.705-.52-4.992-1.508l1.716-7.956q4.212 1.716 7.644 1.716 4.263 0 4.264-3.224 0-2.08-2.184-2.964-2.184-.936-7.28-.936v-7.124q9.255 0 9.256-3.692 0-1.144-1.092-1.768-1.04-.675-2.912-.676-4.368 0-7.852 1.82L59.03 7.356q5.096-2.912 11.492-2.912 5.252 0 8.268 2.392 3.016 2.34 3.016 6.448a9.46 9.46 0 0 1-1.3 4.836q-1.248 2.184-3.588 3.692 3.38 1.195 4.888 3.588 1.56 2.34 1.56 4.836 0 3.484-1.664 6.032-1.665 2.548-4.68 3.952-3.015 1.352-7.072 1.352m18.337 8.216-1.82-4.576q4.576-1.56 4.576-3.9-2.08 0-3.484-1.508-1.351-1.507-1.352-3.796 0-2.288 1.56-3.744 1.613-1.508 4.16-1.508 2.808 0 4.368 1.976 1.612 1.924 1.612 5.304 0 4.42-2.496 7.488t-7.124 4.264m11.149-32.864q0-3.64 1.664-6.448 1.716-2.808 4.836-4.42t7.384-1.612q5.043 0 8.372 2.132 3.38 2.132 5.044 5.928 1.716 3.744 1.716 8.788 0 5.876-2.288 10.452-2.236 4.524-6.292 7.072t-9.464 2.548q-2.757 0-5.148-.572-2.392-.624-4.264-1.976l2.132-7.488q1.507.832 3.12 1.3 1.611.416 3.224.416 3.795 0 5.98-2.6 2.235-2.652 2.6-7.28-1.3 2.392-3.536 3.484-2.184 1.092-4.16 1.092-3.328 0-5.824-1.352a9.5 9.5 0 0 1-3.796-3.796q-1.3-2.445-1.3-5.668m9.412-.676q0 1.768 1.196 2.86 1.247 1.04 3.224 1.04 1.248 0 2.496-.312a8.6 8.6 0 0 0 2.288-1.04q-.573-6.864-4.784-6.864-2.028 0-3.224 1.196t-1.196 3.12M131.925 41v-7.332q5.824-5.512 9.1-9.62 3.276-4.16 3.276-6.916 0-1.82-1.04-2.704-1.04-.936-2.704-.936-3.484 0-6.708 2.132l-2.548-8.112a19.3 19.3 0 0 1 5.252-2.288q2.912-.78 5.72-.78 4.264 0 7.02 1.508t4.108 4.108q1.404 2.6 1.404 5.928 0 5.044-3.224 9.308-3.173 4.264-9.516 8.112h12.532V41zm42.513.416q-4.733 0-8.424-2.34-3.693-2.392-5.824-6.552-2.08-4.212-2.08-9.62 0-5.356 2.08-9.516 2.131-4.16 5.824-6.552t8.424-2.392q3.536 0 6.5 1.404a15.1 15.1 0 0 1 5.148 3.848q2.183 2.444 3.38 5.824 1.248 3.38 1.248 7.384 0 5.356-2.132 9.568-2.08 4.16-5.772 6.552-3.64 2.392-8.372 2.392m0-8.892q2.6 0 4.056-2.548 1.508-2.548 1.508-7.072 0-4.42-1.508-6.968-1.457-2.6-4.056-2.6-2.652 0-4.16 2.548-1.456 2.549-1.456 7.02 0 4.42 1.508 7.02 1.56 2.6 4.108 2.6"/></svg>