<svg xmlns="http://www.w3.org/2000/svg" width="243" height="46" fill="none"><path fill="#fff" d="M.662 28.004v-8.112h13.987v8.112zM22.519 37V24.52h-3.38v-3.9h3.38v-2.6h-3.38v-3.9h3.38V1.224H32.97l8.684 12.896h5.304V1.224h9.568V14.12h3.38v3.9h-3.38v2.6h3.38v3.9h-3.38V37h-10.4l-8.424-12.48h-5.616V37zm9.568-16.38h3.016l-3.016-4.42zm14.872 1.352V18.02h-2.652zm15.509-9.048q0-3.64 1.664-6.448 1.716-2.808 4.836-4.42T76.352.444q5.044 0 8.372 2.132 3.38 2.131 5.044 5.928 1.716 3.744 1.716 8.788 0 5.876-2.288 10.452-2.236 4.524-6.292 7.072t-9.464 2.548q-2.756 0-5.148-.572-2.392-.624-4.264-1.976l2.132-7.488q1.507.832 3.12 1.3 1.613.416 3.224.416 3.795 0 5.98-2.6 2.235-2.652 2.6-7.28-1.3 2.392-3.536 3.484-2.184 1.092-4.16 1.092-3.328 0-5.824-1.352a9.52 9.52 0 0 1-3.796-3.796q-1.3-2.445-1.3-5.668m9.412-.676q0 1.768 1.196 2.86 1.248 1.04 3.224 1.04 1.248 0 2.496-.312a8.6 8.6 0 0 0 2.288-1.04q-.572-6.864-4.784-6.864-2.028 0-3.224 1.196t-1.196 3.12M93.968 27.9q0-5.46 7.02-8.008a12.5 12.5 0 0 1-3.536-3.484q-1.456-2.132-1.456-5.512 0-3.225 1.664-5.564 1.716-2.34 4.628-3.588 2.912-1.3 6.656-1.3 3.38 0 5.98 1.092 2.601 1.04 4.056 2.912 1.508 1.872 1.508 4.368 0 2.548-1.248 4.316-1.248 1.716-4.004 2.912 2.028.936 3.744 2.288a9.65 9.65 0 0 1 2.808 3.224q1.092 1.924 1.092 4.732 0 3.536-1.976 6.136-1.976 2.548-5.252 3.9-3.223 1.352-7.176 1.352-4.368 0-7.644-1.196-3.224-1.196-5.044-3.38t-1.82-5.2m10.504-18.668q0 1.768 1.768 2.86 1.821 1.04 4.368 2.028 1.716-1.56 1.716-3.952 0-3.9-3.952-3.9-1.82 0-2.86.832t-1.04 2.132m-.624 17.056q0 2.028 1.248 3.328 1.248 1.248 3.432 1.248t3.432-.988q1.248-1.04 1.248-2.756 0-1.508-1.768-2.548-1.715-1.04-5.876-2.444-1.716 1.872-1.716 4.16m23.796 19.5-1.82-4.576q4.576-1.56 4.576-3.9-2.08 0-3.484-1.508-1.352-1.507-1.352-3.796 0-2.287 1.56-3.744 1.612-1.508 4.16-1.508 2.808 0 4.368 1.976 1.612 1.924 1.612 5.304 0 4.42-2.496 7.488t-7.124 4.264m28.157-8.372q-4.732 0-8.424-2.34-3.692-2.392-5.824-6.552-2.08-4.212-2.08-9.62 0-5.356 2.08-9.516 2.132-4.16 5.824-6.552t8.424-2.392q3.536 0 6.5 1.404a15.1 15.1 0 0 1 5.148 3.848q2.184 2.444 3.38 5.824 1.248 3.38 1.248 7.384 0 5.356-2.132 9.568-2.08 4.16-5.772 6.552-3.64 2.392-8.372 2.392m0-8.892q2.6 0 4.056-2.548 1.508-2.548 1.508-7.072 0-4.42-1.508-6.968-1.456-2.6-4.056-2.6-2.652 0-4.16 2.548-1.456 2.549-1.456 7.02 0 4.42 1.508 7.02 1.56 2.6 4.108 2.6m35.293 8.892q-4.732 0-8.424-2.34-3.692-2.392-5.824-6.552-2.08-4.212-2.08-9.62 0-5.356 2.08-9.516 2.132-4.16 5.824-6.552t8.424-2.392q3.536 0 6.5 1.404a15.1 15.1 0 0 1 5.148 3.848q2.184 2.444 3.38 5.824 1.248 3.38 1.248 7.384 0 5.356-2.132 9.568-2.08 4.16-5.772 6.552-3.64 2.392-8.372 2.392m0-8.892q2.6 0 4.056-2.548 1.508-2.548 1.508-7.072 0-4.42-1.508-6.968-1.456-2.6-4.056-2.6-2.652 0-4.16 2.548-1.456 2.549-1.456 7.02 0 4.42 1.508 7.02 1.56 2.6 4.108 2.6m35.293 8.892q-4.732 0-8.424-2.34-3.692-2.392-5.824-6.552-2.08-4.212-2.08-9.62 0-5.356 2.08-9.516 2.132-4.16 5.824-6.552t8.424-2.392q3.536 0 6.5 1.404a15.1 15.1 0 0 1 5.148 3.848q2.184 2.444 3.38 5.824 1.248 3.38 1.248 7.384 0 5.356-2.132 9.568-2.08 4.16-5.772 6.552-3.64 2.392-8.372 2.392m0-8.892q2.6 0 4.056-2.548 1.508-2.548 1.508-7.072 0-4.42-1.508-6.968-1.456-2.6-4.056-2.6-2.652 0-4.16 2.548-1.456 2.549-1.456 7.02 0 4.42 1.508 7.02 1.56 2.6 4.108 2.6"/></svg>