<svg xmlns="http://www.w3.org/2000/svg" width="228" height="46" fill="none"><path fill="#fff" d="M.392 28.004v-8.112H14.38v8.112zM22.249 37V24.52h-3.38v-3.9h3.38v-2.6h-3.38v-3.9h3.38V1.224h10.452l8.684 12.896h5.304V1.224h9.568V14.12h3.38v3.9h-3.38v2.6h3.38v3.9h-3.38V37h-10.4l-8.424-12.48h-5.616V37zm9.568-16.38h3.016l-3.016-4.42zm14.872 1.352V18.02h-2.652zM64.227 37v-7.592h4.367V11.416h-4.367V4.604q2.236 0 4.888-.832 2.65-.832 5.2-2.548h5.46v28.184h4.367V37zm32.725.884-9.464-4.004L99.084 8.816H86.188V1.224h24.336v6.344zm15.95 7.904-1.82-4.576q4.575-1.56 4.576-3.9-2.08 0-3.484-1.508-1.352-1.507-1.352-3.796 0-2.287 1.56-3.744 1.611-1.508 4.16-1.508 2.808 0 4.368 1.976 1.612 1.924 1.612 5.304 0 4.42-2.496 7.488t-7.124 4.264m28.157-8.372q-4.732 0-8.424-2.34-3.692-2.392-5.824-6.552-2.08-4.212-2.08-9.62 0-5.356 2.08-9.516 2.132-4.16 5.824-6.552t8.424-2.392q3.536 0 6.5 1.404a15.1 15.1 0 0 1 5.148 3.848q2.184 2.444 3.38 5.824 1.248 3.38 1.248 7.384 0 5.356-2.132 9.568-2.08 4.16-5.772 6.552-3.64 2.392-8.372 2.392m0-8.892q2.6 0 4.056-2.548 1.508-2.548 1.508-7.072 0-4.42-1.508-6.968-1.457-2.6-4.056-2.6-2.652 0-4.16 2.548-1.456 2.549-1.456 7.02 0 4.42 1.508 7.02 1.56 2.6 4.108 2.6m35.293 8.892q-4.732 0-8.424-2.34-3.692-2.392-5.824-6.552-2.08-4.212-2.08-9.62 0-5.356 2.08-9.516 2.132-4.16 5.824-6.552t8.424-2.392q3.536 0 6.5 1.404A15.1 15.1 0 0 1 188 5.696q2.184 2.444 3.38 5.824 1.248 3.38 1.248 7.384 0 5.356-2.132 9.568-2.08 4.16-5.772 6.552-3.64 2.392-8.372 2.392m0-8.892q2.6 0 4.056-2.548 1.508-2.548 1.508-7.072 0-4.42-1.508-6.968-1.457-2.6-4.056-2.6-2.652 0-4.16 2.548-1.456 2.549-1.456 7.02 0 4.42 1.508 7.02 1.56 2.6 4.108 2.6m35.293 8.892q-4.732 0-8.424-2.34-3.692-2.392-5.824-6.552-2.08-4.212-2.08-9.62 0-5.356 2.08-9.516 2.132-4.16 5.824-6.552t8.424-2.392q3.536 0 6.5 1.404a15.1 15.1 0 0 1 5.148 3.848q2.184 2.444 3.38 5.824 1.248 3.38 1.248 7.384 0 5.356-2.132 9.568-2.08 4.16-5.772 6.552-3.64 2.392-8.372 2.392m0-8.892q2.6 0 4.056-2.548 1.508-2.548 1.508-7.072 0-4.42-1.508-6.968-1.457-2.6-4.056-2.6-2.652 0-4.16 2.548-1.456 2.549-1.456 7.02 0 4.42 1.508 7.02 1.56 2.6 4.108 2.6"/></svg>