<svg xmlns="http://www.w3.org/2000/svg" width="209" height="206" fill="none"><path fill="#F79E1B" d="M169.94.484H79.305C35.581.484 0 36.247 0 80.194c0 40.089 29.596 73.361 67.976 78.899v34.973c0 4.603 2.754 8.763 6.992 10.519 4.18 1.753 9.081.813 12.348-2.469l41.997-42.212h40.627c43.724 0 80.06-35.762 80.06-79.71S213.664.484 169.94.484M79.305 91.58c-6.258 0-11.33-5.098-11.33-11.387s5.072-11.387 11.33-11.387c6.257 0 11.33 5.098 11.33 11.387S85.561 91.58 79.304 91.58m45.317 0c-6.258 0-11.329-5.098-11.329-11.387s5.071-11.387 11.329-11.387c6.257 0 11.33 5.098 11.33 11.387s-5.073 11.387-11.33 11.387m45.318 0c-6.259 0-11.33-5.098-11.33-11.387s5.071-11.387 11.33-11.387c6.256 0 11.329 5.098 11.329 11.387S176.196 91.58 169.94 91.58"/></svg>