<svg xmlns="http://www.w3.org/2000/svg" width="152" height="152" fill="none"><mask id="a" width="152" height="152" x="0" y="0" maskUnits="userSpaceOnUse" style="mask-type:alpha"><rect width="152" height="152" fill="#fff" rx="32"/></mask><g mask="url(#a)"><path fill="#9747FF" d="M0 0h152v152H0z"/><path stroke="#fff" stroke-linecap="round" stroke-linejoin="round" stroke-miterlimit="10" stroke-width="6" d="M112.875 76c0 20.71-16.164 36.875-36.875 36.875S39.125 96.711 39.125 76 55.289 39.125 76 39.125 112.875 55.289 112.875 76"/></g><path fill="#fff" fill-rule="evenodd" d="M64.125 54.25a3 3 0 0 1 2.534 1.395l7.033 11.105H85.5v-9.5a3 3 0 1 1 6 0v9.5h6.375l.154.004a3 3 0 0 1 0 5.992l-.154.004H91.5v6.5h6.375l.154.004a3 3 0 0 1 0 5.992l-.154.004H91.5v9.5a3 3 0 0 1-2.846 2.996l-.154.004h-.625a3 3 0 0 1-2.427-1.236l-.107-.158-7.033-11.106H66.5v9.5a3 3 0 1 1-6 0v-9.5h-6.375a3 3 0 1 1 0-6H60.5v-6.5h-6.375a3 3 0 1 1 0-6H60.5v-9.5a3 3 0 0 1 3-3zM85.5 85.394v-.144h-.09zm-3.89-6.144h3.89v-6.5h-8.008zm-15.11 0h8.007l-4.116-6.5H66.5zm0-12.5h.09l-.09-.143z" clip-rule="evenodd"/></svg>