<svg width="328" height="592" viewBox="0 0 328 592" fill="none" xmlns="http://www.w3.org/2000/svg">
<g filter="url(#filter0_i_38_4463)">
<rect y="412" width="328" height="180" rx="10" fill="url(#paint0_linear_38_4463)"/>
</g>
<path d="M293.725 550.566H282.774V569.433H293.725V550.566Z" fill="#FF5F00"/>
<path d="M283.47 560C283.47 556.167 285.347 552.767 288.233 550.567C286.112 548.967 283.435 548 280.515 548C273.597 548 268 553.367 268 560C268 566.633 273.597 572 280.515 572C283.435 572 286.112 571.033 288.233 569.433C285.347 567.267 283.47 563.833 283.47 560Z" fill="#EB001B"/>
<path d="M308.5 560C308.5 566.633 302.903 572 295.985 572C293.065 572 290.388 571.033 288.268 569.433C291.188 567.233 293.03 563.833 293.03 560C293.03 556.167 291.153 552.767 288.268 550.567C290.388 548.967 293.065 548 295.985 548C302.903 548 308.5 553.4 308.5 560Z" fill="#F79E1B"/>
<path d="M23.7734 565.992L25.749 559.047H26.7061L26.1523 561.747L24.0264 569H23.0762L23.7734 565.992ZM21.7295 559.047L23.3018 565.855L23.7734 569H22.8301L20.417 559.047H21.7295ZM29.2627 565.849L30.8008 559.047H32.1201L29.7139 569H28.7705L29.2627 565.849ZM26.8496 559.047L28.7705 565.992L29.4678 569H28.5176L26.4668 561.747L25.9062 559.047H26.8496ZM36.2422 569.137C35.7272 569.137 35.2601 569.05 34.8408 568.877C34.4261 568.699 34.0684 568.451 33.7676 568.132C33.4714 567.813 33.2435 567.435 33.084 566.997C32.9245 566.56 32.8447 566.081 32.8447 565.562V565.274C32.8447 564.673 32.9336 564.137 33.1113 563.668C33.2891 563.194 33.5306 562.793 33.8359 562.465C34.1413 562.137 34.4876 561.888 34.875 561.72C35.2624 561.551 35.6634 561.467 36.0781 561.467C36.6068 561.467 37.0625 561.558 37.4453 561.74C37.8327 561.923 38.1494 562.178 38.3955 562.506C38.6416 562.829 38.8239 563.212 38.9424 563.654C39.0609 564.092 39.1201 564.57 39.1201 565.09V565.657H33.5967V564.625H37.8555V564.529C37.8372 564.201 37.7689 563.882 37.6504 563.572C37.5365 563.262 37.3542 563.007 37.1035 562.807C36.8529 562.606 36.5111 562.506 36.0781 562.506C35.791 562.506 35.5267 562.567 35.2852 562.69C35.0436 562.809 34.8363 562.987 34.6631 563.224C34.4899 563.461 34.3555 563.75 34.2598 564.092C34.1641 564.434 34.1162 564.828 34.1162 565.274V565.562C34.1162 565.912 34.1641 566.243 34.2598 566.553C34.36 566.858 34.5036 567.127 34.6904 567.359C34.8818 567.592 35.112 567.774 35.3809 567.906C35.6543 568.038 35.9642 568.104 36.3105 568.104C36.7572 568.104 37.1354 568.013 37.4453 567.831C37.7552 567.649 38.0264 567.405 38.2588 567.1L39.0244 567.708C38.8649 567.95 38.6621 568.18 38.416 568.398C38.1699 568.617 37.8669 568.795 37.5068 568.932C37.1514 569.068 36.7298 569.137 36.2422 569.137ZM44.9033 567.038C44.9033 566.856 44.8623 566.687 44.7803 566.532C44.7028 566.373 44.541 566.229 44.2949 566.102C44.0534 565.969 43.6888 565.855 43.2012 565.76C42.791 565.673 42.4196 565.571 42.0869 565.452C41.7588 565.334 41.4785 565.19 41.2461 565.021C41.0182 564.853 40.8428 564.655 40.7197 564.427C40.5967 564.199 40.5352 563.932 40.5352 563.627C40.5352 563.335 40.599 563.06 40.7266 562.8C40.8587 562.54 41.0433 562.31 41.2803 562.109C41.5218 561.909 41.8112 561.752 42.1484 561.638C42.4857 561.524 42.8617 561.467 43.2764 561.467C43.8688 561.467 44.3747 561.572 44.7939 561.781C45.2132 561.991 45.5345 562.271 45.7578 562.622C45.9811 562.968 46.0928 563.354 46.0928 563.777H44.8281C44.8281 563.572 44.7666 563.374 44.6436 563.183C44.5251 562.987 44.3496 562.825 44.1172 562.697C43.8893 562.57 43.609 562.506 43.2764 562.506C42.9255 562.506 42.6406 562.561 42.4219 562.67C42.2077 562.775 42.0505 562.909 41.9502 563.073C41.8545 563.237 41.8066 563.41 41.8066 563.593C41.8066 563.729 41.8294 563.853 41.875 563.962C41.9251 564.067 42.0117 564.165 42.1348 564.256C42.2578 564.342 42.431 564.424 42.6543 564.502C42.8776 564.579 43.1624 564.657 43.5088 564.734C44.1149 564.871 44.6139 565.035 45.0059 565.227C45.3978 565.418 45.6895 565.653 45.8809 565.931C46.0723 566.209 46.168 566.546 46.168 566.942C46.168 567.266 46.0996 567.562 45.9629 567.831C45.8307 568.1 45.637 568.332 45.3818 568.528C45.1312 568.72 44.8304 568.87 44.4795 568.979C44.1331 569.084 43.7435 569.137 43.3105 569.137C42.6589 569.137 42.1074 569.021 41.6562 568.788C41.2051 568.556 40.8633 568.255 40.6309 567.886C40.3984 567.517 40.2822 567.127 40.2822 566.717H41.5537C41.5719 567.063 41.6722 567.339 41.8545 567.544C42.0368 567.744 42.2601 567.888 42.5244 567.975C42.7887 568.057 43.0508 568.098 43.3105 568.098C43.6569 568.098 43.9463 568.052 44.1787 567.961C44.4157 567.87 44.5957 567.744 44.7188 567.585C44.8418 567.425 44.9033 567.243 44.9033 567.038ZM50.9258 561.604V562.574H46.9268V561.604H50.9258ZM48.2803 559.806H49.5449V567.168C49.5449 567.419 49.5837 567.608 49.6611 567.735C49.7386 567.863 49.8389 567.947 49.9619 567.988C50.085 568.029 50.2171 568.05 50.3584 568.05C50.4632 568.05 50.5726 568.041 50.6865 568.022C50.805 568 50.8939 567.981 50.9531 567.968L50.96 569C50.8597 569.032 50.7275 569.062 50.5635 569.089C50.404 569.121 50.2103 569.137 49.9824 569.137C49.6725 569.137 49.3877 569.075 49.1279 568.952C48.8682 568.829 48.6608 568.624 48.5059 568.337C48.3555 568.045 48.2803 567.653 48.2803 567.161V559.806ZM59.7578 559.929L56.4629 569H55.1162L58.9102 559.047H59.7783L59.7578 559.929ZM62.5195 569L59.2178 559.929L59.1973 559.047H60.0654L63.873 569H62.5195ZM62.3486 565.315V566.396H56.7568V565.315H62.3486ZM66.9014 569H65.6367V560.824C65.6367 560.291 65.7324 559.842 65.9238 559.478C66.1198 559.108 66.4001 558.83 66.7646 558.644C67.1292 558.452 67.5622 558.356 68.0635 558.356C68.2093 558.356 68.3551 558.366 68.501 558.384C68.6514 558.402 68.7972 558.429 68.9385 558.466L68.8701 559.498C68.7744 559.475 68.665 559.459 68.542 559.45C68.4235 559.441 68.305 559.437 68.1865 559.437C67.9176 559.437 67.6852 559.491 67.4893 559.601C67.2979 559.705 67.152 559.86 67.0518 560.065C66.9515 560.271 66.9014 560.523 66.9014 560.824V569ZM68.4736 561.604V562.574H64.4678V561.604H68.4736ZM71.1465 562.766V569H69.8818V561.604H71.1123L71.1465 562.766ZM73.457 561.562L73.4502 562.738C73.3454 562.715 73.2451 562.702 73.1494 562.697C73.0583 562.688 72.9535 562.684 72.835 562.684C72.5433 562.684 72.2858 562.729 72.0625 562.82C71.8392 562.911 71.6501 563.039 71.4951 563.203C71.3402 563.367 71.2171 563.563 71.126 563.791C71.0394 564.014 70.9824 564.26 70.9551 564.529L70.5996 564.734C70.5996 564.288 70.6429 563.868 70.7295 563.477C70.8206 563.085 70.9596 562.738 71.1465 562.438C71.3333 562.132 71.5703 561.895 71.8574 561.727C72.1491 561.553 72.4954 561.467 72.8965 561.467C72.9876 561.467 73.0924 561.478 73.2109 561.501C73.3294 561.519 73.4115 561.54 73.457 561.562ZM76 561.604V569H74.7285V561.604H76ZM74.6328 559.642C74.6328 559.437 74.6943 559.263 74.8174 559.122C74.945 558.981 75.1318 558.91 75.3779 558.91C75.6195 558.91 75.804 558.981 75.9316 559.122C76.0638 559.263 76.1299 559.437 76.1299 559.642C76.1299 559.838 76.0638 560.006 75.9316 560.147C75.804 560.284 75.6195 560.353 75.3779 560.353C75.1318 560.353 74.945 560.284 74.8174 560.147C74.6943 560.006 74.6328 559.838 74.6328 559.642ZM80.9902 568.098C81.291 568.098 81.569 568.036 81.8242 567.913C82.0794 567.79 82.2891 567.621 82.4531 567.407C82.6172 567.188 82.7106 566.94 82.7334 566.662H83.9365C83.9137 567.1 83.7656 567.507 83.4922 567.886C83.2233 568.259 82.8701 568.562 82.4326 568.795C81.9951 569.023 81.5143 569.137 80.9902 569.137C80.4342 569.137 79.9489 569.039 79.5342 568.843C79.124 568.647 78.7822 568.378 78.5088 568.036C78.2399 567.694 78.0371 567.302 77.9004 566.86C77.7682 566.414 77.7021 565.942 77.7021 565.445V565.158C77.7021 564.661 77.7682 564.192 77.9004 563.75C78.0371 563.303 78.2399 562.909 78.5088 562.567C78.7822 562.226 79.124 561.957 79.5342 561.761C79.9489 561.565 80.4342 561.467 80.9902 561.467C81.569 561.467 82.0749 561.585 82.5078 561.822C82.9408 562.055 83.2803 562.374 83.5264 562.779C83.777 563.18 83.9137 563.636 83.9365 564.146H82.7334C82.7106 563.841 82.624 563.565 82.4736 563.319C82.3278 563.073 82.1273 562.877 81.8721 562.731C81.6214 562.581 81.3275 562.506 80.9902 562.506C80.6029 562.506 80.277 562.583 80.0127 562.738C79.7529 562.889 79.5456 563.094 79.3906 563.354C79.2402 563.609 79.1309 563.894 79.0625 564.208C78.9987 564.518 78.9668 564.835 78.9668 565.158V565.445C78.9668 565.769 78.9987 566.088 79.0625 566.402C79.1263 566.717 79.2334 567.002 79.3838 567.257C79.5387 567.512 79.7461 567.717 80.0059 567.872C80.2702 568.022 80.5983 568.098 80.9902 568.098ZM89.7197 567.735V563.928C89.7197 563.636 89.6605 563.383 89.542 563.169C89.4281 562.95 89.2549 562.782 89.0225 562.663C88.79 562.545 88.5029 562.485 88.1611 562.485C87.8421 562.485 87.5618 562.54 87.3203 562.649C87.0833 562.759 86.8965 562.902 86.7598 563.08C86.6276 563.258 86.5615 563.449 86.5615 563.654H85.2969C85.2969 563.39 85.3652 563.128 85.502 562.868C85.6387 562.608 85.8346 562.374 86.0898 562.164C86.3496 561.95 86.6595 561.781 87.0195 561.658C87.3841 561.531 87.7897 561.467 88.2363 561.467C88.7741 561.467 89.248 561.558 89.6582 561.74C90.0729 561.923 90.3965 562.198 90.6289 562.567C90.8659 562.932 90.9844 563.39 90.9844 563.941V567.387C90.9844 567.633 91.0049 567.895 91.0459 568.173C91.0915 568.451 91.1576 568.69 91.2441 568.891V569H89.9248C89.861 568.854 89.8109 568.66 89.7744 568.419C89.738 568.173 89.7197 567.945 89.7197 567.735ZM89.9385 564.516L89.9521 565.404H88.6738C88.3138 565.404 87.9925 565.434 87.71 565.493C87.4274 565.548 87.1904 565.632 86.999 565.746C86.8076 565.86 86.6618 566.004 86.5615 566.177C86.4613 566.345 86.4111 566.544 86.4111 566.771C86.4111 567.004 86.4635 567.216 86.5684 567.407C86.6732 567.599 86.8304 567.751 87.04 567.865C87.2542 567.975 87.5163 568.029 87.8262 568.029C88.2135 568.029 88.5553 567.947 88.8516 567.783C89.1478 567.619 89.3825 567.419 89.5557 567.182C89.7334 566.945 89.8291 566.715 89.8428 566.491L90.3828 567.1C90.3509 567.291 90.2643 567.503 90.123 567.735C89.9818 567.968 89.7926 568.191 89.5557 568.405C89.3232 568.615 89.0452 568.79 88.7217 568.932C88.4027 569.068 88.0426 569.137 87.6416 569.137C87.1403 569.137 86.7005 569.039 86.3223 568.843C85.9486 568.647 85.6569 568.385 85.4473 568.057C85.2422 567.724 85.1396 567.353 85.1396 566.942C85.1396 566.546 85.2171 566.197 85.3721 565.896C85.527 565.591 85.7503 565.338 86.042 565.138C86.3337 564.933 86.6846 564.778 87.0947 564.673C87.5049 564.568 87.9629 564.516 88.4688 564.516H89.9385ZM94.2383 563.183V569H92.9736V561.604H94.1699L94.2383 563.183ZM93.9375 565.021L93.4111 565.001C93.4157 564.495 93.4909 564.028 93.6367 563.6C93.7826 563.167 93.9876 562.791 94.252 562.472C94.5163 562.153 94.8307 561.907 95.1953 561.733C95.5645 561.556 95.9723 561.467 96.4189 561.467C96.7835 561.467 97.1117 561.517 97.4033 561.617C97.695 561.713 97.9434 561.868 98.1484 562.082C98.3581 562.296 98.5176 562.574 98.627 562.916C98.7363 563.253 98.791 563.666 98.791 564.153V569H97.5195V564.14C97.5195 563.752 97.4626 563.442 97.3486 563.21C97.2347 562.973 97.0684 562.802 96.8496 562.697C96.6309 562.588 96.362 562.533 96.043 562.533C95.7285 562.533 95.4414 562.599 95.1816 562.731C94.9264 562.864 94.7054 563.046 94.5186 563.278C94.3363 563.511 94.1927 563.777 94.0879 564.078C93.9876 564.374 93.9375 564.689 93.9375 565.021ZM110.385 565.835H111.697C111.629 566.464 111.449 567.027 111.157 567.523C110.866 568.02 110.453 568.414 109.92 568.706C109.387 568.993 108.721 569.137 107.924 569.137C107.34 569.137 106.81 569.027 106.331 568.809C105.857 568.59 105.449 568.28 105.107 567.879C104.766 567.473 104.501 566.988 104.314 566.423C104.132 565.853 104.041 565.22 104.041 564.522V563.531C104.041 562.834 104.132 562.203 104.314 561.638C104.501 561.068 104.768 560.58 105.114 560.175C105.465 559.769 105.887 559.457 106.379 559.238C106.871 559.02 107.425 558.91 108.04 558.91C108.792 558.91 109.428 559.051 109.947 559.334C110.467 559.617 110.87 560.008 111.157 560.51C111.449 561.007 111.629 561.583 111.697 562.239H110.385C110.321 561.774 110.202 561.376 110.029 561.043C109.856 560.706 109.61 560.446 109.291 560.264C108.972 560.081 108.555 559.99 108.04 559.99C107.598 559.99 107.208 560.075 106.871 560.243C106.538 560.412 106.258 560.651 106.03 560.961C105.807 561.271 105.638 561.642 105.524 562.075C105.41 562.508 105.354 562.989 105.354 563.518V564.522C105.354 565.01 105.404 565.468 105.504 565.896C105.609 566.325 105.766 566.701 105.976 567.024C106.185 567.348 106.452 567.603 106.775 567.79C107.099 567.972 107.482 568.063 107.924 568.063C108.484 568.063 108.931 567.975 109.264 567.797C109.596 567.619 109.847 567.364 110.016 567.031C110.189 566.699 110.312 566.3 110.385 565.835ZM114.814 559.047V569H113.495V559.047H114.814ZM118.984 563.524V564.604H114.527V563.524H118.984ZM119.661 559.047V560.127H114.527V559.047H119.661ZM123.756 559.929L120.461 569H119.114L122.908 559.047H123.776L123.756 559.929ZM126.518 569L123.216 559.929L123.195 559.047H124.063L127.871 569H126.518ZM126.347 565.315V566.396H120.755V565.315H126.347ZM134.372 569H133.107V560.824C133.107 560.291 133.203 559.842 133.395 559.478C133.59 559.108 133.871 558.83 134.235 558.644C134.6 558.452 135.033 558.356 135.534 558.356C135.68 558.356 135.826 558.366 135.972 558.384C136.122 558.402 136.268 558.429 136.409 558.466L136.341 559.498C136.245 559.475 136.136 559.459 136.013 559.45C135.894 559.441 135.776 559.437 135.657 559.437C135.388 559.437 135.156 559.491 134.96 559.601C134.769 559.705 134.623 559.86 134.522 560.065C134.422 560.271 134.372 560.523 134.372 560.824V569ZM135.944 561.604V562.574H131.938V561.604H135.944ZM138.617 562.766V569H137.353V561.604H138.583L138.617 562.766ZM140.928 561.562L140.921 562.738C140.816 562.715 140.716 562.702 140.62 562.697C140.529 562.688 140.424 562.684 140.306 562.684C140.014 562.684 139.757 562.729 139.533 562.82C139.31 562.911 139.121 563.039 138.966 563.203C138.811 563.367 138.688 563.563 138.597 563.791C138.51 564.014 138.453 564.26 138.426 564.529L138.07 564.734C138.07 564.288 138.114 563.868 138.2 563.477C138.291 563.085 138.43 562.738 138.617 562.438C138.804 562.132 139.041 561.895 139.328 561.727C139.62 561.553 139.966 561.467 140.367 561.467C140.458 561.467 140.563 561.478 140.682 561.501C140.8 561.519 140.882 561.54 140.928 561.562ZM146.185 567.735V563.928C146.185 563.636 146.125 563.383 146.007 563.169C145.893 562.95 145.72 562.782 145.487 562.663C145.255 562.545 144.968 562.485 144.626 562.485C144.307 562.485 144.027 562.54 143.785 562.649C143.548 562.759 143.361 562.902 143.225 563.08C143.092 563.258 143.026 563.449 143.026 563.654H141.762C141.762 563.39 141.83 563.128 141.967 562.868C142.104 562.608 142.299 562.374 142.555 562.164C142.814 561.95 143.124 561.781 143.484 561.658C143.849 561.531 144.255 561.467 144.701 561.467C145.239 561.467 145.713 561.558 146.123 561.74C146.538 561.923 146.861 562.198 147.094 562.567C147.331 562.932 147.449 563.39 147.449 563.941V567.387C147.449 567.633 147.47 567.895 147.511 568.173C147.556 568.451 147.622 568.69 147.709 568.891V569H146.39C146.326 568.854 146.276 568.66 146.239 568.419C146.203 568.173 146.185 567.945 146.185 567.735ZM146.403 564.516L146.417 565.404H145.139C144.779 565.404 144.457 565.434 144.175 565.493C143.892 565.548 143.655 565.632 143.464 565.746C143.272 565.86 143.127 566.004 143.026 566.177C142.926 566.345 142.876 566.544 142.876 566.771C142.876 567.004 142.928 567.216 143.033 567.407C143.138 567.599 143.295 567.751 143.505 567.865C143.719 567.975 143.981 568.029 144.291 568.029C144.678 568.029 145.02 567.947 145.316 567.783C145.613 567.619 145.847 567.419 146.021 567.182C146.198 566.945 146.294 566.715 146.308 566.491L146.848 567.1C146.816 567.291 146.729 567.503 146.588 567.735C146.447 567.968 146.257 568.191 146.021 568.405C145.788 568.615 145.51 568.79 145.187 568.932C144.868 569.068 144.507 569.137 144.106 569.137C143.605 569.137 143.165 569.039 142.787 568.843C142.413 568.647 142.122 568.385 141.912 568.057C141.707 567.724 141.604 567.353 141.604 566.942C141.604 566.546 141.682 566.197 141.837 565.896C141.992 565.591 142.215 565.338 142.507 565.138C142.799 564.933 143.149 564.778 143.56 564.673C143.97 564.568 144.428 564.516 144.934 564.516H146.403ZM150.703 563.183V569H149.438V561.604H150.635L150.703 563.183ZM150.402 565.021L149.876 565.001C149.881 564.495 149.956 564.028 150.102 563.6C150.247 563.167 150.452 562.791 150.717 562.472C150.981 562.153 151.296 561.907 151.66 561.733C152.029 561.556 152.437 561.467 152.884 561.467C153.248 561.467 153.576 561.517 153.868 561.617C154.16 561.713 154.408 561.868 154.613 562.082C154.823 562.296 154.982 562.574 155.092 562.916C155.201 563.253 155.256 563.666 155.256 564.153V569H153.984V564.14C153.984 563.752 153.927 563.442 153.813 563.21C153.7 562.973 153.533 562.802 153.314 562.697C153.096 562.588 152.827 562.533 152.508 562.533C152.193 562.533 151.906 562.599 151.646 562.731C151.391 562.864 151.17 563.046 150.983 563.278C150.801 563.511 150.658 563.777 150.553 564.078C150.452 564.374 150.402 564.689 150.402 565.021ZM160.137 568.098C160.438 568.098 160.715 568.036 160.971 567.913C161.226 567.79 161.436 567.621 161.6 567.407C161.764 567.188 161.857 566.94 161.88 566.662H163.083C163.06 567.1 162.912 567.507 162.639 567.886C162.37 568.259 162.017 568.562 161.579 568.795C161.142 569.023 160.661 569.137 160.137 569.137C159.581 569.137 159.095 569.039 158.681 568.843C158.271 568.647 157.929 568.378 157.655 568.036C157.386 567.694 157.184 567.302 157.047 566.86C156.915 566.414 156.849 565.942 156.849 565.445V565.158C156.849 564.661 156.915 564.192 157.047 563.75C157.184 563.303 157.386 562.909 157.655 562.567C157.929 562.226 158.271 561.957 158.681 561.761C159.095 561.565 159.581 561.467 160.137 561.467C160.715 561.467 161.221 561.585 161.654 561.822C162.087 562.055 162.427 562.374 162.673 562.779C162.924 563.18 163.06 563.636 163.083 564.146H161.88C161.857 563.841 161.771 563.565 161.62 563.319C161.474 563.073 161.274 562.877 161.019 562.731C160.768 562.581 160.474 562.506 160.137 562.506C159.749 562.506 159.424 562.583 159.159 562.738C158.899 562.889 158.692 563.094 158.537 563.354C158.387 563.609 158.277 563.894 158.209 564.208C158.145 564.518 158.113 564.835 158.113 565.158V565.445C158.113 565.769 158.145 566.088 158.209 566.402C158.273 566.717 158.38 567.002 158.53 567.257C158.685 567.512 158.893 567.717 159.152 567.872C159.417 568.022 159.745 568.098 160.137 568.098Z" fill="white"/>
<g clip-path="url(#clip0_38_4463)">
<path d="M36 466C44.8366 466 52 458.837 52 450C52 441.163 44.8366 434 36 434C27.1634 434 20 441.163 20 450C20 458.837 27.1634 466 36 466Z" fill="white"/>
<g clip-path="url(#clip1_38_4463)">
<path d="M42.9567 435.588C40.8532 434.571 38.4933 434 36.0002 434C33.507 434 31.1472 434.571 29.0437 435.588L27.6523 450L29.0437 464.412C31.1472 465.429 33.507 466 36.0002 466C38.4933 466 40.8532 465.429 42.9567 464.412L44.348 450L42.9567 435.588Z" fill="#FFDA44"/>
<path d="M35.9999 444.434L37.3812 448.685H41.8517L38.2352 451.313L39.6165 455.564L35.9999 452.936L32.3834 455.564L33.7649 451.313L30.1484 448.685H34.6186L35.9999 444.434Z" fill="#496E2D"/>
<path d="M29.0435 435.588C23.6916 438.176 20 443.656 20 450C20 456.343 23.6916 461.824 29.0435 464.412V435.588Z" fill="#496E2D"/>
<path d="M42.9561 435.588V464.412C48.3079 461.824 51.9996 456.343 51.9996 450C51.9996 443.656 48.3079 438.176 42.9561 435.588Z" fill="#D80027"/>
</g>
</g>
<rect x="19" y="433" width="34" height="34" rx="17" stroke="white" stroke-width="2"/>
<path d="M188.301 457.32C186.861 457.32 185.601 457.033 184.521 456.46C183.454 455.873 182.621 455.053 182.021 454C181.434 452.947 181.141 451.72 181.141 450.32C181.141 448.88 181.448 447.607 182.061 446.5C182.688 445.393 183.541 444.527 184.621 443.9C185.714 443.26 186.968 442.94 188.381 442.94C189.954 442.94 191.188 443.247 192.081 443.86L191.541 447.04C191.154 446.853 190.748 446.72 190.321 446.64C189.908 446.547 189.514 446.5 189.141 446.5C188.048 446.5 187.188 446.827 186.561 447.48C185.934 448.133 185.621 449.04 185.621 450.2C185.621 451.293 185.921 452.153 186.521 452.78C187.134 453.393 187.981 453.7 189.061 453.7C189.488 453.7 189.874 453.66 190.221 453.58C190.581 453.5 191.021 453.353 191.541 453.14L192.101 456.3C190.941 456.98 189.674 457.32 188.301 457.32ZM193.538 457V443.24H203.018V446.28H197.838V449.06H202.638V451.74H197.838V457H193.538ZM202.869 457L206.669 443.24H213.149L217.129 457H212.229L211.709 454.36H208.149L207.569 457H202.869ZM208.569 451.9H211.229L209.929 445.88L208.569 451.9ZM221.356 450.66C221.356 449.127 221.649 447.787 222.236 446.64C222.823 445.48 223.636 444.573 224.676 443.92C225.716 443.267 226.923 442.94 228.296 442.94C229.749 442.94 230.956 443.267 231.916 443.92L231.096 446.8C230.683 446.587 230.269 446.427 229.856 446.32C229.443 446.2 229.043 446.14 228.656 446.14C227.696 446.14 226.929 446.473 226.356 447.14C225.796 447.793 225.463 448.727 225.356 449.94C225.649 449.407 226.063 448.98 226.596 448.66C227.129 448.34 227.703 448.18 228.316 448.18C229.169 448.18 229.909 448.353 230.536 448.7C231.163 449.033 231.649 449.513 231.996 450.14C232.343 450.767 232.516 451.5 232.516 452.34C232.516 453.287 232.289 454.127 231.836 454.86C231.396 455.58 230.776 456.14 229.976 456.54C229.176 456.94 228.243 457.14 227.176 457.14C225.349 457.14 223.923 456.573 222.896 455.44C221.869 454.293 221.356 452.7 221.356 450.66ZM225.356 451.62C225.503 453.38 226.116 454.26 227.196 454.26C227.703 454.26 228.109 454.107 228.416 453.8C228.736 453.493 228.896 453.093 228.896 452.6C228.896 452.147 228.743 451.787 228.436 451.52C228.129 451.24 227.716 451.1 227.196 451.1C226.503 451.1 225.889 451.273 225.356 451.62ZM233.211 450.66C233.211 449.127 233.505 447.787 234.091 446.64C234.678 445.48 235.491 444.573 236.531 443.92C237.571 443.267 238.778 442.94 240.151 442.94C241.605 442.94 242.811 443.267 243.771 443.92L242.951 446.8C242.538 446.587 242.125 446.427 241.711 446.32C241.298 446.2 240.898 446.14 240.511 446.14C239.551 446.14 238.785 446.473 238.211 447.14C237.651 447.793 237.318 448.727 237.211 449.94C237.505 449.407 237.918 448.98 238.451 448.66C238.985 448.34 239.558 448.18 240.171 448.18C241.025 448.18 241.765 448.353 242.391 448.7C243.018 449.033 243.505 449.513 243.851 450.14C244.198 450.767 244.371 451.5 244.371 452.34C244.371 453.287 244.145 454.127 243.691 454.86C243.251 455.58 242.631 456.14 241.831 456.54C241.031 456.94 240.098 457.14 239.031 457.14C237.205 457.14 235.778 456.573 234.751 455.44C233.725 454.293 233.211 452.7 233.211 450.66ZM237.211 451.62C237.358 453.38 237.971 454.26 239.051 454.26C239.558 454.26 239.965 454.107 240.271 453.8C240.591 453.493 240.751 453.093 240.751 452.6C240.751 452.147 240.598 451.787 240.291 451.52C239.985 451.24 239.571 451.1 239.051 451.1C238.358 451.1 237.745 451.273 237.211 451.62ZM251.347 457.16C250.134 457.16 249.054 456.86 248.107 456.26C247.16 455.647 246.414 454.807 245.867 453.74C245.334 452.66 245.067 451.427 245.067 450.04C245.067 448.667 245.334 447.447 245.867 446.38C246.414 445.313 247.16 444.473 248.107 443.86C249.054 443.247 250.134 442.94 251.347 442.94C252.254 442.94 253.087 443.12 253.847 443.48C254.607 443.827 255.267 444.32 255.827 444.96C256.387 445.587 256.82 446.333 257.127 447.2C257.447 448.067 257.607 449.013 257.607 450.04C257.607 451.413 257.334 452.64 256.787 453.72C256.254 454.787 255.514 455.627 254.567 456.24C253.634 456.853 252.56 457.16 251.347 457.16ZM251.347 453.74C252.014 453.74 252.534 453.413 252.907 452.76C253.294 452.107 253.487 451.2 253.487 450.04C253.487 448.907 253.294 448.013 252.907 447.36C252.534 446.693 252.014 446.36 251.347 446.36C250.667 446.36 250.134 446.687 249.747 447.34C249.374 447.993 249.187 448.893 249.187 450.04C249.187 451.173 249.38 452.073 249.767 452.74C250.167 453.407 250.694 453.74 251.347 453.74ZM259.248 460.38L258.548 458.62C259.721 458.22 260.308 457.72 260.308 457.12C259.774 457.12 259.328 456.927 258.968 456.54C258.621 456.153 258.448 455.667 258.448 455.08C258.448 454.493 258.648 454.013 259.048 453.64C259.461 453.253 259.994 453.06 260.648 453.06C261.368 453.06 261.928 453.313 262.328 453.82C262.741 454.313 262.948 454.993 262.948 455.86C262.948 456.993 262.628 457.953 261.988 458.74C261.348 459.527 260.434 460.073 259.248 460.38ZM270.077 457.16C268.864 457.16 267.784 456.86 266.837 456.26C265.891 455.647 265.144 454.807 264.597 453.74C264.064 452.66 263.797 451.427 263.797 450.04C263.797 448.667 264.064 447.447 264.597 446.38C265.144 445.313 265.891 444.473 266.837 443.86C267.784 443.247 268.864 442.94 270.077 442.94C270.984 442.94 271.817 443.12 272.577 443.48C273.337 443.827 273.997 444.32 274.557 444.96C275.117 445.587 275.551 446.333 275.857 447.2C276.177 448.067 276.337 449.013 276.337 450.04C276.337 451.413 276.064 452.64 275.517 453.72C274.984 454.787 274.244 455.627 273.297 456.24C272.364 456.853 271.291 457.16 270.077 457.16ZM270.077 453.74C270.744 453.74 271.264 453.413 271.637 452.76C272.024 452.107 272.217 451.2 272.217 450.04C272.217 448.907 272.024 448.013 271.637 447.36C271.264 446.693 270.744 446.36 270.077 446.36C269.397 446.36 268.864 446.687 268.477 447.34C268.104 447.993 267.917 448.893 267.917 450.04C267.917 451.173 268.111 452.073 268.497 452.74C268.897 453.407 269.424 453.74 270.077 453.74ZM283.652 457.16C282.438 457.16 281.358 456.86 280.412 456.26C279.465 455.647 278.718 454.807 278.172 453.74C277.638 452.66 277.372 451.427 277.372 450.04C277.372 448.667 277.638 447.447 278.172 446.38C278.718 445.313 279.465 444.473 280.412 443.86C281.358 443.247 282.438 442.94 283.652 442.94C284.558 442.94 285.392 443.12 286.152 443.48C286.912 443.827 287.572 444.32 288.132 444.96C288.692 445.587 289.125 446.333 289.432 447.2C289.752 448.067 289.912 449.013 289.912 450.04C289.912 451.413 289.638 452.64 289.092 453.72C288.558 454.787 287.818 455.627 286.872 456.24C285.938 456.853 284.865 457.16 283.652 457.16ZM283.652 453.74C284.318 453.74 284.838 453.413 285.212 452.76C285.598 452.107 285.792 451.2 285.792 450.04C285.792 448.907 285.598 448.013 285.212 447.36C284.838 446.693 284.318 446.36 283.652 446.36C282.972 446.36 282.438 446.687 282.052 447.34C281.678 447.993 281.492 448.893 281.492 450.04C281.492 451.173 281.685 452.073 282.072 452.74C282.472 453.407 282.998 453.74 283.652 453.74ZM297.226 457.16C296.012 457.16 294.932 456.86 293.986 456.26C293.039 455.647 292.292 454.807 291.746 453.74C291.212 452.66 290.946 451.427 290.946 450.04C290.946 448.667 291.212 447.447 291.746 446.38C292.292 445.313 293.039 444.473 293.986 443.86C294.932 443.247 296.012 442.94 297.226 442.94C298.132 442.94 298.966 443.12 299.726 443.48C300.486 443.827 301.146 444.32 301.706 444.96C302.266 445.587 302.699 446.333 303.006 447.2C303.326 448.067 303.486 449.013 303.486 450.04C303.486 451.413 303.212 452.64 302.666 453.72C302.132 454.787 301.392 455.627 300.446 456.24C299.512 456.853 298.439 457.16 297.226 457.16ZM297.226 453.74C297.892 453.74 298.412 453.413 298.786 452.76C299.172 452.107 299.366 451.2 299.366 450.04C299.366 448.907 299.172 448.013 298.786 447.36C298.412 446.693 297.892 446.36 297.226 446.36C296.546 446.36 296.012 446.687 295.626 447.34C295.252 447.993 295.066 448.893 295.066 450.04C295.066 451.173 295.259 452.073 295.646 452.74C296.046 453.407 296.572 453.74 297.226 453.74Z" fill="white"/>
<path d="M73.68 457.32C72.24 457.32 70.98 457.033 69.9 456.46C68.8333 455.873 68 455.053 67.4 454C66.8133 452.947 66.52 451.72 66.52 450.32C66.52 448.88 66.8267 447.607 67.44 446.5C68.0667 445.393 68.92 444.527 70 443.9C71.0933 443.26 72.3467 442.94 73.76 442.94C75.3333 442.94 76.5667 443.247 77.46 443.86L76.92 447.04C76.5333 446.853 76.1267 446.72 75.7 446.64C75.2867 446.547 74.8933 446.5 74.52 446.5C73.4267 446.5 72.5667 446.827 71.94 447.48C71.3133 448.133 71 449.04 71 450.2C71 451.293 71.3 452.153 71.9 452.78C72.5133 453.393 73.36 453.7 74.44 453.7C74.8667 453.7 75.2533 453.66 75.6 453.58C75.96 453.5 76.4 453.353 76.92 453.14L77.48 456.3C76.32 456.98 75.0533 457.32 73.68 457.32ZM78.9164 457V443.24H88.3964V446.28H83.2164V449.06H88.0164V451.74H83.2164V457H78.9164ZM88.248 457L92.048 443.24H98.528L102.508 457H97.608L97.088 454.36H93.528L92.948 457H88.248ZM93.948 451.9H96.608L95.308 445.88L93.948 451.9Z" fill="white"/>
<defs>
<filter id="filter0_i_38_4463" x="0" y="412" width="328" height="180" filterUnits="userSpaceOnUse" color-interpolation-filters="sRGB">
<feFlood flood-opacity="0" result="BackgroundImageFix"/>
<feBlend mode="normal" in="SourceGraphic" in2="BackgroundImageFix" result="shape"/>
<feColorMatrix in="SourceAlpha" type="matrix" values="0 0 0 0 0 0 0 0 0 0 0 0 0 0 0 0 0 0 127 0" result="hardAlpha"/>
<feOffset dy="1"/>
<feComposite in2="hardAlpha" operator="arithmetic" k2="-1" k3="1"/>
<feColorMatrix type="matrix" values="0 0 0 0 1 0 0 0 0 1 0 0 0 0 1 0 0 0 0.504359 0"/>
<feBlend mode="normal" in2="shape" result="effect1_innerShadow_38_4463"/>
</filter>
<linearGradient id="paint0_linear_38_4463" x1="182.388" y1="233" x2="7.88278" y2="668.444" gradientUnits="userSpaceOnUse">
<stop offset="0.359375" stop-color="#215CFF"/>
<stop offset="0.77503" stop-color="#04B159"/>
</linearGradient>
<clipPath id="clip0_38_4463">
<rect x="20" y="434" width="32" height="32" rx="16" fill="white"/>
</clipPath>
<clipPath id="clip1_38_4463">
<rect width="32" height="32" fill="white" transform="translate(20 434)"/>
</clipPath>
</defs>
</svg>
