<svg xmlns="http://www.w3.org/2000/svg" width="216" height="322" fill="none"><path fill="#04B159" fill-rule="evenodd" d="M-93.574 102.731 61.574 13.156c5.64-3.257 10.508-6.067 14.697-8.118 4.408-2.16 9.02-3.971 14.216-4.653a44.59 44.59 0 0 1 32.954 8.861c4.16 3.197 7.251 7.079 9.994 11.16 2.604 3.877 5.419 8.753 8.682 14.404l59.976 103.881c3.262 5.65 6.077 10.526 8.133 14.72 2.162 4.417 3.979 9.034 4.668 14.236a44.58 44.58 0 0 1-8.804 32.968c-3.189 4.16-7.063 7.247-11.137 9.987-3.871 2.601-8.738 5.411-14.379 8.668L25.426 308.845c-5.642 3.257-10.51 6.067-14.696 8.119-4.41 2.158-9.021 3.969-14.217 4.65a44.58 44.58 0 0 1-32.955-8.859c-4.16-3.197-7.25-7.079-9.993-11.16-2.605-3.878-5.42-8.754-8.682-14.404l-59.976-103.881c-3.262-5.651-6.078-10.526-8.133-14.721-2.163-4.416-3.98-9.033-4.668-14.234a44.6 44.6 0 0 1 8.804-32.971c3.188-4.159 7.063-7.246 11.137-9.985 3.87-2.601 8.737-5.411 14.379-8.668m-4.287 41.598c1.586-8.055 9.398-13.288 17.448-11.689L28.3 154.231a14.83 14.83 0 0 0 16.937-9.778L80.897 39.508c2.64-7.77 11.078-11.92 18.845-9.265 7.769 2.654 11.926 11.105 9.286 18.876L73.37 154.064c-7.186 21.148-28.905 33.687-50.812 29.336l-108.714-21.592c-8.05-1.599-13.29-9.425-11.704-17.479" clip-rule="evenodd"/></svg>