<svg xmlns="http://www.w3.org/2000/svg" width="585" height="58" fill="none"><path fill="#fff" d="M15.96 46.024q-4.032 0-8.192-1.024-4.16-.96-7.04-2.624l2.304-10.432q3.713 1.984 6.912 2.624 3.264.576 6.016.576 2.56 0 3.84-.832 1.344-.832 1.344-2.24 0-1.28-1.472-1.984-1.472-.768-3.84-1.408a143 143 0 0 1-4.928-1.472 26.5 26.5 0 0 1-4.992-2.304 12 12 0 0 1-3.776-3.84Q.664 18.632.664 14.984q0-4.608 2.24-7.936 2.24-3.392 6.4-5.184Q13.464.008 19.096.008q3.775 0 7.36 1.024 3.648.96 5.824 2.624l-2.176 9.408q-3.264-1.344-5.888-1.92-2.56-.64-4.864-.64-2.688 0-4.096.768t-1.408 2.048q0 1.215 1.472 1.984t3.776 1.472q2.304.705 4.928 1.6a22.8 22.8 0 0 1 4.928 2.368 12 12 0 0 1 3.776 3.84q1.472 2.369 1.472 5.952 0 7.425-4.864 11.456-4.8 4.032-13.376 4.032m42.519-9.472q1.856 0 3.904-.384 2.112-.384 4.288-1.408l1.536 8.256q-2.368 1.216-5.184 1.856-2.752.64-6.336.64-6.465 0-10.88-2.112-4.352-2.113-6.592-5.824-2.24-3.712-2.24-8.576 0-4.992 2.368-8.704 2.432-3.712 6.464-5.76t8.896-2.048q7.232 0 11.072 4.544 3.84 4.48 3.84 12.8l-19.072 2.432q2.112 4.288 7.936 4.288m-8.96-10.176 10.048-2.112q-.255-2.048-1.408-3.008-1.152-1.024-2.88-1.024-2.56 0-4.096 1.792-1.472 1.728-1.664 4.352M74.075 45V12.936h13.312v6.976q1.472-3.585 4.352-5.504 2.944-1.92 6.976-1.92 6.272 0 9.728 4.352 3.456 4.288 3.456 12.16v16H98.395V28.296q0-5.696-4.608-5.696-2.752 0-4.48 2.048-1.728 1.984-1.728 5.376V45zm58.019.512q-4.416 0-8-2.112-3.584-2.176-5.696-5.952-2.048-3.776-2.048-8.64t2.048-8.512q2.112-3.648 5.696-5.696 3.584-2.112 8-2.112 3.136 0 6.016 1.728 2.944 1.665 4.352 5.44V2.824L155.966.84V45H142.59v-5.952q-1.536 3.135-4.096 4.8t-6.4 1.664m4.16-10.112q2.624 0 4.48-1.856 1.856-1.92 1.856-4.672t-1.856-4.48q-1.856-1.792-4.48-1.792-2.753 0-4.608 1.856-1.856 1.856-1.856 4.544t1.856 4.544q1.855 1.856 4.608 1.856m32.086 9.984q-3.52 0-5.376-1.856-1.856-1.92-1.856-4.672 0-2.816 1.984-4.608 1.984-1.856 5.248-1.856t5.184 1.92q1.983 1.92 1.984 4.544 0 2.944-1.856 4.736-1.793 1.792-5.312 1.792m37.995.64q-4.032 0-8.192-1.024-4.16-.96-7.04-2.624l2.304-10.432q3.712 1.984 6.912 2.624 3.264.576 6.016.576 2.56 0 3.84-.832 1.344-.832 1.344-2.24 0-1.28-1.472-1.984-1.472-.768-3.84-1.408a143 143 0 0 1-4.928-1.472 26.5 26.5 0 0 1-4.992-2.304 12 12 0 0 1-3.776-3.84q-1.472-2.432-1.472-6.08 0-4.608 2.24-7.936 2.24-3.392 6.4-5.184 4.16-1.856 9.792-1.856 3.776 0 7.36 1.024 3.648.96 5.824 2.624l-2.176 9.408q-3.264-1.344-5.888-1.92-2.56-.64-4.864-.64-2.688 0-4.096.768t-1.408 2.048q0 1.215 1.472 1.984t3.776 1.472q2.304.705 4.928 1.6a22.8 22.8 0 0 1 4.928 2.368 12 12 0 0 1 3.776 3.84q1.472 2.369 1.472 5.952 0 7.425-4.864 11.456-4.8 4.032-13.376 4.032M228.638 45V2.824L242.142.84v18.688q1.344-3.328 4.224-5.184t6.912-1.856q6.272 0 9.728 4.352 3.456 4.288 3.456 12.16v16h-13.504V28.296q0-5.696-4.608-5.696-2.752 0-4.48 2.048-1.728 1.984-1.728 5.376V45zm60.707.512q-5.44 0-9.6-2.112-4.161-2.113-6.528-5.824-2.304-3.776-2.304-8.64 0-4.992 2.368-8.64 2.431-3.712 6.592-5.76t9.536-2.048q5.503 0 9.664 2.112 4.16 2.047 6.464 5.76 2.304 3.647 2.304 8.576 0 4.928-2.369 8.704-2.303 3.712-6.463 5.824-4.16 2.048-9.664 2.048m.128-9.6q2.623 0 4.288-1.92 1.728-1.984 1.728-5.056t-1.664-4.992q-1.665-1.984-4.224-1.984-2.752 0-4.48 1.984-1.664 1.92-1.664 4.992t1.664 5.056q1.727 1.92 4.352 1.92m36.669 19.2-13.504 1.984v-44.16h13.312v6.976q1.664-3.968 4.544-5.696 2.943-1.728 6.08-1.728 4.48 0 8 2.112 3.583 2.048 5.632 5.696 2.112 3.648 2.112 8.512t-2.112 8.64q-2.049 3.776-5.632 5.952-3.52 2.112-8 2.112-3.84 0-6.4-1.664-2.56-1.665-4.032-4.8zm6.272-19.712q2.751 0 4.608-1.856T338.878 29q0-2.688-1.856-4.544t-4.608-1.856q-2.625 0-4.48 1.792-1.856 1.728-1.856 4.48t1.856 4.672q1.855 1.856 4.48 1.856m30.051 9.984q-3.52 0-5.376-1.856-1.856-1.92-1.856-4.672 0-2.816 1.984-4.608 1.984-1.856 5.248-1.856t5.184 1.92q1.983 1.92 1.984 4.544 0 2.944-1.856 4.736-1.793 1.792-5.312 1.792m37.995.64q-4.032 0-8.192-1.024-4.16-.96-7.04-2.624l2.304-10.432q3.713 1.984 6.912 2.624 3.264.576 6.016.576 2.56 0 3.84-.832 1.344-.832 1.344-2.24 0-1.28-1.472-1.984-1.472-.768-3.84-1.408a143 143 0 0 1-4.928-1.472 26.5 26.5 0 0 1-4.992-2.304 12 12 0 0 1-3.776-3.84q-1.472-2.432-1.472-6.08 0-4.608 2.24-7.936 2.24-3.392 6.4-5.184 4.16-1.856 9.792-1.856 3.776 0 7.36 1.024 3.648.96 5.824 2.624l-2.176 9.408q-3.264-1.344-5.888-1.92-2.56-.64-4.864-.64-2.688 0-4.096.768t-1.408 2.048q0 1.215 1.472 1.984t3.776 1.472q2.304.705 4.928 1.6a22.8 22.8 0 0 1 4.928 2.368 12 12 0 0 1 3.776 3.84q1.472 2.369 1.472 5.952 0 7.425-4.864 11.456-4.8 4.032-13.376 4.032m35.807 9.088-13.504 1.984v-44.16h13.312v6.976q1.664-3.968 4.544-5.696 2.943-1.728 6.08-1.728 4.48 0 8 2.112 3.583 2.048 5.632 5.696 2.112 3.648 2.112 8.512t-2.112 8.64q-2.049 3.776-5.632 5.952-3.52 2.112-8 2.112-3.84 0-6.4-1.664-2.56-1.665-4.032-4.8zm6.272-19.712q2.751 0 4.608-1.856T449.003 29q0-2.688-1.856-4.544t-4.608-1.856q-2.625 0-4.48 1.792-1.856 1.728-1.856 4.48t1.856 4.672q1.855 1.856 4.48 1.856m44.628 1.152q1.855 0 3.904-.384 2.112-.384 4.288-1.408l1.536 8.256q-2.369 1.216-5.184 1.856-2.752.64-6.336.64-6.465 0-10.88-2.112-4.353-2.113-6.592-5.824-2.24-3.712-2.24-8.576 0-4.992 2.368-8.704 2.432-3.712 6.464-5.76t8.896-2.048q7.232 0 11.072 4.544 3.84 4.48 3.84 12.8l-19.072 2.432q2.112 4.288 7.936 4.288m-8.96-10.176 10.048-2.112q-.256-2.048-1.408-3.008-1.152-1.024-2.88-1.024-2.56 0-4.096 1.792-1.473 1.728-1.664 4.352M502.763 45V12.936h13.312v6.976q1.472-3.585 4.352-5.504 2.943-1.92 6.976-1.92 6.272 0 9.728 4.352 3.456 4.288 3.456 12.16v16h-13.504V28.296q0-5.696-4.608-5.696-2.752 0-4.48 2.048-1.728 1.984-1.728 5.376V45zm58.019.512q-4.416 0-8-2.112-3.585-2.176-5.696-5.952-2.048-3.776-2.048-8.64t2.048-8.512q2.111-3.648 5.696-5.696 3.584-2.112 8-2.112 3.135 0 6.016 1.728 2.943 1.665 4.352 5.44V2.824L584.654.84V45h-13.376v-5.952q-1.536 3.135-4.096 4.8t-6.4 1.664m4.16-10.112q2.623 0 4.48-1.856 1.856-1.92 1.856-4.672t-1.856-4.48q-1.857-1.792-4.48-1.792-2.752 0-4.609 1.856-1.855 1.856-1.855 4.544t1.855 4.544q1.857 1.856 4.609 1.856"/></svg>