<svg xmlns="http://www.w3.org/2000/svg" width="16" height="14" fill="none"><path fill="#fff" fill-rule="evenodd" d="M3.174.5h9.652c.35 0 .653 0 .904.017.264.019.528.059.788.169a2.42 2.42 0 0 1 1.3 1.319c.107.265.147.533.165.8.017.255.017.563.017.919v6.552c0 .356 0 .664-.017.918a2.5 2.5 0 0 1-.166.801 2.42 2.42 0 0 1-1.299 1.32c-.26.11-.524.15-.788.168-.25.017-.553.017-.904.017H3.174c-.35 0-.653 0-.904-.017a2.4 2.4 0 0 1-.788-.169 2.42 2.42 0 0 1-1.3-1.319 2.5 2.5 0 0 1-.165-.8C0 10.94 0 10.631 0 10.275V3.724c0-.356 0-.664.017-.918.018-.268.058-.536.166-.801A2.42 2.42 0 0 1 1.482.685c.26-.11.524-.15.788-.168C2.52.5 2.824.5 3.174.5m-1.32 1.85a.79.79 0 0 1 1.129-.076l4.49 3.99a.79.79 0 0 0 1.054 0l4.49-3.99a.79.79 0 0 1 1.129.077.82.82 0 0 1-.075 1.146l-4.49 3.99a2.37 2.37 0 0 1-3.161 0l-4.49-3.99a.82.82 0 0 1-.076-1.146" clip-rule="evenodd"/></svg>