<svg xmlns="http://www.w3.org/2000/svg" width="378" height="101" fill="none"><path fill="#000" d="M1.86 40V4.224h10.816l8.944 17.368 8.736-17.368h10.816V40H30.356V21.28l-6.604 12.48h-4.42l-6.656-12.48V40zm58.258.416q-6.603 0-10.348-3.328-3.692-3.38-3.692-9.308V13.948H56.79v14.3q0 2.08.884 3.068.936.988 2.496.988 1.509 0 2.34-.988.885-.988.884-3.068v-14.3h10.504V27.78q0 5.98-3.64 9.308-3.588 3.328-10.14 3.328m28.964 0q-3.692 0-6.032-1.248-2.287-1.248-3.328-3.38t-1.04-4.784V4.692L89.654 3.08v26.416q0 1.195.78 1.872.78.624 2.028.624t2.496-.624l.78 7.228q-1.248.884-3.172 1.352t-3.484.468m19.876 0q-3.692 0-6.032-1.248-2.287-1.248-3.328-3.38t-1.04-4.784V20.396H95.23v-6.448h4.108l4.836-8.216h5.356v8.216h6.032v6.448h-6.032v9.1q0 1.195.78 1.872.78.624 2.028.624t2.496-.624l.78 7.228q-1.248.884-3.172 1.352t-3.484.468m20.024 0q-3.484 0-5.668-1.248-2.133-1.248-3.12-3.38t-.988-4.784V13.948h10.972v15.548q0 1.195.676 1.872a2.55 2.55 0 0 0 1.716.624q1.04 0 2.132-.624l.572 7.228q-1.144.884-2.964 1.352t-3.328.468m-4.264-29.328q-2.392 0-4.108-1.508-1.716-1.56-1.716-3.796 0-1.56.832-2.704a5.7 5.7 0 0 1 2.184-1.872 6.2 6.2 0 0 1 2.808-.676q1.611 0 2.912.728 1.352.728 2.132 1.924.832 1.196.832 2.6 0 1.56-.884 2.756a5.74 5.74 0 0 1-2.184 1.872 6 6 0 0 1-2.808.676m12.565 19.916v-8.112h13.988v8.112zm31.841 9.412q-4.369 0-7.54-1.716t-4.888-4.68q-1.716-3.015-1.716-6.916 0-3.847 1.768-6.916 1.767-3.067 4.94-4.836 3.224-1.768 7.436-1.768 5.043 0 7.956 2.08l-1.144 7.072q-1.3-.572-2.444-.78a10 10 0 0 0-2.184-.26q-2.548 0-4.056 1.456-1.456 1.404-1.456 3.848 0 2.392 1.456 3.9 1.455 1.456 3.848 1.456 2.08 0 4.888-.884l.988 7.28q-1.716.832-3.588 1.248-1.82.416-4.264.416m25.615 0q-6.603 0-10.348-3.328-3.692-3.38-3.692-9.308V13.948h10.712v14.3q0 2.08.884 3.068.936.988 2.496.988 1.509 0 2.34-.988.885-.988.884-3.068v-14.3h10.504V27.78q0 5.98-3.64 9.308-3.588 3.328-10.14 3.328m18.72-.416V13.948h10.816v6.5q1.04-3.535 3.224-5.2 2.236-1.664 5.304-1.664l1.3 9.204a20 20 0 0 0-2.444-.156q-7.228 0-7.228 5.928V40zm23.258 0V13.948h10.816v6.5q1.04-3.535 3.224-5.2 2.237-1.664 5.304-1.664l1.3 9.204a20 20 0 0 0-2.444-.156q-7.227 0-7.228 5.928V40zm38.668-6.864a17 17 0 0 0 3.172-.312q1.716-.312 3.484-1.144l1.248 6.708a17.8 17.8 0 0 1-4.212 1.508q-2.235.52-5.148.52-5.252 0-8.84-1.716-3.535-1.716-5.356-4.732T257.913 27q0-4.056 1.924-7.072 1.976-3.015 5.252-4.68t7.228-1.664q5.877 0 8.996 3.692 3.12 3.64 3.12 10.4l-15.496 1.976q1.716 3.484 6.448 3.484m-7.28-8.268 8.164-1.716q-.207-1.665-1.144-2.444-.936-.832-2.34-.832-2.08 0-3.328 1.456-1.196 1.404-1.352 3.536M288.057 40V13.948h10.816v5.668q1.196-2.912 3.536-4.472 2.392-1.56 5.668-1.56 5.096 0 7.904 3.536 2.808 3.484 2.808 9.88v13h-10.972V26.428q0-4.628-3.744-4.628-2.236 0-3.64 1.664-1.404 1.612-1.404 4.368V40zm48.492.416q-4.368 0-7.54-1.716t-4.888-4.68q-1.716-3.015-1.716-6.916 0-3.847 1.768-6.916 1.769-3.067 4.94-4.836 3.224-1.768 7.436-1.768 5.044 0 7.956 2.08l-1.144 7.072q-1.3-.572-2.444-.78a10 10 0 0 0-2.184-.26q-2.547 0-4.056 1.456-1.456 1.404-1.456 3.848 0 2.392 1.456 3.9 1.457 1.456 3.848 1.456 2.08 0 4.888-.884l.988 7.28q-1.716.832-3.588 1.248-1.82.416-4.264.416m25.512 9.724q-1.976 0-3.692-.26t-2.704-.624l.832-7.54q.936.209 2.028.312 1.092.156 2.132.156 3.484 0 4.992-1.456 1.56-1.455 1.56-4.472v-2.964q-1.248 3.172-3.536 4.628-2.288 1.404-5.408 1.404-4.836 0-7.488-3.484-2.652-3.536-2.652-9.932v-11.96h10.972V26.48q0 4.628 3.276 4.628 2.028 0 3.224-1.664 1.248-1.664 1.248-4.368V13.948h10.972v19.968q0 8.32-4.108 12.272t-11.648 3.952M8.308 100 .196 64.224h11.7l3.38 22.308 3.484-16.224h12.116l3.536 16.224 3.38-22.308h11.7L41.38 100H29.264l-4.42-19.604L20.424 100zm53.839.416q-3.588 0-6.5-1.716-2.913-1.768-4.628-4.836-1.665-3.067-1.664-7.02 0-3.952 1.664-6.916 1.715-2.964 4.628-4.628 2.912-1.716 6.5-1.716 2.547 0 4.94 1.404 2.391 1.404 3.692 4.628v-5.668h10.816V100h-10.92v-4.836q-1.248 2.548-3.328 3.9t-5.2 1.352m3.38-8.216q2.131 0 3.64-1.508 1.508-1.56 1.508-3.796t-1.508-3.64q-1.509-1.456-3.64-1.456-2.236 0-3.744 1.508T60.275 87t1.508 3.692 3.744 1.508m31.528 8.216q-3.692 0-6.032-1.248-2.288-1.248-3.328-3.38t-1.04-4.784V64.692l10.972-1.612v26.416q0 1.195.78 1.872.78.624 2.028.624t2.496-.624l.78 7.228q-1.248.885-3.172 1.352t-3.484.468m19.5 0q-3.692 0-6.032-1.248-2.288-1.248-3.328-3.38t-1.04-4.784V64.692l10.972-1.612v26.416q0 1.195.78 1.872.78.624 2.028.624t2.496-.624l.78 7.228q-1.248.885-3.172 1.352t-3.484.468m25.174-7.28q1.508 0 3.172-.312 1.716-.312 3.484-1.144l1.248 6.708a17.8 17.8 0 0 1-4.212 1.508q-2.236.52-5.148.52-5.252 0-8.84-1.716-3.536-1.716-5.356-4.732T124.257 87q0-4.056 1.924-7.072 1.976-3.015 5.252-4.68t7.228-1.664q5.876 0 8.996 3.692 3.12 3.64 3.12 10.4l-15.496 1.976q1.716 3.484 6.448 3.484m-7.28-8.268 8.164-1.716q-.208-1.665-1.144-2.444-.936-.832-2.34-.832-2.08 0-3.328 1.456-1.196 1.404-1.352 3.536m31.08 15.548q-3.692 0-6.032-1.248-2.289-1.248-3.328-3.38-1.04-2.132-1.04-4.784V80.396h-3.328v-6.448h4.108l4.836-8.216h5.356v8.216h6.032v6.448h-6.032v9.1q0 1.195.78 1.872.78.624 2.028.624t2.496-.624l.78 7.228q-1.248.885-3.172 1.352t-3.484.468m18.775 0q-2.34 0-4.732-.468t-4.316-1.3l1.508-6.552q1.195.624 3.276 1.092 2.08.416 3.692.416 2.6 0 2.6-1.404 0-.675-.832-.988-.78-.312-2.08-.52a71 71 0 0 1-2.704-.624 11.4 11.4 0 0 1-2.756-1.196q-1.248-.833-2.08-2.34-.78-1.508-.78-3.952 0-4.109 3.224-6.552 3.276-2.445 8.944-2.444 2.184 0 4.056.312 1.924.312 3.64 1.3l-1.092 6.344a14.9 14.9 0 0 0-5.772-1.144q-1.924 0-2.808.312-.832.312-.832 1.04 0 .572.832.884t2.132.624q1.352.26 2.808.78 1.456.468 2.756 1.352 1.351.885 2.184 2.392.832 1.456.832 3.796 0 4.16-3.068 6.5t-8.632 2.34"/></svg>