<svg xmlns="http://www.w3.org/2000/svg" width="60" height="61" fill="none"><g clip-path="url(#a)"><path fill="#fff" d="M30 56.5c14.36 0 26-11.64 26-26s-11.64-26-26-26-26 11.64-26 26 11.64 26 26 26"/><g clip-path="url(#b)"><path fill="#EFEFEF" d="M56 31c0 6.945-2.705 13.474-7.615 18.385C43.474 54.295 36.945 57 30 57s-13.474-2.705-18.385-7.615C6.705 44.474 4 37.945 4 31s2.704-13.474 7.615-18.385C16.526 7.705 23.055 5 30 5s13.474 2.704 18.385 7.615C53.295 17.526 56 24.055 56 31"/><path fill="#187F44" d="M56 31c0 6.95-2.705 13.485-7.616 18.4a25.9 25.9 0 0 1-9.243 5.975V6.625a25.9 25.9 0 0 1 9.243 5.975C53.295 17.515 56 24.05 56 31M20.86 6.625v48.75a25.9 25.9 0 0 1-9.244-5.974C6.706 44.485 4 37.95 4 31c0-6.95 2.705-13.485 7.616-18.4a25.9 25.9 0 0 1 9.243-5.975"/><path fill="#160204" d="M56 31.005c0 6.943-2.704 13.47-7.614 18.38S36.95 57 30.006 57c-5.297 0-10.352-1.575-14.631-4.502 4.391 1.912 9.235 2.588 14.099 1.915 6.977-.966 13.16-4.591 17.41-10.207 4.25-5.618 6.06-12.553 5.094-19.53-.845-6.098-3.719-11.59-8.18-15.715a26.2 26.2 0 0 1 4.588 3.663C53.296 17.534 56 24.061 56 31.004" opacity=".13"/><path fill="#fff" d="M42.39 8.114c-4.633-1.336-9.559-1.4-14.342-.136-6.973 1.844-12.809 6.291-16.436 12.523-3.626 6.232-4.608 13.503-2.763 20.473a26.86 26.86 0 0 0 6.103 11.253 26 26 0 0 1-3.33-2.82C6.707 44.493 4 37.96 4 31.013s2.707-13.48 7.622-18.393S23.072 5 30.022 5c4.39 0 8.613 1.08 12.369 3.114" opacity=".25"/></g></g><rect width="56" height="56" x="2" y="2.5" stroke="#fff" stroke-width="4" rx="28"/><defs><clipPath id="a"><rect width="52" height="52" x="4" y="4.5" fill="#fff" rx="26"/></clipPath><clipPath id="b"><path fill="#fff" d="M4 5h52v52H4z"/></clipPath></defs></svg>