<svg xmlns="http://www.w3.org/2000/svg" width="152" height="152" fill="none"><g clip-path="url(#a)"><mask id="b" width="152" height="152" x="0" y="0" maskUnits="userSpaceOnUse" style="mask-type:alpha"><rect width="152" height="152" fill="#215CFF" rx="32"/></mask><g mask="url(#b)"><path fill="#04B159" d="M0 0h152v152H0z"/></g><path fill="#fff" fill-rule="evenodd" d="M107.957 50.107a3.793 3.793 0 0 0-5.513-3.923C92.32 51.5 56.906 70.093 46.029 75.802a3.791 3.791 0 0 0 .533 6.945L95.925 99.67a3.8 3.8 0 0 0 3.197-.343 3.8 3.8 0 0 0 1.783-2.676zM49.488 79.03 96.61 95.184l6.733-44.428z" clip-rule="evenodd"/><path fill="#fff" fill-rule="evenodd" d="m70.415 88.799 35.849-37.408a2.233 2.233 0 0 0-3.224-3.09L67.191 85.709a2.234 2.234 0 0 0 .066 3.158c.89.852 2.304.822 3.158-.068" clip-rule="evenodd"/><path fill="#fff" fill-rule="evenodd" d="M71.033 100.986V87.254a2.233 2.233 0 0 0-4.465 0v15.232a3.792 3.792 0 0 0 6.311 2.834c4.054-3.602 11.434-10.163 11.434-10.163a2.232 2.232 0 1 0-2.965-3.337z" clip-rule="evenodd"/></g><defs><clipPath id="a"><path fill="#fff" d="M0 0h152v152H0z"/></clipPath></defs></svg>