<svg xmlns="http://www.w3.org/2000/svg" width="128" height="20" fill="none"><path fill="#000" fill-opacity=".32" fill-rule="evenodd" d="M8.168 11.369a1.884 1.884 0 0 0 0-2.738L8.06 8.53C6.045 6.605 4.488 5.12 4.02 2.007 3.852.91 4.792 0 5.924 0h9.15c1.131 0 2.072.91 1.906 2.007-.47 3.113-2.026 4.598-4.041 6.522l-.107.102a1.884 1.884 0 0 0 0 2.738l.107.102c2.015 1.924 3.572 3.409 4.04 6.522.167 1.097-.774 2.007-1.905 2.007h-9.15c-1.132 0-2.072-.91-1.906-2.007.47-3.113 2.026-4.598 4.041-6.522zm.683 1.697-.008.007c-1.535 1.373-2.678 2.395-2.827 4.923a.47.47 0 0 0 .168.388.5.5 0 0 0 .32.116h7.992c.144 0 .274-.06.363-.158a.47.47 0 0 0 .124-.346c-.149-2.528-1.291-3.55-2.826-4.923-.407-.363-.84-.751-1.29-1.198a.523.523 0 0 0-.735 0c-.447.444-.878.83-1.281 1.191" clip-rule="evenodd"/><path fill="#000" fill-opacity=".32" d="M33.088 18.52V6.936h1.44l.16 1.248q.255-.368.64-.688a3.1 3.1 0 0 1 .912-.544q.544-.208 1.264-.208 1.152 0 2.016.56.88.56 1.36 1.52.495.945.496 2.16 0 1.216-.496 2.176a3.8 3.8 0 0 1-1.376 1.488q-.864.544-2.016.544-.945 0-1.664-.368a2.93 2.93 0 0 1-1.136-1.056v4.752zm4.144-4.72a2.38 2.38 0 0 0 2.192-1.344q.336-.64.336-1.488t-.336-1.472a2.4 2.4 0 0 0-.896-.992 2.3 2.3 0 0 0-1.296-.368q-.752 0-1.328.368a2.4 2.4 0 0 0-.88.992q-.32.624-.32 1.472t.32 1.488.88.992q.576.352 1.328.352m6.012 1.2V3.48h1.6V15zm7.445.192q-1.151 0-2.048-.528a3.74 3.74 0 0 1-1.408-1.472q-.495-.944-.496-2.192 0-1.28.496-2.224.512-.96 1.408-1.488.896-.544 2.08-.544t2.032.528a3.6 3.6 0 0 1 1.312 1.408q.465.864.464 1.92 0 .16-.016.352 0 .175-.016.4h-6.592v-1.136h5.024q-.048-1.008-.672-1.568-.624-.576-1.552-.576-.656 0-1.2.304-.544.288-.88.864-.32.56-.32 1.424v.448q0 .896.32 1.52.336.608.88.928.545.304 1.184.304.769 0 1.264-.336t.736-.912h1.6q-.208.735-.704 1.328a3.5 3.5 0 0 1-1.232.912q-.72.336-1.664.336m8.29 0q-.992 0-1.648-.336-.657-.336-.976-.896a2.5 2.5 0 0 1-.32-1.232q0-.8.416-1.36.416-.576 1.184-.88t1.84-.304h2.096q0-.705-.208-1.168a1.4 1.4 0 0 0-.624-.688q-.4-.24-1.024-.24-.72 0-1.232.352-.513.336-.64 1.008h-1.6q.096-.848.576-1.44.495-.608 1.264-.928a4 4 0 0 1 1.632-.336q1.136 0 1.904.4T62.77 8.28q.4.72.4 1.728V15h-1.392l-.128-1.36a4 4 0 0 1-.416.608 2.4 2.4 0 0 1-.576.496 2.5 2.5 0 0 1-.752.32 3.2 3.2 0 0 1-.928.128m.304-1.296q.511 0 .928-.208.416-.208.704-.56.303-.367.448-.816.16-.464.176-.944v-.048h-1.904q-.688 0-1.12.176-.417.16-.608.448a1.2 1.2 0 0 0-.192.672q0 .4.176.688.192.271.544.432.351.16.848.16m9.05 1.296q-1.024 0-1.792-.336a2.93 2.93 0 0 1-1.216-.944 2.93 2.93 0 0 1-.544-1.424h1.632q.08.383.304.704.24.32.64.512.416.192.976.192.528 0 .864-.144.352-.16.512-.416.16-.271.16-.576 0-.448-.224-.672-.208-.24-.64-.368a7 7 0 0 0-1.008-.256 9 9 0 0 1-1.088-.256 4.6 4.6 0 0 1-.928-.432 2 2 0 0 1-.64-.64q-.24-.4-.24-.976 0-.689.368-1.232a2.4 2.4 0 0 1 1.04-.864q.688-.32 1.616-.32 1.344 0 2.16.64t.96 1.808h-1.552q-.064-.544-.48-.832-.415-.304-1.104-.304-.688 0-1.056.272a.85.85 0 0 0-.368.72q0 .288.208.512t.608.384q.416.144 1.008.272.848.16 1.52.4t1.072.704.4 1.328q.016.752-.384 1.328-.384.576-1.104.896-.705.32-1.68.32m8.7 0q-1.151 0-2.048-.528a3.74 3.74 0 0 1-1.408-1.472q-.495-.944-.496-2.192 0-1.28.496-2.224.511-.96 1.408-1.488.895-.544 2.08-.544 1.184 0 2.032.528a3.6 3.6 0 0 1 1.312 1.408q.464.864.464 1.92 0 .16-.016.352 0 .175-.016.4h-6.592v-1.136h5.024q-.048-1.008-.672-1.568-.624-.576-1.552-.576-.656 0-1.2.304-.544.288-.88.864-.32.56-.32 1.424v.448q0 .896.32 1.52.336.608.88.928.543.304 1.184.304.768 0 1.264-.336.495-.336.736-.912h1.6a3.55 3.55 0 0 1-.704 1.328q-.496.576-1.232.912-.72.336-1.664.336M88.376 15l-2.368-8.064h1.584l1.76 6.72-.304-.016L91 6.936h1.792l1.952 6.704-.304.016 1.744-6.72H97.8L95.432 15h-1.648l-2.048-6.992h.32L90.008 15zm13.212.192q-.992 0-1.648-.336t-.976-.896a2.5 2.5 0 0 1-.32-1.232q0-.8.416-1.36.417-.576 1.184-.88.768-.304 1.84-.304h2.096q0-.705-.208-1.168a1.4 1.4 0 0 0-.624-.688q-.4-.24-1.024-.24-.72 0-1.232.352-.512.336-.64 1.008h-1.6q.096-.848.576-1.44.495-.608 1.264-.928a4 4 0 0 1 1.632-.336q1.136 0 1.904.4t1.152 1.136q.4.72.4 1.728V15h-1.392l-.128-1.36a4 4 0 0 1-.416.608 2.4 2.4 0 0 1-.576.496 2.5 2.5 0 0 1-.752.32 3.2 3.2 0 0 1-.928.128m.304-1.296q.512 0 .928-.208a2.1 2.1 0 0 0 .704-.56 2.4 2.4 0 0 0 .448-.816q.16-.464.176-.944v-.048h-1.904q-.688 0-1.12.176-.416.16-.608.448a1.2 1.2 0 0 0-.192.672q0 .4.176.688.192.271.544.432t.848.16M107.934 15V6.936h1.6V15zm.816-9.584q-.464 0-.768-.288a1 1 0 0 1-.288-.736q0-.432.288-.704.304-.288.768-.288.449 0 .752.288a.9.9 0 0 1 .304.704.97.97 0 0 1-.304.736 1.05 1.05 0 0 1-.752.288m6.4 9.584q-.768 0-1.328-.24a1.75 1.75 0 0 1-.864-.8q-.303-.56-.304-1.52V8.296h-1.392v-1.36h1.392l.192-2.016h1.408v2.016h2.288v1.36h-2.288v4.16q0 .688.288.944.288.24.992.24h.928V15zm3.797.08a1.07 1.07 0 0 1-.768-.288 1.01 1.01 0 0 1-.288-.72q0-.432.288-.72.303-.304.768-.304.464 0 .752.304a.98.98 0 0 1 .288.72q0 .415-.288.72-.288.288-.752.288m3.437 0q-.463 0-.768-.288a1.01 1.01 0 0 1-.288-.72q0-.432.288-.72.305-.304.768-.304.465 0 .752.304a.98.98 0 0 1 .288.72q0 .415-.288.72-.287.288-.752.288m3.438 0a1.07 1.07 0 0 1-.768-.288 1.01 1.01 0 0 1-.288-.72q0-.432.288-.72.303-.304.768-.304.464 0 .752.304a.98.98 0 0 1 .288.72q0 .415-.288.72-.288.288-.752.288"/></svg>