<svg xmlns="http://www.w3.org/2000/svg" width="449" height="111" fill="none"><path fill="#000" d="M13.014 40.832q-3.275 0-6.656-.832-3.38-.78-5.72-2.132l1.872-8.476q3.017 1.612 5.616 2.132 2.653.468 4.888.468 2.08 0 3.12-.676 1.092-.675 1.092-1.82 0-1.04-1.196-1.612-1.195-.624-3.12-1.144a116 116 0 0 1-4.004-1.196 21.5 21.5 0 0 1-4.056-1.872 9.8 9.8 0 0 1-3.068-3.12Q.586 18.576.586 15.612q0-3.744 1.82-6.448 1.82-2.755 5.2-4.212 3.381-1.508 7.956-1.508 3.069 0 5.98.832 2.964.78 4.732 2.132l-1.768 7.644q-2.652-1.092-4.784-1.56-2.08-.52-3.952-.52-2.184 0-3.328.624t-1.144 1.664q0 .988 1.196 1.612 1.197.624 3.068 1.196 1.872.572 4.004 1.3a18.5 18.5 0 0 1 4.004 1.924 9.8 9.8 0 0 1 3.068 3.12q1.197 1.925 1.196 4.836 0 6.032-3.952 9.308-3.9 3.276-10.868 3.276m34.547-7.696q1.508 0 3.172-.312 1.716-.312 3.484-1.144l1.248 6.708a17.8 17.8 0 0 1-4.212 1.508q-2.236.52-5.148.52-5.252 0-8.84-1.716-3.536-1.716-5.356-4.732T30.09 27q0-4.056 1.924-7.072 1.976-3.015 5.252-4.68t7.228-1.664q5.876 0 8.996 3.692 3.12 3.64 3.12 10.4l-15.496 1.976q1.716 3.484 6.448 3.484m-7.28-8.268 8.164-1.716q-.208-1.665-1.144-2.444-.936-.832-2.34-.832-2.08 0-3.328 1.456-1.196 1.404-1.352 3.536M60.233 40V13.948h10.816v5.668q1.196-2.912 3.536-4.472 2.392-1.56 5.668-1.56 5.096 0 7.904 3.536 2.808 3.484 2.808 9.88v13H79.993V26.428q0-4.628-3.744-4.628-2.235 0-3.64 1.664-1.404 1.612-1.404 4.368V40zm47.14.416q-3.587 0-6.5-1.716-2.912-1.768-4.628-4.836-1.665-3.067-1.664-7.02 0-3.952 1.664-6.916 1.716-2.964 4.628-4.628 2.913-1.716 6.5-1.716 2.548 0 4.888 1.404 2.393 1.352 3.536 4.42V5.732l10.972-1.612V40h-10.868v-4.836q-1.248 2.549-3.328 3.9-2.08 1.352-5.2 1.352m3.38-8.216q2.133 0 3.64-1.508 1.508-1.56 1.508-3.796t-1.508-3.64q-1.507-1.455-3.64-1.456-2.235 0-3.744 1.508-1.508 1.508-1.508 3.692t1.508 3.692q1.509 1.508 3.744 1.508m42.425 8.216q-3.588 0-6.5-1.716-2.912-1.768-4.628-4.836-1.664-3.067-1.664-7.02t1.664-6.916q1.716-2.964 4.628-4.628 2.912-1.716 6.5-1.716 2.548 0 4.94 1.404t3.692 4.628v-5.668h10.816V40h-10.92v-4.836q-1.248 2.549-3.328 3.9-2.08 1.352-5.2 1.352m3.38-8.216q2.132 0 3.64-1.508 1.508-1.56 1.508-3.796t-1.508-3.64q-1.508-1.455-3.64-1.456-2.237 0-3.744 1.508T151.306 27t1.508 3.692 3.744 1.508m21.284 7.8V13.948h10.816v5.668q1.196-2.912 3.536-4.472 2.392-1.56 5.668-1.56 5.097 0 7.904 3.536 2.808 3.484 2.808 9.88v13h-10.972V26.428q0-4.628-3.744-4.628-2.236 0-3.64 1.664-1.404 1.612-1.404 4.368V40zm47.141.416q-3.588 0-6.5-1.716-2.913-1.768-4.628-4.836-1.665-3.067-1.664-7.02 0-3.952 1.664-6.916 1.715-2.964 4.628-4.628 2.912-1.716 6.5-1.716 2.548 0 4.888 1.404 2.391 1.352 3.536 4.42V5.732l10.972-1.612V40h-10.868v-4.836q-1.248 2.549-3.328 3.9-2.08 1.352-5.2 1.352m3.38-8.216q2.131 0 3.64-1.508 1.508-1.56 1.508-3.796t-1.508-3.64q-1.509-1.455-3.64-1.456-2.237 0-3.744 1.508-1.509 1.508-1.508 3.692t1.508 3.692 3.744 1.508m58.284 8.632q-3.743 0-6.188-1.092-2.443-1.145-3.9-3.12-1.455-1.976-2.184-4.628-.727-2.652-.988-5.72h-2.444V40h-11.388V4.224h14.716q8.528 0 12.272 3.016 3.796 2.964 3.796 8.06 0 3.068-1.664 5.512-1.663 2.393-5.356 4.004.208 1.144.364 1.872t.468 1.612q.677 1.872 1.664 2.6 1.041.728 2.808.728 1.145 0 2.288-.312l.624 8.528q-1.04.416-2.236.676-1.143.312-2.652.312m-15.704-21.684h1.976q3.848 0 5.408-.832 1.612-.884 1.612-2.964 0-1.768-1.3-2.548-1.3-.832-4.108-.832h-3.588zm39.665 13.988q1.508 0 3.172-.312 1.716-.312 3.484-1.144l1.248 6.708a17.8 17.8 0 0 1-4.212 1.508q-2.236.52-5.148.52-5.252 0-8.84-1.716-3.536-1.716-5.356-4.732T293.136 27q0-4.056 1.924-7.072 1.976-3.015 5.252-4.68t7.228-1.664q5.876 0 8.996 3.692 3.12 3.64 3.12 10.4l-15.496 1.976q1.716 3.484 6.448 3.484m-7.28-8.268 8.164-1.716q-.208-1.665-1.144-2.444-.936-.832-2.34-.832-2.08 0-3.328 1.456-1.196 1.404-1.352 3.536m32.796 15.548q-4.368 0-7.54-1.716t-4.888-4.68q-1.716-3.015-1.716-6.916 0-3.847 1.768-6.916 1.767-3.067 4.94-4.836 3.224-1.768 7.436-1.768 5.043 0 7.956 2.08l-1.144 7.072q-1.3-.572-2.444-.78a10 10 0 0 0-2.184-.26q-2.548 0-4.056 1.456-1.456 1.404-1.456 3.848 0 2.392 1.456 3.9 1.455 1.456 3.848 1.456 2.08 0 4.888-.884l.988 7.28q-1.716.832-3.588 1.248-1.82.416-4.264.416m27.703-7.28q1.507 0 3.172-.312 1.716-.312 3.484-1.144l1.248 6.708a17.8 17.8 0 0 1-4.212 1.508q-2.236.52-5.148.52-5.252 0-8.84-1.716-3.537-1.716-5.356-4.732-1.82-3.015-1.82-6.968 0-4.056 1.924-7.072 1.976-3.015 5.252-4.68t7.228-1.664q5.876 0 8.996 3.692 3.12 3.64 3.12 10.4l-15.496 1.976q1.716 3.484 6.448 3.484m-7.28-8.268 8.164-1.716q-.208-1.665-1.144-2.444-.936-.832-2.34-.832-2.08 0-3.328 1.456-1.197 1.404-1.352 3.536m29.571 15.548q-3.483 0-5.668-1.248-2.132-1.248-3.12-3.38t-.988-4.784V13.948h10.972v15.548q0 1.195.676 1.872a2.56 2.56 0 0 0 1.716.624q1.04 0 2.132-.624l.572 7.228q-1.143.884-2.964 1.352t-3.328.468m-4.264-29.328q-2.392 0-4.108-1.508-1.716-1.56-1.716-3.796 0-1.56.832-2.704a5.74 5.74 0 0 1 2.184-1.872 6.2 6.2 0 0 1 2.808-.676q1.613 0 2.912.728 1.352.728 2.132 1.924.832 1.196.832 2.6 0 1.56-.884 2.756a5.7 5.7 0 0 1-2.184 1.872 6 6 0 0 1-2.808.676M400.101 40l-9.1-26.052h12.064l4.524 15.6 4.42-15.6h9.516L412.737 40zm39.593-6.864q1.508 0 3.172-.312 1.716-.312 3.484-1.144l1.248 6.708a17.8 17.8 0 0 1-4.212 1.508q-2.236.52-5.148.52-5.252 0-8.84-1.716-3.536-1.716-5.356-4.732T422.222 27q0-4.056 1.924-7.072 1.976-3.015 5.252-4.68t7.228-1.664q5.876 0 8.996 3.692 3.12 3.64 3.12 10.4l-15.496 1.976q1.716 3.484 6.448 3.484m-7.28-8.268 8.164-1.716q-.208-1.665-1.144-2.444-.936-.832-2.34-.832-2.08 0-3.328 1.456-1.196 1.404-1.352 3.536M139.102 100V64.224h10.816l8.944 17.368 8.736-17.368h10.816V100h-10.816V81.28l-6.604 12.48h-4.42l-6.656-12.48V100zm58.205.416q-4.419 0-7.8-1.716-3.38-1.716-5.304-4.732-1.872-3.068-1.872-7.02 0-4.056 1.924-7.02 1.977-3.015 5.356-4.68 3.38-1.665 7.748-1.664 4.473 0 7.852 1.716 3.38 1.665 5.252 4.68 1.872 2.964 1.872 6.968 0 4.005-1.924 7.072-1.871 3.016-5.252 4.732-3.38 1.665-7.852 1.664m.104-7.8q2.133 0 3.484-1.56 1.404-1.612 1.404-4.108t-1.352-4.056q-1.352-1.612-3.432-1.612-2.236 0-3.64 1.612-1.352 1.56-1.352 4.056t1.352 4.108q1.404 1.56 3.536 1.56M216.233 100V73.948h10.816v5.668q1.196-2.912 3.536-4.472 2.392-1.56 5.668-1.56 5.096 0 7.904 3.536 2.808 3.484 2.808 9.88v13h-10.972V86.428q0-4.628-3.744-4.628-2.236 0-3.64 1.664-1.404 1.612-1.404 4.368V100zm51.82-6.864a17 17 0 0 0 3.172-.312q1.716-.312 3.484-1.144l1.248 6.708a17.8 17.8 0 0 1-4.212 1.508q-2.235.52-5.148.52-5.252 0-8.84-1.716-3.535-1.716-5.356-4.732T250.581 87q0-4.056 1.924-7.072 1.977-3.015 5.252-4.68 3.276-1.665 7.228-1.664 5.876 0 8.996 3.692 3.12 3.64 3.12 10.4l-15.496 1.976q1.716 3.484 6.448 3.484m-7.28-8.268 8.164-1.716q-.207-1.665-1.144-2.444-.936-.832-2.34-.832-2.08 0-3.328 1.456-1.196 1.404-1.352 3.536m33.628 25.272q-1.976 0-3.692-.26t-2.704-.624l.832-7.54q.936.208 2.028.312 1.092.156 2.132.156 3.484 0 4.992-1.456 1.56-1.455 1.56-4.472v-2.964q-1.248 3.172-3.536 4.628-2.288 1.404-5.408 1.404-4.836 0-7.488-3.484-2.652-3.536-2.652-9.932v-11.96h10.972V86.48q0 4.628 3.276 4.628 2.028 0 3.224-1.664 1.248-1.664 1.248-4.368V73.948h10.972v19.968q0 8.32-4.108 12.272t-11.648 3.952"/></svg>