<svg xmlns="http://www.w3.org/2000/svg" width="328" height="752" fill="none"><g filter="url(#a)"><rect width="328" height="180" y="572" fill="url(#b)" rx="10"/></g><path fill="#FF5F00" d="M292.725 710.566h-10.951v18.867h10.951z"/><path fill="#EB001B" d="M282.47 720c0-3.833 1.877-7.233 4.763-9.433a12.8 12.8 0 0 0-7.718-2.567c-6.918 0-12.515 5.367-12.515 12s5.597 12 12.515 12c2.92 0 5.597-.967 7.718-2.567-2.886-2.166-4.763-5.6-4.763-9.433"/><path fill="#F79E1B" d="M307.5 720c0 6.633-5.597 12-12.515 12-2.92 0-5.597-.967-7.717-2.567 2.92-2.2 4.762-5.6 4.762-9.433s-1.877-7.233-4.762-9.433a12.78 12.78 0 0 1 7.717-2.567c6.918 0 12.515 5.4 12.515 12"/><path fill="#fff" d="M26.85 719.047h2.044v6.576q0 1.149-.493 1.935a3.03 3.03 0 0 1-1.346 1.182q-.854.397-1.97.397-1.113 0-1.982-.397a3.08 3.08 0 0 1-1.353-1.182q-.486-.786-.485-1.935v-6.576h2.05v6.576q0 .67.212 1.094t.609.622q.403.198.95.198.56 0 .95-.198a1.3 1.3 0 0 0 .602-.622q.212-.424.212-1.094zm5.537 4.136V729h-1.969v-7.396h1.846zm-.287 1.859h-.534q0-.82.212-1.477a3.4 3.4 0 0 1 .595-1.127 2.55 2.55 0 0 1 .91-.718 2.7 2.7 0 0 1 1.189-.253q.52 0 .95.15t.738.479q.315.327.479.868.17.54.17 1.319V729h-1.982v-4.724q0-.492-.137-.765a.77.77 0 0 0-.403-.383 1.6 1.6 0 0 0-.642-.116 1.44 1.44 0 0 0-.69.157 1.4 1.4 0 0 0-.48.437 2.1 2.1 0 0 0-.28.643q-.095.369-.095.793m8.285-3.438V729h-1.976v-7.396zm-2.099-1.928q0-.43.3-.711.301-.28.808-.28.498 0 .8.28a.92.92 0 0 1 .307.711.92.92 0 0 1-.308.711q-.3.28-.8.28-.506 0-.806-.28a.93.93 0 0 1-.3-.711m7.349 1.928v1.394h-4.307v-1.394zm-3.24-1.826h1.968v6.993q0 .322.082.493.09.17.26.239.172.061.43.061.186 0 .329-.013.15-.021.253-.041l.007 1.449q-.253.082-.547.13a4 4 0 0 1-.65.048 2.8 2.8 0 0 1-1.134-.212 1.56 1.56 0 0 1-.739-.697q-.26-.479-.26-1.258zm7.765 9.359q-.861 0-1.545-.274a3.4 3.4 0 0 1-1.162-.772 3.4 3.4 0 0 1-.725-1.142 3.8 3.8 0 0 1-.252-1.394v-.274q0-.84.239-1.538.24-.697.683-1.21.452-.513 1.094-.786.643-.28 1.45-.28.785 0 1.394.26a2.7 2.7 0 0 1 1.019.738q.417.479.628 1.148.213.663.212 1.477v.82h-5.879v-1.312h3.945v-.151q0-.41-.15-.731a1.16 1.16 0 0 0-.438-.52q-.294-.19-.752-.191-.39 0-.67.171a1.3 1.3 0 0 0-.458.478q-.17.308-.26.725a4.6 4.6 0 0 0-.082.902v.274q0 .444.123.82.13.376.363.649.238.274.574.424.342.151.772.151.534 0 .991-.205a2.16 2.16 0 0 0 .8-.636l.957 1.039a2.9 2.9 0 0 1-.636.642 3.4 3.4 0 0 1-.957.506q-.56.192-1.278.192m8.525-1.75V718.5h1.982V729h-1.784zm-4.676-1.996v-.144q0-.848.191-1.538.192-.698.56-1.196.37-.499.91-.773a2.7 2.7 0 0 1 1.23-.273q.65 0 1.135.273.492.274.834.78.35.498.56 1.182.213.677.308 1.484v.314a8 8 0 0 1-.307 1.436 4.3 4.3 0 0 1-.56 1.162 2.5 2.5 0 0 1-.835.765q-.492.274-1.148.274-.69 0-1.23-.281a2.6 2.6 0 0 1-.903-.786 3.8 3.8 0 0 1-.554-1.189 5.5 5.5 0 0 1-.191-1.49m1.968-.144v.144q0 .458.069.854.075.396.24.704.17.301.437.472.273.164.663.164.506 0 .834-.226a1.45 1.45 0 0 0 .499-.635q.177-.404.205-.93v-.896a3.2 3.2 0 0 0-.123-.772 1.7 1.7 0 0 0-.287-.595 1.3 1.3 0 0 0-.465-.383 1.44 1.44 0 0 0-.65-.136q-.383 0-.656.177-.273.172-.444.472-.165.301-.246.711-.075.404-.075.875m15.02 1.149q0-.267-.083-.479a.9.9 0 0 0-.287-.396 2.5 2.5 0 0 0-.595-.363 9 9 0 0 0-.991-.369q-.677-.219-1.285-.492a5.2 5.2 0 0 1-1.067-.636 2.9 2.9 0 0 1-.724-.854q-.26-.486-.26-1.128 0-.623.273-1.128a2.6 2.6 0 0 1 .766-.875 3.7 3.7 0 0 1 1.162-.568 5.3 5.3 0 0 1 1.484-.198q1.1 0 1.92.397.82.396 1.272 1.087.458.69.458 1.579h-2.037q0-.438-.185-.766a1.25 1.25 0 0 0-.546-.526q-.363-.192-.916-.192-.534 0-.89.164a1.2 1.2 0 0 0-.532.431 1.06 1.06 0 0 0-.178.602q0 .252.123.458.13.205.383.382.253.179.622.335.368.158.854.308a9 9 0 0 1 1.429.554q.622.308 1.04.69.416.383.628.868.212.486.212 1.101 0 .65-.253 1.162a2.4 2.4 0 0 1-.731.868 3.4 3.4 0 0 1-1.142.54 5.5 5.5 0 0 1-1.484.185q-.738 0-1.456-.192a4.4 4.4 0 0 1-1.305-.594 3 3 0 0 1-.93-1.012q-.349-.615-.349-1.456h2.058q0 .465.144.786.143.321.403.519.266.199.629.288.37.088.806.088.534 0 .876-.15.348-.15.512-.417a1.1 1.1 0 0 0 .171-.601m6.944-4.792v1.394h-4.306v-1.394zm-3.24-1.826h1.969v6.993q0 .322.082.493.09.17.26.239.17.061.43.061.185 0 .329-.013.15-.021.252-.041l.007 1.449a4 4 0 0 1-.547.13 4 4 0 0 1-.649.048q-.65 0-1.135-.212a1.56 1.56 0 0 1-.738-.697q-.26-.479-.26-1.258zm8.354 7.554v-3.295q0-.356-.117-.608a.87.87 0 0 0-.362-.404q-.24-.143-.622-.143-.328 0-.567.116a.82.82 0 0 0-.37.321.9.9 0 0 0-.13.486H78.92q0-.472.219-.896.218-.423.635-.745.417-.328.992-.513.58-.184 1.299-.184.861 0 1.53.287.67.287 1.053.861.39.575.39 1.436v3.165q0 .608.075.998.075.382.22.67V729h-1.99a2.9 2.9 0 0 1-.219-.752 6 6 0 0 1-.068-.916m.26-2.837.013 1.114h-1.1q-.39 0-.677.089a1.3 1.3 0 0 0-.472.253 1 1 0 0 0-.273.369 1.3 1.3 0 0 0-.082.465q0 .253.116.458.116.198.335.315.219.11.513.109.444 0 .772-.178.328-.177.506-.437.185-.26.191-.492l.52.834q-.11.28-.301.581-.184.3-.472.567a2.4 2.4 0 0 1-.69.431 2.5 2.5 0 0 1-.957.164q-.705 0-1.279-.281a2.3 2.3 0 0 1-.902-.786 2.06 2.06 0 0 1-.328-1.148q0-.581.219-1.032t.642-.759q.431-.315 1.074-.472a6 6 0 0 1 1.49-.164zm6.863-2.891v1.394H85.87v-1.394zm-3.24-1.826h1.968v6.993q0 .322.082.493.09.17.26.239.17.061.43.061.186 0 .329-.013.15-.021.253-.041l.007 1.449a4 4 0 0 1-.547.13 4 4 0 0 1-.65.048q-.649 0-1.134-.212a1.56 1.56 0 0 1-.739-.697q-.26-.479-.26-1.258zm7.765 9.359q-.862 0-1.545-.274a3.4 3.4 0 0 1-1.162-.772 3.4 3.4 0 0 1-.724-1.142 3.8 3.8 0 0 1-.253-1.394v-.274q0-.84.239-1.538.24-.697.683-1.21.452-.513 1.094-.786.642-.28 1.45-.28.785 0 1.394.26a2.7 2.7 0 0 1 1.018.738q.417.479.63 1.148.21.663.211 1.477v.82H91.86v-1.312h3.945v-.151q0-.41-.15-.731a1.16 1.16 0 0 0-.438-.52q-.294-.19-.752-.191-.39 0-.67.171-.28.17-.458.478-.17.308-.26.725a4.6 4.6 0 0 0-.082.902v.274q0 .444.123.82.13.376.362.649.24.274.575.424.342.151.772.151.534 0 .991-.205a2.16 2.16 0 0 0 .8-.636l.957 1.039a2.9 2.9 0 0 1-.635.642 3.4 3.4 0 0 1-.958.506q-.56.192-1.278.192m8.155-2.181a.64.64 0 0 0-.123-.383q-.122-.171-.458-.314-.327-.15-.95-.274a7.4 7.4 0 0 1-1.046-.307 3.7 3.7 0 0 1-.834-.458 2 2 0 0 1-.547-.629 1.75 1.75 0 0 1-.198-.841q0-.465.198-.875.205-.41.581-.725.384-.32.93-.499a4 4 0 0 1 1.244-.184q.964 0 1.655.307.696.308 1.066.848.376.534.376 1.217h-1.969q0-.287-.123-.513a.8.8 0 0 0-.369-.362q-.246-.137-.643-.137-.327 0-.567.116a.9.9 0 0 0-.369.301.72.72 0 0 0-.123.41q0 .171.068.308.075.13.239.239.165.11.424.205.267.089.657.164.8.164 1.428.431.63.26.998.711.369.444.369 1.169 0 .492-.218.902a2.2 2.2 0 0 1-.629.718q-.41.3-.985.472a4.6 4.6 0 0 1-1.278.164q-1.032 0-1.75-.369-.711-.37-1.08-.937a2.2 2.2 0 0 1-.362-1.176h1.866q.013.404.205.65.198.246.499.355.307.11.663.11.382 0 .636-.103a.9.9 0 0 0 .383-.287.7.7 0 0 0 .136-.424m9.858 2.044h-2.167l.013-1.6h2.154q.807 0 1.36-.362.553-.37.834-1.073.287-.705.287-1.702v-.486q0-.765-.164-1.346a2.7 2.7 0 0 0-.471-.978 2 2 0 0 0-.773-.595 2.6 2.6 0 0 0-1.053-.205h-2.228v-1.606h2.228q.999 0 1.826.342a4.1 4.1 0 0 1 1.442.964q.609.628.936 1.503.336.869.335 1.935v.472q0 1.06-.335 1.934a4.3 4.3 0 0 1-.936 1.504 4.2 4.2 0 0 1-1.442.964 4.9 4.9 0 0 1-1.846.335m-1.005-9.953V729h-2.051v-9.953zm6.617 6.33v-.144q0-.813.233-1.497.231-.69.676-1.196a3.04 3.04 0 0 1 1.094-.786q.65-.288 1.49-.287.842 0 1.497.287a3 3 0 0 1 1.101.786q.451.506.684 1.196.231.684.232 1.497v.144q0 .807-.232 1.497a3.5 3.5 0 0 1-.684 1.196q-.444.507-1.094.786-.649.28-1.49.281-.842 0-1.497-.281a3.1 3.1 0 0 1-1.101-.786 3.5 3.5 0 0 1-.676-1.196 4.7 4.7 0 0 1-.233-1.497m1.969-.144v.144q0 .465.082.868t.26.711q.184.301.478.472t.718.171q.41 0 .704-.171.294-.17.472-.472.177-.308.26-.711.088-.403.088-.868v-.144q0-.45-.088-.847a2.3 2.3 0 0 0-.267-.711 1.3 1.3 0 0 0-.472-.492 1.35 1.35 0 0 0-.711-.178q-.417 0-.711.178a1.4 1.4 0 0 0-.471.492 2.3 2.3 0 0 0-.26.711 4 4 0 0 0-.082.847m8.326-6.733V729h-1.976v-10.5zm3.705 0V729h-1.975v-10.5zm5.619 8.832v-3.295q0-.356-.116-.608a.87.87 0 0 0-.362-.404q-.24-.143-.622-.143-.328 0-.568.116a.83.83 0 0 0-.369.321.9.9 0 0 0-.13.486h-1.968q0-.472.218-.896.219-.423.636-.745a3.1 3.1 0 0 1 .991-.513 4.3 4.3 0 0 1 1.299-.184q.862 0 1.531.287.67.287 1.053.861.39.575.39 1.436v3.165q0 .608.075.998.075.382.219.67V729h-1.99a2.9 2.9 0 0 1-.218-.752 6 6 0 0 1-.069-.916m.26-2.837.014 1.114h-1.101q-.39 0-.677.089a1.3 1.3 0 0 0-.471.253 1 1 0 0 0-.274.369 1.3 1.3 0 0 0-.082.465q0 .253.116.458.117.198.335.315.219.11.513.109.444 0 .773-.178.327-.177.505-.437.185-.26.192-.492l.519.834q-.11.28-.3.581-.185.3-.472.567a2.5 2.5 0 0 1-.691.431 2.5 2.5 0 0 1-.957.164q-.704 0-1.278-.281a2.3 2.3 0 0 1-.902-.786 2.06 2.06 0 0 1-.328-1.148q0-.581.218-1.032.219-.452.643-.759.43-.315 1.073-.472a6 6 0 0 1 1.49-.164zm5.209-1.278V729h-1.969v-7.396h1.853zm2.229-1.661-.035 1.825a5 5 0 0 0-.348-.034 4 4 0 0 0-.363-.021q-.417 0-.724.11-.301.102-.506.307a1.36 1.36 0 0 0-.301.499 2.4 2.4 0 0 0-.109.67l-.397-.123q0-.717.144-1.319.144-.609.417-1.06.28-.451.683-.697.404-.246.923-.246.165 0 .335.027.171.02.281.062m4.928 5.4a.64.64 0 0 0-.123-.383q-.123-.171-.458-.314-.328-.15-.95-.274a7.4 7.4 0 0 1-1.046-.307 3.7 3.7 0 0 1-.834-.458 2 2 0 0 1-.547-.629 1.75 1.75 0 0 1-.198-.841q0-.465.198-.875.206-.41.581-.725.382-.32.93-.499a4 4 0 0 1 1.244-.184q.964 0 1.654.307.698.308 1.067.848.376.534.376 1.217h-1.969q0-.287-.123-.513a.8.8 0 0 0-.369-.362q-.246-.137-.643-.137-.328 0-.567.116a.87.87 0 0 0-.369.301.72.72 0 0 0-.123.41q0 .171.068.308.075.13.239.239.165.11.424.205.267.089.656.164.8.164 1.429.431.629.26.998.711.369.444.369 1.169 0 .492-.218.902a2.2 2.2 0 0 1-.629.718q-.41.3-.985.472a4.6 4.6 0 0 1-1.278.164q-1.032 0-1.75-.369-.711-.37-1.08-.937a2.17 2.17 0 0 1-.362-1.176h1.866q.013.404.205.65.198.246.499.355.308.11.663.11.383 0 .636-.103a.9.9 0 0 0 .383-.287.7.7 0 0 0 .136-.424"/><g clip-path="url(#c)"><path fill="#fff" d="M36 625c8.837 0 16-7.163 16-16s-7.163-16-16-16-16 7.163-16 16 7.163 16 16 16"/><g clip-path="url(#d)"><path fill="#EFEFEF" d="M51.999 609c0 4.273-1.664 8.291-4.686 11.313a15.9 15.9 0 0 1-11.314 4.686 15.9 15.9 0 0 1-11.313-4.686A15.9 15.9 0 0 1 20 609c0-4.274 1.664-8.292 4.686-11.314A15.9 15.9 0 0 1 36 593c4.274 0 8.292 1.664 11.314 4.686A15.9 15.9 0 0 1 51.999 609"/><path fill="#0152B7" d="M27.755 595.478h-.317q.199-.126.4-.246zM36 593v15.891l-15.999.008a15.9 15.9 0 0 1 2.347-8.251l.449.347-.226.703a.185.185 0 0 0 .066.205s.104.079.215.003l.612-.425.583.423a.185.185 0 0 0 .284-.204l-.217-.694.592-.453a.184.184 0 0 0-.112-.33h-.718l-.242-.665a.19.19 0 0 0-.173-.121c-.134-.01-.175.125-.175.125l-.223.661h-.445a16 16 0 0 1 2.069-2.536 16 16 0 0 1 2.242-1.87l.56.433-.226.704a.18.18 0 0 0 .066.204s.107.078.215.003l.612-.425.583.423a.18.18 0 0 0 .216 0 .18.18 0 0 0 .068-.204l-.216-.694.591-.453a.183.183 0 0 0-.112-.33h-.718l-.2-.548A15.9 15.9 0 0 1 36 593m-11.232 12.065a.185.185 0 0 0-.174-.126h-.718l-.242-.664s-.028-.122-.175-.122a.18.18 0 0 0-.173.126l-.223.66h-.725a.185.185 0 0 0-.113.331l.572.441-.226.704a.18.18 0 0 0 .066.204s.09.09.215.004l.612-.426.583.423a.185.185 0 0 0 .284-.204l-.217-.693.592-.453a.18.18 0 0 0 .062-.205m4.693 0a.185.185 0 0 0-.175-.126h-.718l-.242-.664s-.047-.127-.175-.122a.19.19 0 0 0-.172.126l-.224.66h-.725a.185.185 0 0 0-.112.331l.571.441-.226.704a.18.18 0 0 0 .066.204s.101.083.215.004l.612-.426.583.423a.185.185 0 0 0 .284-.204l-.216-.693.591-.453c.063-.048.088-.131.063-.205m0-4.717a.18.18 0 0 0-.175-.125h-.718l-.242-.665s-.04-.121-.175-.121a.18.18 0 0 0-.172.125l-.224.661h-.725a.184.184 0 0 0-.113.33l.572.442-.226.703a.185.185 0 0 0 .066.205s.096.085.215.003l.612-.425.583.423a.18.18 0 0 0 .216 0 .18.18 0 0 0 .068-.204l-.216-.694.591-.452a.19.19 0 0 0 .063-.206m4.692 4.717a.185.185 0 0 0-.174-.126h-.718l-.242-.664a.19.19 0 0 0-.173-.122.175.175 0 0 0-.175.126l-.223.66h-.725a.185.185 0 0 0-.113.331l.572.441-.227.704a.18.18 0 0 0 .066.204s.107.079.215.004l.612-.426.583.423a.185.185 0 0 0 .285-.204l-.217-.693.592-.453a.18.18 0 0 0 .062-.205m0-4.717a.18.18 0 0 0-.174-.125h-.718l-.242-.665a.18.18 0 0 0-.173-.121c-.146.004-.175.125-.175.125l-.223.661h-.725a.184.184 0 0 0-.113.33l.572.442-.227.703a.185.185 0 0 0 .066.205s.097.085.215.003l.612-.425.583.423a.18.18 0 0 0 .216 0 .18.18 0 0 0 .069-.204l-.217-.694.592-.452a.185.185 0 0 0 .062-.206m0-4.745a.18.18 0 0 0-.174-.125h-.718l-.242-.665s-.044-.128-.176-.121a.19.19 0 0 0-.172.125l-.223.661h-.725a.184.184 0 0 0-.113.33l.572.442-.227.704a.18.18 0 0 0 .066.204c.115.081.215.003.215.003l.612-.425.583.423a.18.18 0 0 0 .216 0 .18.18 0 0 0 .069-.204l-.217-.694.592-.453a.18.18 0 0 0 .062-.205"/><path fill="#D90028" d="M52 609c0 1.8-.296 3.556-.864 5.211H20.864A16 16 0 0 1 20 609v-.098H52zm-28.055 10.52q.355.407.741.793A15.9 15.9 0 0 0 36 625a15.9 15.9 0 0 0 11.313-4.687q.387-.386.742-.793zM36 603.593h15.067a15.9 15.9 0 0 0-3.171-5.292H36z"/><path fill="#160204" d="M52 609c0 4.273-1.665 8.291-4.687 11.313a15.9 15.9 0 0 1-11.314 4.686c-3.26 0-6.372-.969-9.006-2.77a16.13 16.13 0 0 0 8.679 1.178 16.12 16.12 0 0 0 10.717-6.283 16.13 16.13 0 0 0 3.135-12.02 16.1 16.1 0 0 0-5.035-9.672 16 16 0 0 1 2.824 2.254A15.9 15.9 0 0 1 51.999 609" opacity=".13"/><path fill="#fff" d="M43.605 594.915a16.5 16.5 0 0 0-8.819-.083 16.5 16.5 0 0 0-10.106 7.702 16.5 16.5 0 0 0-1.699 12.593 16.5 16.5 0 0 0 3.753 6.921 16 16 0 0 1-2.048-1.735A15.9 15.9 0 0 1 20 609c0-4.274 1.665-8.291 4.686-11.313A15.9 15.9 0 0 1 36 593c2.7 0 5.296.664 7.605 1.915" opacity=".25"/></g></g><rect width="34" height="34" x="19" y="592" stroke="#fff" stroke-width="2" rx="17"/><path fill="#fff" d="M230.593 618.7v-1.48a11 11 0 0 1-2.28-.32q-1.12-.28-1.9-.7l.9-2.54a12 12 0 0 0 1.58.54q.84.22 1.7.26v-2.88a25 25 0 0 1-1.5-.5 6.3 6.3 0 0 1-1.4-.72 3.8 3.8 0 0 1-1.02-1.14q-.38-.68-.38-1.68 0-1.64 1.14-2.7 1.16-1.06 3.16-1.36v-1.94h1.7v1.84a8.2 8.2 0 0 1 2.06.3q1 .26 1.62.68l-.86 2.4a9 9 0 0 0-1.42-.54 5.5 5.5 0 0 0-1.4-.22v2.88q.72.22 1.46.52t1.36.76q.62.44 1 1.12.38.66.38 1.62 0 1.78-1.12 2.86-1.1 1.08-3.08 1.36v1.58zm-1.06-11.48q0 .38.28.64.3.24.78.44v-2.14q-1.06.28-1.06 1.06m2.76 7.1q1-.32 1-1.14 0-.36-.28-.6a2.6 2.6 0 0 0-.72-.44zm4.901-.82q0-2.1 2.7-3.08a4.8 4.8 0 0 1-1.36-1.34q-.56-.82-.56-2.12 0-1.24.64-2.14.66-.9 1.78-1.38 1.12-.5 2.56-.5 1.3 0 2.3.42 1 .4 1.56 1.12.58.72.58 1.68 0 .98-.48 1.66-.48.66-1.54 1.12.78.36 1.44.88a3.7 3.7 0 0 1 1.08 1.24q.42.74.42 1.82 0 1.36-.76 2.36-.76.98-2.02 1.5-1.24.52-2.76.52-1.68 0-2.94-.46-1.24-.46-1.94-1.3t-.7-2m4.04-7.18q0 .68.68 1.1.7.4 1.68.78.66-.6.66-1.52 0-1.5-1.52-1.5-.7 0-1.1.32t-.4.82m-.24 6.56q0 .78.48 1.28.48.48 1.32.48t1.32-.38q.48-.4.48-1.06 0-.58-.68-.98-.66-.4-2.26-.94-.66.72-.66 1.6m7.932-5.14q0-1.4.64-2.48.66-1.08 1.86-1.7t2.84-.62q1.94 0 3.22.82 1.3.82 1.94 2.28.66 1.44.66 3.38 0 2.26-.88 4.02-.86 1.74-2.42 2.72t-3.64.98a8.5 8.5 0 0 1-1.98-.22 4.9 4.9 0 0 1-1.64-.76l.82-2.88q.58.32 1.2.5.62.16 1.24.16 1.46 0 2.3-1 .86-1.02 1-2.8-.5.92-1.36 1.34-.84.42-1.6.42-1.28 0-2.24-.52a3.66 3.66 0 0 1-1.46-1.46q-.5-.94-.5-2.18m3.62-.26q0 .68.46 1.1.48.4 1.24.4.48 0 .96-.12.48-.14.88-.4-.22-2.64-1.84-2.64-.78 0-1.24.46t-.46 1.2m14.856 9.68q-1.821 0-3.24-.9-1.42-.92-2.24-2.52-.8-1.62-.8-3.7 0-2.06.8-3.66.82-1.6 2.24-2.52 1.419-.92 3.24-.92 1.36 0 2.5.54 1.14.52 1.98 1.48a6.7 6.7 0 0 1 1.3 2.24q.48 1.3.48 2.84 0 2.06-.82 3.68-.801 1.6-2.22 2.52-1.4.92-3.22.92m0-3.42q.999 0 1.56-.98.58-.98.58-2.72 0-1.7-.58-2.68-.561-1-1.56-1-1.02 0-1.6.98-.56.98-.56 2.7 0 1.7.58 2.7.6 1 1.58 1m9.243 3.38q-1.1 0-1.68-.58-.58-.6-.58-1.46 0-.88.62-1.44.62-.58 1.64-.58t1.62.6q.62.6.62 1.42 0 .92-.58 1.48-.56.56-1.66.56m7.483.14a9 9 0 0 1-1.86-.2 9 9 0 0 1-1.94-.62l.64-3.06q.66.32 1.44.5.78.16 1.46.16 1.08 0 1.58-.4.5-.42.5-1.14 0-.64-.4-1t-1.04-.36q-1.06 0-1.88.82l-2.16-.92.66-7.8h7.86l-.3 3h-4.56l-.24 2.48a3 3 0 0 1 1.04-.54q.58-.16 1.1-.16 1.36 0 2.2.58.861.58 1.26 1.52.4.94.4 2.02 0 1.74-.72 2.88t-2.02 1.7q-1.28.54-3.02.54m13.098-.1q-1.821 0-3.24-.9-1.42-.92-2.24-2.52-.8-1.62-.8-3.7 0-2.06.8-3.66.82-1.6 2.24-2.52 1.419-.92 3.24-.92 1.36 0 2.5.54 1.14.52 1.98 1.48a6.7 6.7 0 0 1 1.3 2.24q.48 1.3.48 2.84 0 2.06-.82 3.68-.801 1.6-2.22 2.52-1.4.92-3.22.92m0-3.42q.999 0 1.56-.98.58-.98.58-2.72 0-1.7-.58-2.68-.561-1-1.56-1-1.02 0-1.6.98-.56.98-.56 2.7 0 1.7.58 2.7.6 1 1.58 1M73.54 617.32q-2 0-3.52-.72t-2.36-2.06q-.84-1.36-.84-3.24v-8.06h4.44v7.86q0 1.34.64 1.98.66.62 1.72.62 1.12 0 1.7-.64.6-.64.6-1.76v-8.06h4.5v8.06q0 1.78-.88 3.14t-2.44 2.12q-1.54.76-3.56.76m12.994 0a10.7 10.7 0 0 1-2.56-.32q-1.3-.3-2.2-.82l.72-3.26q1.161.62 2.16.82 1.02.18 1.88.18.801 0 1.2-.26.42-.26.42-.7 0-.4-.46-.62-.459-.24-1.2-.44-.72-.2-1.54-.46a8.3 8.3 0 0 1-1.56-.72 3.8 3.8 0 0 1-1.18-1.2q-.46-.76-.46-1.9 0-1.44.7-2.48.7-1.06 2-1.62 1.3-.58 3.06-.58 1.18 0 2.3.32 1.14.3 1.82.82l-.68 2.94a11 11 0 0 0-1.84-.6 6.3 6.3 0 0 0-1.52-.2q-.84 0-1.28.24t-.44.64q0 .38.46.62t1.18.46 1.54.5 1.54.74 1.18 1.2.46 1.86q0 2.32-1.52 3.58-1.5 1.26-4.18 1.26m7.07-.32v-13.76h4.78q3 0 4.88.86 1.9.86 2.78 2.38.9 1.52.9 3.54 0 3.3-2.18 5.14-2.16 1.84-6.58 1.84zm4.42-3.5h1.28q1.6 0 2.38-.96.78-.98.78-2.56 0-1.46-.76-2.34-.74-.9-2.4-.9h-1.28z"/><defs><clipPath id="c"><rect width="32" height="32" x="20" y="593" fill="#fff" rx="16"/></clipPath><clipPath id="d"><path fill="#fff" d="M20 593h32v32H20z"/></clipPath><linearGradient id="b" x1="182.388" x2="7.883" y1="393" y2="828.444" gradientUnits="userSpaceOnUse"><stop offset=".359" stop-color="#8E3BF9"/><stop offset=".855" stop-color="#00C5FF"/></linearGradient><filter id="a" width="328" height="180" x="0" y="572" color-interpolation-filters="sRGB" filterUnits="userSpaceOnUse"><feFlood flood-opacity="0" result="BackgroundImageFix"/><feBlend in="SourceGraphic" in2="BackgroundImageFix" result="shape"/><feColorMatrix in="SourceAlpha" result="hardAlpha" values="0 0 0 0 0 0 0 0 0 0 0 0 0 0 0 0 0 0 127 0"/><feOffset dy="1"/><feComposite in2="hardAlpha" k2="-1" k3="1" operator="arithmetic"/><feColorMatrix values="0 0 0 0 1 0 0 0 0 1 0 0 0 0 1 0 0 0 0.504359 0"/><feBlend in2="shape" result="effect1_innerShadow_38_4529"/></filter></defs></svg>