<svg width="328" height="752" viewBox="0 0 328 752" fill="none" xmlns="http://www.w3.org/2000/svg">
<g filter="url(#filter0_i_38_4529)">
<rect y="572" width="328" height="180" rx="10" fill="url(#paint0_linear_38_4529)"/>
</g>
<path d="M292.725 710.566H281.774V729.433H292.725V710.566Z" fill="#FF5F00"/>
<path d="M282.47 720C282.47 716.167 284.347 712.767 287.233 710.567C285.112 708.967 282.435 708 279.515 708C272.597 708 267 713.367 267 720C267 726.633 272.597 732 279.515 732C282.435 732 285.112 731.033 287.233 729.433C284.347 727.267 282.47 723.833 282.47 720Z" fill="#EB001B"/>
<path d="M307.5 720C307.5 726.633 301.903 732 294.985 732C292.065 732 289.388 731.033 287.268 729.433C290.188 727.233 292.03 723.833 292.03 720C292.03 716.167 290.153 712.767 287.268 710.567C289.388 708.967 292.065 708 294.985 708C301.903 708 307.5 713.4 307.5 720Z" fill="#F79E1B"/>
<path d="M26.8496 719.047H28.8936V725.623C28.8936 726.389 28.7295 727.034 28.4014 727.558C28.0778 728.082 27.6289 728.476 27.0547 728.74C26.485 729.005 25.8288 729.137 25.0859 729.137C24.3431 729.137 23.6823 729.005 23.1035 728.74C22.5293 728.476 22.0781 728.082 21.75 727.558C21.4264 727.034 21.2646 726.389 21.2646 725.623V719.047H23.3154V725.623C23.3154 726.07 23.3861 726.434 23.5273 726.717C23.6686 726.999 23.8714 727.207 24.1357 727.339C24.4046 727.471 24.7214 727.537 25.0859 727.537C25.4596 727.537 25.7764 727.471 26.0361 727.339C26.3005 727.207 26.501 726.999 26.6377 726.717C26.779 726.434 26.8496 726.07 26.8496 725.623V719.047ZM32.3867 723.183V729H30.418V721.604H32.2637L32.3867 723.183ZM32.0996 725.042H31.5664C31.5664 724.495 31.637 724.003 31.7783 723.565C31.9196 723.123 32.1178 722.747 32.373 722.438C32.6283 722.123 32.9313 721.884 33.2822 721.72C33.6377 721.551 34.0342 721.467 34.4717 721.467C34.818 721.467 35.1348 721.517 35.4219 721.617C35.709 721.717 35.9551 721.877 36.1602 722.096C36.3698 722.314 36.5293 722.604 36.6387 722.964C36.7526 723.324 36.8096 723.764 36.8096 724.283V729H34.8271V724.276C34.8271 723.948 34.7816 723.693 34.6904 723.511C34.5993 723.328 34.4648 723.201 34.2871 723.128C34.1139 723.05 33.8997 723.012 33.6445 723.012C33.3802 723.012 33.1501 723.064 32.9541 723.169C32.7627 723.274 32.6032 723.42 32.4756 723.606C32.3525 723.789 32.2591 724.003 32.1953 724.249C32.1315 724.495 32.0996 724.759 32.0996 725.042ZM40.3848 721.604V729H38.4092V721.604H40.3848ZM38.2861 719.676C38.2861 719.389 38.3864 719.152 38.5869 718.965C38.7874 718.778 39.0563 718.685 39.3936 718.685C39.7262 718.685 39.9928 718.778 40.1934 718.965C40.3984 719.152 40.501 719.389 40.501 719.676C40.501 719.963 40.3984 720.2 40.1934 720.387C39.9928 720.574 39.7262 720.667 39.3936 720.667C39.0563 720.667 38.7874 720.574 38.5869 720.387C38.3864 720.2 38.2861 719.963 38.2861 719.676ZM45.6348 721.604V722.998H41.3281V721.604H45.6348ZM42.3945 719.778H44.3633V726.771C44.3633 726.986 44.3906 727.15 44.4453 727.264C44.5046 727.378 44.5911 727.457 44.7051 727.503C44.819 727.544 44.9626 727.564 45.1357 727.564C45.2588 727.564 45.3682 727.56 45.4639 727.551C45.5641 727.537 45.6484 727.523 45.7168 727.51L45.7236 728.959C45.555 729.014 45.3727 729.057 45.1768 729.089C44.9808 729.121 44.7643 729.137 44.5273 729.137C44.0944 729.137 43.7161 729.066 43.3926 728.925C43.0736 728.779 42.8275 728.547 42.6543 728.228C42.4811 727.909 42.3945 727.489 42.3945 726.97V719.778ZM50.1602 729.137C49.5859 729.137 49.071 729.046 48.6152 728.863C48.1595 728.676 47.7721 728.419 47.4531 728.091C47.1387 727.763 46.8971 727.382 46.7285 726.949C46.5599 726.512 46.4756 726.047 46.4756 725.555V725.281C46.4756 724.721 46.5553 724.208 46.7148 723.743C46.8743 723.278 47.1022 722.875 47.3984 722.533C47.6992 722.191 48.0638 721.929 48.4922 721.747C48.9206 721.56 49.4036 721.467 49.9414 721.467C50.4655 721.467 50.9303 721.553 51.3359 721.727C51.7415 721.9 52.0811 722.146 52.3545 722.465C52.6325 722.784 52.8421 723.167 52.9834 723.613C53.1247 724.055 53.1953 724.548 53.1953 725.09V725.91H47.3164V724.598H51.2607V724.447C51.2607 724.174 51.2106 723.93 51.1104 723.716C51.0146 723.497 50.8688 723.324 50.6729 723.196C50.4769 723.069 50.2262 723.005 49.9209 723.005C49.6611 723.005 49.4378 723.062 49.251 723.176C49.0641 723.29 48.9115 723.449 48.793 723.654C48.679 723.859 48.5924 724.101 48.5332 724.379C48.4785 724.652 48.4512 724.953 48.4512 725.281V725.555C48.4512 725.851 48.4922 726.124 48.5742 726.375C48.6608 726.626 48.7816 726.842 48.9365 727.024C49.096 727.207 49.2874 727.348 49.5107 727.448C49.7386 727.549 49.9961 727.599 50.2832 727.599C50.6387 727.599 50.9691 727.53 51.2744 727.394C51.5843 727.252 51.8509 727.04 52.0742 726.758L53.0312 727.797C52.8763 728.02 52.6644 728.234 52.3955 728.439C52.1312 728.645 51.8122 728.813 51.4385 728.945C51.0648 729.073 50.6387 729.137 50.1602 729.137ZM58.6846 727.387V718.5H60.667V729H58.8828L58.6846 727.387ZM54.0088 725.391V725.247C54.0088 724.682 54.0726 724.169 54.2002 723.709C54.3278 723.244 54.5146 722.845 54.7607 722.513C55.0068 722.18 55.3099 721.923 55.6699 721.74C56.0299 721.558 56.4401 721.467 56.9004 721.467C57.3333 721.467 57.7116 721.558 58.0352 721.74C58.3633 721.923 58.6413 722.182 58.8691 722.52C59.1016 722.852 59.2884 723.246 59.4297 723.702C59.571 724.153 59.6735 724.648 59.7373 725.186V725.5C59.6735 726.015 59.571 726.493 59.4297 726.936C59.2884 727.378 59.1016 727.765 58.8691 728.098C58.6413 728.426 58.3633 728.681 58.0352 728.863C57.707 729.046 57.3242 729.137 56.8867 729.137C56.4264 729.137 56.0163 729.043 55.6562 728.856C55.3008 728.67 55 728.408 54.7539 728.07C54.5124 727.733 54.3278 727.337 54.2002 726.881C54.0726 726.425 54.0088 725.928 54.0088 725.391ZM55.9775 725.247V725.391C55.9775 725.696 56.0003 725.981 56.0459 726.245C56.096 726.509 56.1758 726.744 56.2852 726.949C56.3991 727.15 56.5449 727.307 56.7227 727.421C56.9049 727.53 57.126 727.585 57.3857 727.585C57.723 727.585 58.001 727.51 58.2197 727.359C58.4385 727.204 58.6048 726.993 58.7188 726.724C58.8372 726.455 58.9056 726.145 58.9238 725.794V724.898C58.9102 724.611 58.8691 724.354 58.8008 724.126C58.737 723.894 58.6413 723.695 58.5137 723.531C58.3906 723.367 58.2357 723.24 58.0488 723.148C57.8665 723.057 57.6501 723.012 57.3994 723.012C57.1442 723.012 56.9255 723.071 56.7432 723.189C56.5609 723.303 56.4128 723.461 56.2988 723.661C56.1895 723.862 56.1074 724.099 56.0527 724.372C56.0026 724.641 55.9775 724.933 55.9775 725.247ZM70.9961 726.396C70.9961 726.218 70.9688 726.058 70.9141 725.917C70.8639 725.771 70.7682 725.639 70.627 725.521C70.4857 725.397 70.2874 725.277 70.0322 725.158C69.777 725.04 69.4466 724.917 69.041 724.789C68.5898 724.643 68.1615 724.479 67.7559 724.297C67.3548 724.115 66.9993 723.903 66.6895 723.661C66.3841 723.415 66.1426 723.13 65.9648 722.807C65.7917 722.483 65.7051 722.107 65.7051 721.679C65.7051 721.264 65.7962 720.888 65.9785 720.551C66.1608 720.209 66.416 719.917 66.7441 719.676C67.0723 719.43 67.4596 719.241 67.9062 719.108C68.3574 718.976 68.8519 718.91 69.3896 718.91C70.1234 718.91 70.7637 719.042 71.3105 719.307C71.8574 719.571 72.2812 719.933 72.582 720.394C72.8874 720.854 73.04 721.38 73.04 721.973H71.0029C71.0029 721.681 70.9414 721.426 70.8184 721.207C70.6999 720.984 70.5176 720.808 70.2715 720.681C70.0299 720.553 69.7246 720.489 69.3555 720.489C69 720.489 68.7038 720.544 68.4668 720.653C68.2298 720.758 68.0521 720.902 67.9336 721.084C67.8151 721.262 67.7559 721.462 67.7559 721.686C67.7559 721.854 67.7969 722.007 67.8789 722.144C67.9655 722.28 68.0931 722.408 68.2617 722.526C68.4303 722.645 68.6377 722.757 68.8838 722.861C69.1299 722.966 69.4147 723.069 69.7383 723.169C70.2806 723.333 70.7568 723.518 71.167 723.723C71.5817 723.928 71.9281 724.158 72.2061 724.413C72.484 724.668 72.6937 724.958 72.835 725.281C72.9762 725.605 73.0469 725.972 73.0469 726.382C73.0469 726.815 72.9626 727.202 72.7939 727.544C72.6253 727.886 72.3815 728.175 72.0625 728.412C71.7435 728.649 71.363 728.829 70.9209 728.952C70.4788 729.075 69.9844 729.137 69.4375 729.137C68.9453 729.137 68.46 729.073 67.9814 728.945C67.5029 728.813 67.0677 728.615 66.6758 728.351C66.2884 728.086 65.9785 727.749 65.7461 727.339C65.5137 726.929 65.3975 726.443 65.3975 725.883H67.4551C67.4551 726.193 67.5029 726.455 67.5986 726.669C67.6943 726.883 67.8288 727.056 68.002 727.188C68.1797 727.321 68.3893 727.416 68.6309 727.476C68.877 727.535 69.1458 727.564 69.4375 727.564C69.793 727.564 70.0846 727.514 70.3125 727.414C70.5449 727.314 70.7158 727.175 70.8252 726.997C70.9391 726.819 70.9961 726.619 70.9961 726.396ZM77.9414 721.604V722.998H73.6348V721.604H77.9414ZM74.7012 719.778H76.6699V726.771C76.6699 726.986 76.6973 727.15 76.752 727.264C76.8112 727.378 76.8978 727.457 77.0117 727.503C77.1257 727.544 77.2692 727.564 77.4424 727.564C77.5654 727.564 77.6748 727.56 77.7705 727.551C77.8708 727.537 77.9551 727.523 78.0234 727.51L78.0303 728.959C77.8617 729.014 77.6794 729.057 77.4834 729.089C77.2874 729.121 77.071 729.137 76.834 729.137C76.401 729.137 76.0228 729.066 75.6992 728.925C75.3802 728.779 75.1341 728.547 74.9609 728.228C74.7878 727.909 74.7012 727.489 74.7012 726.97V719.778ZM83.0547 727.332V724.037C83.0547 723.8 83.016 723.597 82.9385 723.429C82.861 723.256 82.7402 723.121 82.5762 723.025C82.4167 722.93 82.2093 722.882 81.9541 722.882C81.7354 722.882 81.5462 722.921 81.3867 722.998C81.2272 723.071 81.1042 723.178 81.0176 723.319C80.931 723.456 80.8877 723.618 80.8877 723.805H78.9189C78.9189 723.49 78.9919 723.192 79.1377 722.909C79.2835 722.627 79.4954 722.378 79.7734 722.164C80.0514 721.945 80.3818 721.774 80.7646 721.651C81.152 721.528 81.585 721.467 82.0635 721.467C82.6377 721.467 83.1481 721.562 83.5947 721.754C84.0413 721.945 84.3923 722.232 84.6475 722.615C84.9072 722.998 85.0371 723.477 85.0371 724.051V727.216C85.0371 727.621 85.0622 727.954 85.1123 728.214C85.1624 728.469 85.2354 728.692 85.3311 728.884V729H83.3418C83.2461 728.799 83.1732 728.549 83.123 728.248C83.0775 727.943 83.0547 727.637 83.0547 727.332ZM83.3145 724.495L83.3281 725.609H82.2275C81.9678 725.609 81.7422 725.639 81.5508 725.698C81.3594 725.757 81.2021 725.842 81.0791 725.951C80.9561 726.056 80.8649 726.179 80.8057 726.32C80.751 726.462 80.7236 726.617 80.7236 726.785C80.7236 726.954 80.7624 727.106 80.8398 727.243C80.9173 727.375 81.029 727.48 81.1748 727.558C81.3206 727.631 81.4915 727.667 81.6875 727.667C81.9837 727.667 82.2412 727.608 82.46 727.489C82.6787 727.371 82.8473 727.225 82.9658 727.052C83.0889 726.879 83.1527 726.715 83.1572 726.56L83.6768 727.394C83.6038 727.58 83.5036 727.774 83.376 727.975C83.2529 728.175 83.0957 728.364 82.9043 728.542C82.7129 728.715 82.4827 728.859 82.2139 728.973C81.945 729.082 81.626 729.137 81.2568 729.137C80.7874 729.137 80.3613 729.043 79.9785 728.856C79.6003 728.665 79.2995 728.403 79.0762 728.07C78.8574 727.733 78.748 727.35 78.748 726.922C78.748 726.535 78.821 726.19 78.9668 725.89C79.1126 725.589 79.3268 725.336 79.6094 725.131C79.8965 724.921 80.2542 724.764 80.6826 724.659C81.111 724.55 81.6077 724.495 82.1729 724.495H83.3145ZM90.1777 721.604V722.998H85.8711V721.604H90.1777ZM86.9375 719.778H88.9062V726.771C88.9062 726.986 88.9336 727.15 88.9883 727.264C89.0475 727.378 89.1341 727.457 89.248 727.503C89.362 727.544 89.5055 727.564 89.6787 727.564C89.8018 727.564 89.9111 727.56 90.0068 727.551C90.1071 727.537 90.1914 727.523 90.2598 727.51L90.2666 728.959C90.098 729.014 89.9157 729.057 89.7197 729.089C89.5238 729.121 89.3073 729.137 89.0703 729.137C88.6374 729.137 88.2591 729.066 87.9355 728.925C87.6165 728.779 87.3704 728.547 87.1973 728.228C87.0241 727.909 86.9375 727.489 86.9375 726.97V719.778ZM94.7031 729.137C94.1289 729.137 93.6139 729.046 93.1582 728.863C92.7025 728.676 92.3151 728.419 91.9961 728.091C91.6816 727.763 91.4401 727.382 91.2715 726.949C91.1029 726.512 91.0186 726.047 91.0186 725.555V725.281C91.0186 724.721 91.0983 724.208 91.2578 723.743C91.4173 723.278 91.6452 722.875 91.9414 722.533C92.2422 722.191 92.6068 721.929 93.0352 721.747C93.4635 721.56 93.9466 721.467 94.4844 721.467C95.0085 721.467 95.4733 721.553 95.8789 721.727C96.2845 721.9 96.624 722.146 96.8975 722.465C97.1755 722.784 97.3851 723.167 97.5264 723.613C97.6676 724.055 97.7383 724.548 97.7383 725.09V725.91H91.8594V724.598H95.8037V724.447C95.8037 724.174 95.7536 723.93 95.6533 723.716C95.5576 723.497 95.4118 723.324 95.2158 723.196C95.0199 723.069 94.7692 723.005 94.4639 723.005C94.2041 723.005 93.9808 723.062 93.7939 723.176C93.6071 723.29 93.4544 723.449 93.3359 723.654C93.222 723.859 93.1354 724.101 93.0762 724.379C93.0215 724.652 92.9941 724.953 92.9941 725.281V725.555C92.9941 725.851 93.0352 726.124 93.1172 726.375C93.2038 726.626 93.3245 726.842 93.4795 727.024C93.639 727.207 93.8304 727.348 94.0537 727.448C94.2816 727.549 94.5391 727.599 94.8262 727.599C95.1816 727.599 95.512 727.53 95.8174 727.394C96.1273 727.252 96.3939 727.04 96.6172 726.758L97.5742 727.797C97.4193 728.02 97.2074 728.234 96.9385 728.439C96.6742 728.645 96.3551 728.813 95.9814 728.945C95.6077 729.073 95.1816 729.137 94.7031 729.137ZM102.858 726.956C102.858 726.815 102.817 726.687 102.735 726.573C102.653 726.459 102.501 726.354 102.277 726.259C102.059 726.159 101.742 726.067 101.327 725.985C100.953 725.903 100.605 725.801 100.281 725.678C99.9622 725.55 99.6842 725.397 99.4473 725.22C99.2148 725.042 99.0326 724.832 98.9004 724.591C98.7682 724.345 98.7021 724.064 98.7021 723.75C98.7021 723.44 98.7682 723.148 98.9004 722.875C99.0371 722.602 99.2308 722.36 99.4814 722.15C99.7367 721.936 100.047 721.77 100.411 721.651C100.78 721.528 101.195 721.467 101.655 721.467C102.298 721.467 102.849 721.569 103.31 721.774C103.774 721.979 104.13 722.262 104.376 722.622C104.627 722.978 104.752 723.383 104.752 723.839H102.783C102.783 723.647 102.742 723.477 102.66 723.326C102.583 723.171 102.46 723.05 102.291 722.964C102.127 722.873 101.913 722.827 101.648 722.827C101.43 722.827 101.241 722.866 101.081 722.943C100.922 723.016 100.799 723.117 100.712 723.244C100.63 723.367 100.589 723.504 100.589 723.654C100.589 723.768 100.612 723.871 100.657 723.962C100.707 724.049 100.787 724.128 100.896 724.201C101.006 724.274 101.147 724.342 101.32 724.406C101.498 724.465 101.717 724.52 101.977 724.57C102.51 724.68 102.986 724.823 103.405 725.001C103.825 725.174 104.157 725.411 104.403 725.712C104.649 726.008 104.772 726.398 104.772 726.881C104.772 727.209 104.7 727.51 104.554 727.783C104.408 728.057 104.198 728.296 103.925 728.501C103.651 728.701 103.323 728.859 102.94 728.973C102.562 729.082 102.136 729.137 101.662 729.137C100.974 729.137 100.391 729.014 99.9121 728.768C99.4382 728.521 99.0781 728.209 98.832 727.831C98.5905 727.448 98.4697 727.056 98.4697 726.655H100.336C100.345 726.924 100.413 727.141 100.541 727.305C100.673 727.469 100.84 727.587 101.04 727.66C101.245 727.733 101.466 727.77 101.703 727.77C101.958 727.77 102.17 727.735 102.339 727.667C102.507 727.594 102.635 727.498 102.722 727.38C102.813 727.257 102.858 727.116 102.858 726.956ZM112.716 729H110.549L110.562 727.4H112.716C113.254 727.4 113.707 727.28 114.076 727.038C114.445 726.792 114.723 726.434 114.91 725.965C115.102 725.495 115.197 724.928 115.197 724.263V723.777C115.197 723.267 115.143 722.818 115.033 722.431C114.928 722.043 114.771 721.717 114.562 721.453C114.352 721.189 114.094 720.991 113.789 720.858C113.484 720.722 113.133 720.653 112.736 720.653H110.508V719.047H112.736C113.402 719.047 114.01 719.161 114.562 719.389C115.118 719.612 115.598 719.933 116.004 720.353C116.41 720.772 116.722 721.273 116.94 721.856C117.164 722.435 117.275 723.08 117.275 723.791V724.263C117.275 724.969 117.164 725.614 116.94 726.197C116.722 726.781 116.41 727.282 116.004 727.701C115.603 728.116 115.122 728.437 114.562 728.665C114.006 728.888 113.39 729 112.716 729ZM111.711 719.047V729H109.66V719.047H111.711ZM118.328 725.377V725.233C118.328 724.691 118.406 724.192 118.561 723.736C118.715 723.276 118.941 722.877 119.237 722.54C119.534 722.203 119.898 721.941 120.331 721.754C120.764 721.562 121.261 721.467 121.821 721.467C122.382 721.467 122.881 721.562 123.318 721.754C123.756 721.941 124.123 722.203 124.419 722.54C124.72 722.877 124.948 723.276 125.103 723.736C125.257 724.192 125.335 724.691 125.335 725.233V725.377C125.335 725.915 125.257 726.414 125.103 726.874C124.948 727.33 124.72 727.729 124.419 728.07C124.123 728.408 123.758 728.67 123.325 728.856C122.892 729.043 122.396 729.137 121.835 729.137C121.274 729.137 120.775 729.043 120.338 728.856C119.905 728.67 119.538 728.408 119.237 728.07C118.941 727.729 118.715 727.33 118.561 726.874C118.406 726.414 118.328 725.915 118.328 725.377ZM120.297 725.233V725.377C120.297 725.687 120.324 725.976 120.379 726.245C120.434 726.514 120.52 726.751 120.639 726.956C120.762 727.157 120.921 727.314 121.117 727.428C121.313 727.542 121.552 727.599 121.835 727.599C122.108 727.599 122.343 727.542 122.539 727.428C122.735 727.314 122.892 727.157 123.011 726.956C123.129 726.751 123.216 726.514 123.271 726.245C123.33 725.976 123.359 725.687 123.359 725.377V725.233C123.359 724.933 123.33 724.65 123.271 724.386C123.216 724.117 123.127 723.88 123.004 723.675C122.885 723.465 122.728 723.301 122.532 723.183C122.336 723.064 122.099 723.005 121.821 723.005C121.543 723.005 121.306 723.064 121.11 723.183C120.919 723.301 120.762 723.465 120.639 723.675C120.52 723.88 120.434 724.117 120.379 724.386C120.324 724.65 120.297 724.933 120.297 725.233ZM128.623 718.5V729H126.647V718.5H128.623ZM132.328 718.5V729H130.353V718.5H132.328ZM137.947 727.332V724.037C137.947 723.8 137.909 723.597 137.831 723.429C137.754 723.256 137.633 723.121 137.469 723.025C137.309 722.93 137.102 722.882 136.847 722.882C136.628 722.882 136.439 722.921 136.279 722.998C136.12 723.071 135.997 723.178 135.91 723.319C135.824 723.456 135.78 723.618 135.78 723.805H133.812C133.812 723.49 133.884 723.192 134.03 722.909C134.176 722.627 134.388 722.378 134.666 722.164C134.944 721.945 135.274 721.774 135.657 721.651C136.045 721.528 136.478 721.467 136.956 721.467C137.53 721.467 138.041 721.562 138.487 721.754C138.934 721.945 139.285 722.232 139.54 722.615C139.8 722.998 139.93 723.477 139.93 724.051V727.216C139.93 727.621 139.955 727.954 140.005 728.214C140.055 728.469 140.128 728.692 140.224 728.884V729H138.234C138.139 728.799 138.066 728.549 138.016 728.248C137.97 727.943 137.947 727.637 137.947 727.332ZM138.207 724.495L138.221 725.609H137.12C136.86 725.609 136.635 725.639 136.443 725.698C136.252 725.757 136.095 725.842 135.972 725.951C135.849 726.056 135.757 726.179 135.698 726.32C135.644 726.462 135.616 726.617 135.616 726.785C135.616 726.954 135.655 727.106 135.732 727.243C135.81 727.375 135.922 727.48 136.067 727.558C136.213 727.631 136.384 727.667 136.58 727.667C136.876 727.667 137.134 727.608 137.353 727.489C137.571 727.371 137.74 727.225 137.858 727.052C137.981 726.879 138.045 726.715 138.05 726.56L138.569 727.394C138.496 727.58 138.396 727.774 138.269 727.975C138.146 728.175 137.988 728.364 137.797 728.542C137.605 728.715 137.375 728.859 137.106 728.973C136.838 729.082 136.519 729.137 136.149 729.137C135.68 729.137 135.254 729.043 134.871 728.856C134.493 728.665 134.192 728.403 133.969 728.07C133.75 727.733 133.641 727.35 133.641 726.922C133.641 726.535 133.714 726.19 133.859 725.89C134.005 725.589 134.219 725.336 134.502 725.131C134.789 724.921 135.147 724.764 135.575 724.659C136.004 724.55 136.5 724.495 137.065 724.495H138.207ZM143.416 723.217V729H141.447V721.604H143.3L143.416 723.217ZM145.645 721.556L145.61 723.381C145.515 723.367 145.398 723.356 145.262 723.347C145.13 723.333 145.009 723.326 144.899 723.326C144.621 723.326 144.38 723.363 144.175 723.436C143.974 723.504 143.806 723.606 143.669 723.743C143.537 723.88 143.437 724.046 143.368 724.242C143.304 724.438 143.268 724.661 143.259 724.912L142.862 724.789C142.862 724.311 142.91 723.871 143.006 723.47C143.102 723.064 143.241 722.711 143.423 722.41C143.61 722.109 143.838 721.877 144.106 721.713C144.375 721.549 144.683 721.467 145.029 721.467C145.139 721.467 145.25 721.476 145.364 721.494C145.478 721.508 145.572 721.528 145.645 721.556ZM150.573 726.956C150.573 726.815 150.532 726.687 150.45 726.573C150.368 726.459 150.215 726.354 149.992 726.259C149.773 726.159 149.457 726.067 149.042 725.985C148.668 725.903 148.32 725.801 147.996 725.678C147.677 725.55 147.399 725.397 147.162 725.22C146.93 725.042 146.747 724.832 146.615 724.591C146.483 724.345 146.417 724.064 146.417 723.75C146.417 723.44 146.483 723.148 146.615 722.875C146.752 722.602 146.946 722.36 147.196 722.15C147.451 721.936 147.761 721.77 148.126 721.651C148.495 721.528 148.91 721.467 149.37 721.467C150.013 721.467 150.564 721.569 151.024 721.774C151.489 721.979 151.845 722.262 152.091 722.622C152.341 722.978 152.467 723.383 152.467 723.839H150.498C150.498 723.647 150.457 723.477 150.375 723.326C150.298 723.171 150.174 723.05 150.006 722.964C149.842 722.873 149.628 722.827 149.363 722.827C149.145 722.827 148.955 722.866 148.796 722.943C148.636 723.016 148.513 723.117 148.427 723.244C148.345 723.367 148.304 723.504 148.304 723.654C148.304 723.768 148.326 723.871 148.372 723.962C148.422 724.049 148.502 724.128 148.611 724.201C148.721 724.274 148.862 724.342 149.035 724.406C149.213 724.465 149.432 724.52 149.691 724.57C150.225 724.68 150.701 724.823 151.12 725.001C151.539 725.174 151.872 725.411 152.118 725.712C152.364 726.008 152.487 726.398 152.487 726.881C152.487 727.209 152.414 727.51 152.269 727.783C152.123 728.057 151.913 728.296 151.64 728.501C151.366 728.701 151.038 728.859 150.655 728.973C150.277 729.082 149.851 729.137 149.377 729.137C148.689 729.137 148.105 729.014 147.627 728.768C147.153 728.521 146.793 728.209 146.547 727.831C146.305 727.448 146.185 727.056 146.185 726.655H148.051C148.06 726.924 148.128 727.141 148.256 727.305C148.388 727.469 148.554 727.587 148.755 727.66C148.96 727.733 149.181 727.77 149.418 727.77C149.673 727.77 149.885 727.735 150.054 727.667C150.222 727.594 150.35 727.498 150.437 727.38C150.528 727.257 150.573 727.116 150.573 726.956Z" fill="white"/>
<g clip-path="url(#clip0_38_4529)">
<path d="M36 625C44.8366 625 52 617.837 52 609C52 600.163 44.8366 593 36 593C27.1634 593 20 600.163 20 609C20 617.837 27.1634 625 36 625Z" fill="white"/>
<g clip-path="url(#clip1_38_4529)">
<path d="M51.999 609C51.999 613.273 50.3348 617.291 47.3129 620.313C44.291 623.335 40.2731 624.999 35.9995 624.999C31.7259 624.999 27.708 623.335 24.6861 620.313C21.6642 617.291 20 613.273 20 609C20 604.726 21.6642 600.708 24.6861 597.686C27.708 594.664 31.7259 593 35.9995 593C40.2731 593 44.291 594.664 47.3129 597.686C50.3348 600.708 51.999 604.726 51.999 609Z" fill="#EFEFEF"/>
<path d="M27.7554 595.478H27.4378C27.5703 595.394 27.7039 595.312 27.8386 595.232L27.7554 595.478ZM36.0001 593V608.891L20.001 608.899C20.019 605.941 20.8359 603.109 22.3477 600.648L22.7965 600.995L22.5709 601.698C22.5466 601.773 22.5731 601.856 22.6367 601.903C22.6367 601.903 22.7415 601.982 22.8515 601.906L23.4636 601.481L24.0466 601.904C24.1108 601.95 24.1979 601.951 24.2625 601.904C24.327 601.858 24.3545 601.775 24.3308 601.7L24.1141 601.006L24.7059 600.553C24.7687 600.506 24.7938 600.423 24.7685 600.348C24.7431 600.273 24.6729 600.223 24.5939 600.223H23.8758L23.6339 599.558C23.6075 599.485 23.538 599.442 23.4609 599.437C23.3269 599.427 23.2862 599.562 23.2862 599.562L23.063 600.223H22.6181C23.2134 599.319 23.9041 598.469 24.6868 597.687C25.384 596.989 26.1347 596.365 26.9287 595.817L27.489 596.25L27.2631 596.954C27.2389 597.029 27.2656 597.111 27.329 597.158C27.329 597.158 27.4355 597.236 27.5438 597.161L28.1559 596.736L28.7389 597.159C28.8033 597.206 28.8903 597.206 28.9548 597.159C29.0192 597.113 29.0469 597.03 29.0232 596.955L28.8065 596.261L29.3983 595.808C29.4609 595.761 29.4862 595.678 29.4609 595.603C29.4355 595.528 29.3653 595.478 29.2862 595.478H28.5682L28.3689 594.93C30.6841 593.67 33.2905 593 36.0001 593ZM24.7684 605.065C24.743 604.99 24.6728 604.939 24.5938 604.939H23.8758L23.6339 604.275C23.6339 604.275 23.6063 604.153 23.4586 604.153C23.3804 604.153 23.3111 604.205 23.2862 604.279L23.063 604.939H22.3379C22.2592 604.939 22.1889 604.99 22.1635 605.064C22.138 605.139 22.1629 605.221 22.2253 605.27L22.7965 605.711L22.5709 606.415C22.5466 606.49 22.5731 606.572 22.6367 606.619C22.6367 606.619 22.7274 606.709 22.8515 606.623L23.4636 606.197L24.0466 606.62C24.1108 606.667 24.1979 606.667 24.2625 606.621C24.327 606.575 24.3545 606.492 24.3308 606.416L24.1141 605.723L24.7059 605.27C24.7685 605.222 24.7937 605.139 24.7684 605.065ZM29.4608 605.065C29.4354 604.99 29.3652 604.939 29.2862 604.939H28.5682L28.3263 604.275C28.3263 604.275 28.2795 604.148 28.151 604.153C28.0729 604.157 28.0037 604.205 27.9786 604.279L27.7554 604.939H27.0303C26.9515 604.939 26.8812 604.99 26.856 605.064C26.8304 605.139 26.8552 605.221 26.9176 605.27L27.4891 605.711L27.2632 606.415C27.239 606.49 27.2656 606.572 27.3291 606.619C27.3291 606.619 27.4301 606.702 27.5439 606.623L28.156 606.197L28.739 606.62C28.8033 606.667 28.8904 606.667 28.9549 606.621C29.0193 606.575 29.0469 606.492 29.0232 606.416L28.8066 605.723L29.3984 605.27C29.4608 605.222 29.4861 605.139 29.4608 605.065ZM29.4608 600.348C29.4354 600.273 29.3652 600.223 29.2862 600.223H28.5682L28.3263 599.558C28.3263 599.558 28.2865 599.437 28.151 599.437C28.0729 599.437 28.0037 599.488 27.9786 599.562L27.7554 600.223H27.0303C26.9515 600.223 26.8812 600.273 26.856 600.348C26.8304 600.422 26.8552 600.505 26.9176 600.553L27.4891 600.995L27.2632 601.698C27.239 601.774 27.2656 601.856 27.3291 601.903C27.3291 601.903 27.4255 601.988 27.5439 601.906L28.156 601.481L28.739 601.904C28.8033 601.951 28.8904 601.951 28.9549 601.904C29.0193 601.858 29.0469 601.776 29.0232 601.7L28.8066 601.006L29.3984 600.554C29.4608 600.506 29.4861 600.423 29.4608 600.348ZM34.1533 605.065C34.1278 604.99 34.0576 604.939 33.9786 604.939H33.2605L33.0188 604.275C32.9924 604.202 32.923 604.155 32.8455 604.153C32.7044 604.15 32.6711 604.279 32.6711 604.279L32.4478 604.939H31.7228C31.6439 604.939 31.5738 604.99 31.5483 605.064C31.5228 605.139 31.5476 605.221 31.61 605.27L32.1815 605.711L31.9555 606.415C31.9315 606.49 31.9579 606.572 32.0214 606.619C32.0214 606.619 32.1276 606.698 32.2362 606.623L32.8484 606.197L33.4313 606.62C33.4956 606.667 33.5827 606.667 33.6473 606.621C33.7118 606.575 33.7394 606.492 33.7157 606.416L33.499 605.723L34.0908 605.27C34.1534 605.222 34.1785 605.139 34.1533 605.065ZM34.1533 600.348C34.1278 600.273 34.0576 600.223 33.9786 600.223H33.2605L33.0188 599.558C32.9924 599.485 32.923 599.435 32.8455 599.437C32.7001 599.441 32.6711 599.562 32.6711 599.562L32.4478 600.223H31.7228C31.6439 600.223 31.5738 600.273 31.5483 600.348C31.5228 600.422 31.5476 600.505 31.61 600.553L32.1815 600.995L31.9555 601.698C31.9315 601.774 31.9579 601.856 32.0214 601.903C32.0214 601.903 32.1179 601.988 32.2362 601.906L32.8484 601.481L33.4313 601.904C33.4956 601.951 33.5827 601.951 33.6473 601.904C33.7118 601.858 33.7394 601.776 33.7157 601.7L33.499 601.006L34.0908 600.554C34.1534 600.506 34.1785 600.423 34.1533 600.348ZM34.1533 595.603C34.1278 595.528 34.0576 595.478 33.9786 595.478H33.2605L33.0188 594.813C33.0188 594.813 32.9747 594.685 32.8434 594.692C32.7653 594.696 32.6961 594.743 32.6711 594.817L32.4478 595.478L31.7228 595.478C31.6439 595.478 31.5738 595.528 31.5483 595.603C31.5228 595.677 31.5476 595.76 31.61 595.808L32.1815 596.25L31.9555 596.954C31.9315 597.029 31.9569 597.112 32.0214 597.158C32.1356 597.239 32.2362 597.161 32.2362 597.161L32.8484 596.736L33.4313 597.159C33.4956 597.206 33.5827 597.206 33.6473 597.159C33.7118 597.113 33.7394 597.03 33.7157 596.955L33.499 596.261L34.0908 595.808C34.1534 595.761 34.1785 595.678 34.1533 595.603Z" fill="#0152B7"/>
<path d="M51.9997 609C51.9997 610.8 51.7043 612.556 51.1359 614.211H20.8638C20.2954 612.556 20 610.8 20 609C20 608.968 20 608.934 20.0007 608.902H51.999C51.9997 608.934 51.9997 608.968 51.9997 609ZM23.945 619.52C24.182 619.791 24.4292 620.056 24.6865 620.313C27.7086 623.336 31.7262 625 35.9998 625C40.2735 625 44.2911 623.336 47.3131 620.313C47.5705 620.056 47.8177 619.791 48.0547 619.52H23.945ZM35.9998 603.593H51.0666C50.3739 601.656 49.3043 599.863 47.8958 598.301H35.9998V603.593Z" fill="#D90028"/>
<path opacity="0.13" d="M51.9994 609C51.9994 613.273 50.3349 617.291 47.3128 620.313C44.2908 623.335 40.2732 624.999 35.9995 624.999C32.7384 624.999 29.6268 624.03 26.9932 622.229C29.696 623.406 32.6773 623.821 35.6715 623.407C39.9662 622.813 43.7719 620.581 46.3886 617.124C49.0045 613.667 50.1182 609.398 49.524 605.104C49.0038 601.351 47.2347 597.971 44.4891 595.432C45.5003 596.067 46.4476 596.821 47.3128 597.686C50.3349 600.708 51.9994 604.726 51.9994 609Z" fill="#160204"/>
<path opacity="0.25" d="M43.6052 594.915C40.7563 594.093 37.7275 594.054 34.7863 594.832C30.499 595.966 26.9106 598.701 24.6804 602.534C22.4509 606.368 21.8472 610.84 22.9813 615.127C23.6733 617.744 24.9623 620.101 26.7341 622.048C26.0115 621.533 25.3269 620.954 24.6865 620.313C21.6645 617.291 20 613.273 20 609C20 604.726 21.6645 600.709 24.6865 597.687C27.7086 594.664 31.7262 593 35.9998 593C38.6993 593 41.2962 593.664 43.6052 594.915Z" fill="white"/>
</g>
</g>
<rect x="19" y="592" width="34" height="34" rx="17" stroke="white" stroke-width="2"/>
<path d="M230.593 618.7V617.22C229.82 617.193 229.06 617.087 228.313 616.9C227.566 616.713 226.933 616.48 226.413 616.2L227.313 613.66C227.82 613.873 228.346 614.053 228.893 614.2C229.453 614.347 230.02 614.433 230.593 614.46V611.58C230.1 611.433 229.6 611.267 229.093 611.08C228.586 610.893 228.12 610.653 227.693 610.36C227.28 610.053 226.94 609.673 226.673 609.22C226.42 608.767 226.293 608.207 226.293 607.54C226.293 606.447 226.673 605.547 227.433 604.84C228.206 604.133 229.26 603.68 230.593 603.48V601.54H232.293V603.38C233 603.393 233.686 603.493 234.353 603.68C235.02 603.853 235.56 604.08 235.973 604.36L235.113 606.76C234.633 606.533 234.16 606.353 233.693 606.22C233.24 606.087 232.773 606.013 232.293 606V608.88C232.773 609.027 233.26 609.2 233.753 609.4C234.246 609.6 234.7 609.853 235.113 610.16C235.526 610.453 235.86 610.827 236.113 611.28C236.366 611.72 236.493 612.26 236.493 612.9C236.493 614.087 236.12 615.04 235.373 615.76C234.64 616.48 233.613 616.933 232.293 617.12V618.7H230.593ZM229.533 607.22C229.533 607.473 229.626 607.687 229.813 607.86C230.013 608.02 230.273 608.167 230.593 608.3V606.16C229.886 606.347 229.533 606.7 229.533 607.22ZM232.293 614.32C232.96 614.107 233.293 613.727 233.293 613.18C233.293 612.94 233.2 612.74 233.013 612.58C232.84 612.42 232.6 612.273 232.293 612.14V614.32ZM237.194 613.5C237.194 612.1 238.094 611.073 239.894 610.42C239.361 610.073 238.907 609.627 238.534 609.08C238.161 608.533 237.974 607.827 237.974 606.96C237.974 606.133 238.187 605.42 238.614 604.82C239.054 604.22 239.647 603.76 240.394 603.44C241.141 603.107 241.994 602.94 242.954 602.94C243.821 602.94 244.587 603.08 245.254 603.36C245.921 603.627 246.441 604 246.814 604.48C247.201 604.96 247.394 605.52 247.394 606.16C247.394 606.813 247.234 607.367 246.914 607.82C246.594 608.26 246.081 608.633 245.374 608.94C245.894 609.18 246.374 609.473 246.814 609.82C247.267 610.153 247.627 610.567 247.894 611.06C248.174 611.553 248.314 612.16 248.314 612.88C248.314 613.787 248.061 614.573 247.554 615.24C247.047 615.893 246.374 616.393 245.534 616.74C244.707 617.087 243.787 617.26 242.774 617.26C241.654 617.26 240.674 617.107 239.834 616.8C239.007 616.493 238.361 616.06 237.894 615.5C237.427 614.94 237.194 614.273 237.194 613.5ZM241.234 606.32C241.234 606.773 241.461 607.14 241.914 607.42C242.381 607.687 242.941 607.947 243.594 608.2C244.034 607.8 244.254 607.293 244.254 606.68C244.254 605.68 243.747 605.18 242.734 605.18C242.267 605.18 241.901 605.287 241.634 605.5C241.367 605.713 241.234 605.987 241.234 606.32ZM240.994 612.88C240.994 613.4 241.154 613.827 241.474 614.16C241.794 614.48 242.234 614.64 242.794 614.64C243.354 614.64 243.794 614.513 244.114 614.26C244.434 613.993 244.594 613.64 244.594 613.2C244.594 612.813 244.367 612.487 243.914 612.22C243.474 611.953 242.721 611.64 241.654 611.28C241.214 611.76 240.994 612.293 240.994 612.88ZM248.926 607.74C248.926 606.807 249.139 605.98 249.566 605.26C250.006 604.54 250.626 603.973 251.426 603.56C252.226 603.147 253.173 602.94 254.266 602.94C255.559 602.94 256.633 603.213 257.486 603.76C258.353 604.307 258.999 605.067 259.426 606.04C259.866 607 260.086 608.127 260.086 609.42C260.086 610.927 259.793 612.267 259.206 613.44C258.633 614.6 257.826 615.507 256.786 616.16C255.746 616.813 254.533 617.14 253.146 617.14C252.439 617.14 251.779 617.067 251.166 616.92C250.553 616.76 250.006 616.507 249.526 616.16L250.346 613.28C250.733 613.493 251.133 613.66 251.546 613.78C251.959 613.887 252.373 613.94 252.786 613.94C253.759 613.94 254.526 613.607 255.086 612.94C255.659 612.26 255.993 611.327 256.086 610.14C255.753 610.753 255.299 611.2 254.726 611.48C254.166 611.76 253.633 611.9 253.126 611.9C252.273 611.9 251.526 611.727 250.886 611.38C250.259 611.033 249.773 610.547 249.426 609.92C249.093 609.293 248.926 608.567 248.926 607.74ZM252.546 607.48C252.546 607.933 252.699 608.3 253.006 608.58C253.326 608.847 253.739 608.98 254.246 608.98C254.566 608.98 254.886 608.94 255.206 608.86C255.526 608.767 255.819 608.633 256.086 608.46C255.939 606.7 255.326 605.82 254.246 605.82C253.726 605.82 253.313 605.973 253.006 606.28C252.699 606.587 252.546 606.987 252.546 607.48ZM267.402 617.16C266.188 617.16 265.108 616.86 264.162 616.26C263.215 615.647 262.468 614.807 261.922 613.74C261.388 612.66 261.122 611.427 261.122 610.04C261.122 608.667 261.388 607.447 261.922 606.38C262.468 605.313 263.215 604.473 264.162 603.86C265.108 603.247 266.188 602.94 267.402 602.94C268.308 602.94 269.142 603.12 269.902 603.48C270.662 603.827 271.322 604.32 271.882 604.96C272.442 605.587 272.875 606.333 273.182 607.2C273.502 608.067 273.662 609.013 273.662 610.04C273.662 611.413 273.388 612.64 272.842 613.72C272.308 614.787 271.568 615.627 270.622 616.24C269.688 616.853 268.615 617.16 267.402 617.16ZM267.402 613.74C268.068 613.74 268.588 613.413 268.962 612.76C269.348 612.107 269.542 611.2 269.542 610.04C269.542 608.907 269.348 608.013 268.962 607.36C268.588 606.693 268.068 606.36 267.402 606.36C266.722 606.36 266.188 606.687 265.802 607.34C265.428 607.993 265.242 608.893 265.242 610.04C265.242 611.173 265.435 612.073 265.822 612.74C266.222 613.407 266.748 613.74 267.402 613.74ZM276.645 617.12C275.912 617.12 275.352 616.927 274.965 616.54C274.578 616.14 274.385 615.653 274.385 615.08C274.385 614.493 274.592 614.013 275.005 613.64C275.418 613.253 275.965 613.06 276.645 613.06C277.325 613.06 277.865 613.26 278.265 613.66C278.678 614.06 278.885 614.533 278.885 615.08C278.885 615.693 278.692 616.187 278.305 616.56C277.932 616.933 277.378 617.12 276.645 617.12ZM284.128 617.26C283.515 617.26 282.895 617.193 282.268 617.06C281.642 616.94 280.995 616.733 280.328 616.44L280.968 613.38C281.408 613.593 281.888 613.76 282.408 613.88C282.928 613.987 283.415 614.04 283.868 614.04C284.588 614.04 285.115 613.907 285.448 613.64C285.782 613.36 285.948 612.98 285.948 612.5C285.948 612.073 285.815 611.74 285.548 611.5C285.282 611.26 284.935 611.14 284.508 611.14C283.802 611.14 283.175 611.413 282.628 611.96L280.468 611.04L281.128 603.24H288.988L288.688 606.24H284.128L283.888 608.72C284.208 608.467 284.555 608.287 284.928 608.18C285.315 608.073 285.682 608.02 286.028 608.02C286.935 608.02 287.668 608.213 288.228 608.6C288.802 608.987 289.222 609.493 289.488 610.12C289.755 610.747 289.888 611.42 289.888 612.14C289.888 613.3 289.648 614.26 289.168 615.02C288.688 615.78 288.015 616.347 287.148 616.72C286.295 617.08 285.288 617.26 284.128 617.26ZM297.226 617.16C296.012 617.16 294.932 616.86 293.986 616.26C293.039 615.647 292.292 614.807 291.746 613.74C291.212 612.66 290.946 611.427 290.946 610.04C290.946 608.667 291.212 607.447 291.746 606.38C292.292 605.313 293.039 604.473 293.986 603.86C294.932 603.247 296.012 602.94 297.226 602.94C298.132 602.94 298.966 603.12 299.726 603.48C300.486 603.827 301.146 604.32 301.706 604.96C302.266 605.587 302.699 606.333 303.006 607.2C303.326 608.067 303.486 609.013 303.486 610.04C303.486 611.413 303.212 612.64 302.666 613.72C302.132 614.787 301.392 615.627 300.446 616.24C299.512 616.853 298.439 617.16 297.226 617.16ZM297.226 613.74C297.892 613.74 298.412 613.413 298.786 612.76C299.172 612.107 299.366 611.2 299.366 610.04C299.366 608.907 299.172 608.013 298.786 607.36C298.412 606.693 297.892 606.36 297.226 606.36C296.546 606.36 296.012 606.687 295.626 607.34C295.252 607.993 295.066 608.893 295.066 610.04C295.066 611.173 295.259 612.073 295.646 612.74C296.046 613.407 296.572 613.74 297.226 613.74Z" fill="white"/>
<path d="M73.54 617.32C72.2067 617.32 71.0333 617.08 70.02 616.6C69.0067 616.12 68.22 615.433 67.66 614.54C67.1 613.633 66.82 612.553 66.82 611.3V603.24H71.26V611.1C71.26 611.993 71.4733 612.653 71.9 613.08C72.34 613.493 72.9133 613.7 73.62 613.7C74.3667 613.7 74.9333 613.487 75.32 613.06C75.72 612.633 75.92 612.047 75.92 611.3V603.24H80.42V611.3C80.42 612.487 80.1267 613.533 79.54 614.44C78.9533 615.347 78.14 616.053 77.1 616.56C76.0733 617.067 74.8867 617.32 73.54 617.32ZM86.5344 617.32C85.6944 617.32 84.841 617.213 83.9744 617C83.1077 616.8 82.3744 616.527 81.7744 616.18L82.4944 612.92C83.2677 613.333 83.9877 613.607 84.6544 613.74C85.3344 613.86 85.961 613.92 86.5344 613.92C87.0677 613.92 87.4677 613.833 87.7344 613.66C88.0144 613.487 88.1544 613.253 88.1544 612.96C88.1544 612.693 88.001 612.487 87.6944 612.34C87.3877 612.18 86.9877 612.033 86.4944 611.9C86.0144 611.767 85.501 611.613 84.9544 611.44C84.4077 611.253 83.8877 611.013 83.3944 610.72C82.9144 610.413 82.521 610.013 82.2144 609.52C81.9077 609.013 81.7544 608.38 81.7544 607.62C81.7544 606.66 81.9877 605.833 82.4544 605.14C82.921 604.433 83.5877 603.893 84.4544 603.52C85.321 603.133 86.341 602.94 87.5144 602.94C88.301 602.94 89.0677 603.047 89.8144 603.26C90.5744 603.46 91.181 603.733 91.6344 604.08L90.9544 607.02C90.2744 606.74 89.661 606.54 89.1144 606.42C88.581 606.287 88.0744 606.22 87.5944 606.22C87.0344 606.22 86.6077 606.3 86.3144 606.46C86.021 606.62 85.8744 606.833 85.8744 607.1C85.8744 607.353 86.0277 607.56 86.3344 607.72C86.641 607.88 87.0344 608.033 87.5144 608.18C87.9944 608.327 88.5077 608.493 89.0544 608.68C89.601 608.867 90.1144 609.113 90.5944 609.42C91.0744 609.727 91.4677 610.127 91.7744 610.62C92.081 611.113 92.2344 611.733 92.2344 612.48C92.2344 614.027 91.7277 615.22 90.7144 616.06C89.7144 616.9 88.321 617.32 86.5344 617.32ZM93.6039 617V603.24H98.3839C100.384 603.24 102.011 603.527 103.264 604.1C104.531 604.673 105.457 605.467 106.044 606.48C106.644 607.493 106.944 608.673 106.944 610.02C106.944 612.22 106.217 613.933 104.764 615.16C103.324 616.387 101.131 617 98.1839 617H93.6039ZM98.0239 613.5H99.3039C100.371 613.5 101.164 613.18 101.684 612.54C102.204 611.887 102.464 611.033 102.464 609.98C102.464 609.007 102.211 608.227 101.704 607.64C101.211 607.04 100.411 606.74 99.3039 606.74H98.0239V613.5Z" fill="white"/>
<defs>
<filter id="filter0_i_38_4529" x="0" y="572" width="328" height="180" filterUnits="userSpaceOnUse" color-interpolation-filters="sRGB">
<feFlood flood-opacity="0" result="BackgroundImageFix"/>
<feBlend mode="normal" in="SourceGraphic" in2="BackgroundImageFix" result="shape"/>
<feColorMatrix in="SourceAlpha" type="matrix" values="0 0 0 0 0 0 0 0 0 0 0 0 0 0 0 0 0 0 127 0" result="hardAlpha"/>
<feOffset dy="1"/>
<feComposite in2="hardAlpha" operator="arithmetic" k2="-1" k3="1"/>
<feColorMatrix type="matrix" values="0 0 0 0 1 0 0 0 0 1 0 0 0 0 1 0 0 0 0.504359 0"/>
<feBlend mode="normal" in2="shape" result="effect1_innerShadow_38_4529"/>
</filter>
<linearGradient id="paint0_linear_38_4529" x1="182.388" y1="393" x2="7.88278" y2="828.444" gradientUnits="userSpaceOnUse">
<stop offset="0.359375" stop-color="#8E3BF9"/>
<stop offset="0.855027" stop-color="#00C5FF"/>
</linearGradient>
<clipPath id="clip0_38_4529">
<rect x="20" y="593" width="32" height="32" rx="16" fill="white"/>
</clipPath>
<clipPath id="clip1_38_4529">
<rect width="32" height="32" fill="white" transform="translate(20 593)"/>
</clipPath>
</defs>
</svg>
