<svg width="328" height="180" viewBox="0 0 328 180" fill="none" xmlns="http://www.w3.org/2000/svg">
<g filter="url(#filter0_i_38_4464)">
<rect width="328" height="180" rx="10" fill="url(#paint0_linear_38_4464)"/>
</g>
<path d="M293.725 138.566H282.774V157.433H293.725V138.566Z" fill="#FF5F00"/>
<path d="M283.47 148C283.47 144.167 285.347 140.767 288.233 138.567C286.112 136.967 283.435 136 280.515 136C273.597 136 268 141.367 268 148C268 154.633 273.597 160 280.515 160C283.435 160 286.112 159.033 288.233 157.433C285.347 155.267 283.47 151.833 283.47 148Z" fill="#EB001B"/>
<path d="M308.5 148C308.5 154.633 302.903 160 295.985 160C293.065 160 290.388 159.033 288.268 157.433C291.188 155.233 293.03 151.833 293.03 148C293.03 144.167 291.153 140.767 288.268 138.567C290.388 136.967 293.065 136 295.985 136C302.903 136 308.5 141.4 308.5 148Z" fill="#F79E1B"/>
<path d="M23.7734 153.992L25.749 147.047H26.7061L26.1523 149.747L24.0264 157H23.0762L23.7734 153.992ZM21.7295 147.047L23.3018 153.855L23.7734 157H22.8301L20.417 147.047H21.7295ZM29.2627 153.849L30.8008 147.047H32.1201L29.7139 157H28.7705L29.2627 153.849ZM26.8496 147.047L28.7705 153.992L29.4678 157H28.5176L26.4668 149.747L25.9062 147.047H26.8496ZM36.2422 157.137C35.7272 157.137 35.2601 157.05 34.8408 156.877C34.4261 156.699 34.0684 156.451 33.7676 156.132C33.4714 155.813 33.2435 155.435 33.084 154.997C32.9245 154.56 32.8447 154.081 32.8447 153.562V153.274C32.8447 152.673 32.9336 152.137 33.1113 151.668C33.2891 151.194 33.5306 150.793 33.8359 150.465C34.1413 150.137 34.4876 149.888 34.875 149.72C35.2624 149.551 35.6634 149.467 36.0781 149.467C36.6068 149.467 37.0625 149.558 37.4453 149.74C37.8327 149.923 38.1494 150.178 38.3955 150.506C38.6416 150.829 38.8239 151.212 38.9424 151.654C39.0609 152.092 39.1201 152.57 39.1201 153.09V153.657H33.5967V152.625H37.8555V152.529C37.8372 152.201 37.7689 151.882 37.6504 151.572C37.5365 151.262 37.3542 151.007 37.1035 150.807C36.8529 150.606 36.5111 150.506 36.0781 150.506C35.791 150.506 35.5267 150.567 35.2852 150.69C35.0436 150.809 34.8363 150.987 34.6631 151.224C34.4899 151.461 34.3555 151.75 34.2598 152.092C34.1641 152.434 34.1162 152.828 34.1162 153.274V153.562C34.1162 153.912 34.1641 154.243 34.2598 154.553C34.36 154.858 34.5036 155.127 34.6904 155.359C34.8818 155.592 35.112 155.774 35.3809 155.906C35.6543 156.038 35.9642 156.104 36.3105 156.104C36.7572 156.104 37.1354 156.013 37.4453 155.831C37.7552 155.649 38.0264 155.405 38.2588 155.1L39.0244 155.708C38.8649 155.95 38.6621 156.18 38.416 156.398C38.1699 156.617 37.8669 156.795 37.5068 156.932C37.1514 157.068 36.7298 157.137 36.2422 157.137ZM44.9033 155.038C44.9033 154.856 44.8623 154.687 44.7803 154.532C44.7028 154.373 44.541 154.229 44.2949 154.102C44.0534 153.969 43.6888 153.855 43.2012 153.76C42.791 153.673 42.4196 153.571 42.0869 153.452C41.7588 153.334 41.4785 153.19 41.2461 153.021C41.0182 152.853 40.8428 152.655 40.7197 152.427C40.5967 152.199 40.5352 151.932 40.5352 151.627C40.5352 151.335 40.599 151.06 40.7266 150.8C40.8587 150.54 41.0433 150.31 41.2803 150.109C41.5218 149.909 41.8112 149.752 42.1484 149.638C42.4857 149.524 42.8617 149.467 43.2764 149.467C43.8688 149.467 44.3747 149.572 44.7939 149.781C45.2132 149.991 45.5345 150.271 45.7578 150.622C45.9811 150.968 46.0928 151.354 46.0928 151.777H44.8281C44.8281 151.572 44.7666 151.374 44.6436 151.183C44.5251 150.987 44.3496 150.825 44.1172 150.697C43.8893 150.57 43.609 150.506 43.2764 150.506C42.9255 150.506 42.6406 150.561 42.4219 150.67C42.2077 150.775 42.0505 150.909 41.9502 151.073C41.8545 151.237 41.8066 151.41 41.8066 151.593C41.8066 151.729 41.8294 151.853 41.875 151.962C41.9251 152.067 42.0117 152.165 42.1348 152.256C42.2578 152.342 42.431 152.424 42.6543 152.502C42.8776 152.579 43.1624 152.657 43.5088 152.734C44.1149 152.871 44.6139 153.035 45.0059 153.227C45.3978 153.418 45.6895 153.653 45.8809 153.931C46.0723 154.209 46.168 154.546 46.168 154.942C46.168 155.266 46.0996 155.562 45.9629 155.831C45.8307 156.1 45.637 156.332 45.3818 156.528C45.1312 156.72 44.8304 156.87 44.4795 156.979C44.1331 157.084 43.7435 157.137 43.3105 157.137C42.6589 157.137 42.1074 157.021 41.6562 156.788C41.2051 156.556 40.8633 156.255 40.6309 155.886C40.3984 155.517 40.2822 155.127 40.2822 154.717H41.5537C41.5719 155.063 41.6722 155.339 41.8545 155.544C42.0368 155.744 42.2601 155.888 42.5244 155.975C42.7887 156.057 43.0508 156.098 43.3105 156.098C43.6569 156.098 43.9463 156.052 44.1787 155.961C44.4157 155.87 44.5957 155.744 44.7188 155.585C44.8418 155.425 44.9033 155.243 44.9033 155.038ZM50.9258 149.604V150.574H46.9268V149.604H50.9258ZM48.2803 147.806H49.5449V155.168C49.5449 155.419 49.5837 155.608 49.6611 155.735C49.7386 155.863 49.8389 155.947 49.9619 155.988C50.085 156.029 50.2171 156.05 50.3584 156.05C50.4632 156.05 50.5726 156.041 50.6865 156.022C50.805 156 50.8939 155.981 50.9531 155.968L50.96 157C50.8597 157.032 50.7275 157.062 50.5635 157.089C50.404 157.121 50.2103 157.137 49.9824 157.137C49.6725 157.137 49.3877 157.075 49.1279 156.952C48.8682 156.829 48.6608 156.624 48.5059 156.337C48.3555 156.045 48.2803 155.653 48.2803 155.161V147.806ZM59.7578 147.929L56.4629 157H55.1162L58.9102 147.047H59.7783L59.7578 147.929ZM62.5195 157L59.2178 147.929L59.1973 147.047H60.0654L63.873 157H62.5195ZM62.3486 153.315V154.396H56.7568V153.315H62.3486ZM66.9014 157H65.6367V148.824C65.6367 148.291 65.7324 147.842 65.9238 147.478C66.1198 147.108 66.4001 146.83 66.7646 146.644C67.1292 146.452 67.5622 146.356 68.0635 146.356C68.2093 146.356 68.3551 146.366 68.501 146.384C68.6514 146.402 68.7972 146.429 68.9385 146.466L68.8701 147.498C68.7744 147.475 68.665 147.459 68.542 147.45C68.4235 147.441 68.305 147.437 68.1865 147.437C67.9176 147.437 67.6852 147.491 67.4893 147.601C67.2979 147.705 67.152 147.86 67.0518 148.065C66.9515 148.271 66.9014 148.523 66.9014 148.824V157ZM68.4736 149.604V150.574H64.4678V149.604H68.4736ZM71.1465 150.766V157H69.8818V149.604H71.1123L71.1465 150.766ZM73.457 149.562L73.4502 150.738C73.3454 150.715 73.2451 150.702 73.1494 150.697C73.0583 150.688 72.9535 150.684 72.835 150.684C72.5433 150.684 72.2858 150.729 72.0625 150.82C71.8392 150.911 71.6501 151.039 71.4951 151.203C71.3402 151.367 71.2171 151.563 71.126 151.791C71.0394 152.014 70.9824 152.26 70.9551 152.529L70.5996 152.734C70.5996 152.288 70.6429 151.868 70.7295 151.477C70.8206 151.085 70.9596 150.738 71.1465 150.438C71.3333 150.132 71.5703 149.895 71.8574 149.727C72.1491 149.553 72.4954 149.467 72.8965 149.467C72.9876 149.467 73.0924 149.478 73.2109 149.501C73.3294 149.519 73.4115 149.54 73.457 149.562ZM76 149.604V157H74.7285V149.604H76ZM74.6328 147.642C74.6328 147.437 74.6943 147.263 74.8174 147.122C74.945 146.981 75.1318 146.91 75.3779 146.91C75.6195 146.91 75.804 146.981 75.9316 147.122C76.0638 147.263 76.1299 147.437 76.1299 147.642C76.1299 147.838 76.0638 148.006 75.9316 148.147C75.804 148.284 75.6195 148.353 75.3779 148.353C75.1318 148.353 74.945 148.284 74.8174 148.147C74.6943 148.006 74.6328 147.838 74.6328 147.642ZM80.9902 156.098C81.291 156.098 81.569 156.036 81.8242 155.913C82.0794 155.79 82.2891 155.621 82.4531 155.407C82.6172 155.188 82.7106 154.94 82.7334 154.662H83.9365C83.9137 155.1 83.7656 155.507 83.4922 155.886C83.2233 156.259 82.8701 156.562 82.4326 156.795C81.9951 157.023 81.5143 157.137 80.9902 157.137C80.4342 157.137 79.9489 157.039 79.5342 156.843C79.124 156.647 78.7822 156.378 78.5088 156.036C78.2399 155.694 78.0371 155.302 77.9004 154.86C77.7682 154.414 77.7021 153.942 77.7021 153.445V153.158C77.7021 152.661 77.7682 152.192 77.9004 151.75C78.0371 151.303 78.2399 150.909 78.5088 150.567C78.7822 150.226 79.124 149.957 79.5342 149.761C79.9489 149.565 80.4342 149.467 80.9902 149.467C81.569 149.467 82.0749 149.585 82.5078 149.822C82.9408 150.055 83.2803 150.374 83.5264 150.779C83.777 151.18 83.9137 151.636 83.9365 152.146H82.7334C82.7106 151.841 82.624 151.565 82.4736 151.319C82.3278 151.073 82.1273 150.877 81.8721 150.731C81.6214 150.581 81.3275 150.506 80.9902 150.506C80.6029 150.506 80.277 150.583 80.0127 150.738C79.7529 150.889 79.5456 151.094 79.3906 151.354C79.2402 151.609 79.1309 151.894 79.0625 152.208C78.9987 152.518 78.9668 152.835 78.9668 153.158V153.445C78.9668 153.769 78.9987 154.088 79.0625 154.402C79.1263 154.717 79.2334 155.002 79.3838 155.257C79.5387 155.512 79.7461 155.717 80.0059 155.872C80.2702 156.022 80.5983 156.098 80.9902 156.098ZM89.7197 155.735V151.928C89.7197 151.636 89.6605 151.383 89.542 151.169C89.4281 150.95 89.2549 150.782 89.0225 150.663C88.79 150.545 88.5029 150.485 88.1611 150.485C87.8421 150.485 87.5618 150.54 87.3203 150.649C87.0833 150.759 86.8965 150.902 86.7598 151.08C86.6276 151.258 86.5615 151.449 86.5615 151.654H85.2969C85.2969 151.39 85.3652 151.128 85.502 150.868C85.6387 150.608 85.8346 150.374 86.0898 150.164C86.3496 149.95 86.6595 149.781 87.0195 149.658C87.3841 149.531 87.7897 149.467 88.2363 149.467C88.7741 149.467 89.248 149.558 89.6582 149.74C90.0729 149.923 90.3965 150.198 90.6289 150.567C90.8659 150.932 90.9844 151.39 90.9844 151.941V155.387C90.9844 155.633 91.0049 155.895 91.0459 156.173C91.0915 156.451 91.1576 156.69 91.2441 156.891V157H89.9248C89.861 156.854 89.8109 156.66 89.7744 156.419C89.738 156.173 89.7197 155.945 89.7197 155.735ZM89.9385 152.516L89.9521 153.404H88.6738C88.3138 153.404 87.9925 153.434 87.71 153.493C87.4274 153.548 87.1904 153.632 86.999 153.746C86.8076 153.86 86.6618 154.004 86.5615 154.177C86.4613 154.345 86.4111 154.544 86.4111 154.771C86.4111 155.004 86.4635 155.216 86.5684 155.407C86.6732 155.599 86.8304 155.751 87.04 155.865C87.2542 155.975 87.5163 156.029 87.8262 156.029C88.2135 156.029 88.5553 155.947 88.8516 155.783C89.1478 155.619 89.3825 155.419 89.5557 155.182C89.7334 154.945 89.8291 154.715 89.8428 154.491L90.3828 155.1C90.3509 155.291 90.2643 155.503 90.123 155.735C89.9818 155.968 89.7926 156.191 89.5557 156.405C89.3232 156.615 89.0452 156.79 88.7217 156.932C88.4027 157.068 88.0426 157.137 87.6416 157.137C87.1403 157.137 86.7005 157.039 86.3223 156.843C85.9486 156.647 85.6569 156.385 85.4473 156.057C85.2422 155.724 85.1396 155.353 85.1396 154.942C85.1396 154.546 85.2171 154.197 85.3721 153.896C85.527 153.591 85.7503 153.338 86.042 153.138C86.3337 152.933 86.6846 152.778 87.0947 152.673C87.5049 152.568 87.9629 152.516 88.4688 152.516H89.9385ZM94.2383 151.183V157H92.9736V149.604H94.1699L94.2383 151.183ZM93.9375 153.021L93.4111 153.001C93.4157 152.495 93.4909 152.028 93.6367 151.6C93.7826 151.167 93.9876 150.791 94.252 150.472C94.5163 150.153 94.8307 149.907 95.1953 149.733C95.5645 149.556 95.9723 149.467 96.4189 149.467C96.7835 149.467 97.1117 149.517 97.4033 149.617C97.695 149.713 97.9434 149.868 98.1484 150.082C98.3581 150.296 98.5176 150.574 98.627 150.916C98.7363 151.253 98.791 151.666 98.791 152.153V157H97.5195V152.14C97.5195 151.752 97.4626 151.442 97.3486 151.21C97.2347 150.973 97.0684 150.802 96.8496 150.697C96.6309 150.588 96.362 150.533 96.043 150.533C95.7285 150.533 95.4414 150.599 95.1816 150.731C94.9264 150.864 94.7054 151.046 94.5186 151.278C94.3363 151.511 94.1927 151.777 94.0879 152.078C93.9876 152.374 93.9375 152.689 93.9375 153.021ZM110.385 153.835H111.697C111.629 154.464 111.449 155.027 111.157 155.523C110.866 156.02 110.453 156.414 109.92 156.706C109.387 156.993 108.721 157.137 107.924 157.137C107.34 157.137 106.81 157.027 106.331 156.809C105.857 156.59 105.449 156.28 105.107 155.879C104.766 155.473 104.501 154.988 104.314 154.423C104.132 153.853 104.041 153.22 104.041 152.522V151.531C104.041 150.834 104.132 150.203 104.314 149.638C104.501 149.068 104.768 148.58 105.114 148.175C105.465 147.769 105.887 147.457 106.379 147.238C106.871 147.02 107.425 146.91 108.04 146.91C108.792 146.91 109.428 147.051 109.947 147.334C110.467 147.617 110.87 148.008 111.157 148.51C111.449 149.007 111.629 149.583 111.697 150.239H110.385C110.321 149.774 110.202 149.376 110.029 149.043C109.856 148.706 109.61 148.446 109.291 148.264C108.972 148.081 108.555 147.99 108.04 147.99C107.598 147.99 107.208 148.075 106.871 148.243C106.538 148.412 106.258 148.651 106.03 148.961C105.807 149.271 105.638 149.642 105.524 150.075C105.41 150.508 105.354 150.989 105.354 151.518V152.522C105.354 153.01 105.404 153.468 105.504 153.896C105.609 154.325 105.766 154.701 105.976 155.024C106.185 155.348 106.452 155.603 106.775 155.79C107.099 155.972 107.482 156.063 107.924 156.063C108.484 156.063 108.931 155.975 109.264 155.797C109.596 155.619 109.847 155.364 110.016 155.031C110.189 154.699 110.312 154.3 110.385 153.835ZM114.814 147.047V157H113.495V147.047H114.814ZM118.984 151.524V152.604H114.527V151.524H118.984ZM119.661 147.047V148.127H114.527V147.047H119.661ZM123.756 147.929L120.461 157H119.114L122.908 147.047H123.776L123.756 147.929ZM126.518 157L123.216 147.929L123.195 147.047H124.063L127.871 157H126.518ZM126.347 153.315V154.396H120.755V153.315H126.347ZM134.372 157H133.107V148.824C133.107 148.291 133.203 147.842 133.395 147.478C133.59 147.108 133.871 146.83 134.235 146.644C134.6 146.452 135.033 146.356 135.534 146.356C135.68 146.356 135.826 146.366 135.972 146.384C136.122 146.402 136.268 146.429 136.409 146.466L136.341 147.498C136.245 147.475 136.136 147.459 136.013 147.45C135.894 147.441 135.776 147.437 135.657 147.437C135.388 147.437 135.156 147.491 134.96 147.601C134.769 147.705 134.623 147.86 134.522 148.065C134.422 148.271 134.372 148.523 134.372 148.824V157ZM135.944 149.604V150.574H131.938V149.604H135.944ZM138.617 150.766V157H137.353V149.604H138.583L138.617 150.766ZM140.928 149.562L140.921 150.738C140.816 150.715 140.716 150.702 140.62 150.697C140.529 150.688 140.424 150.684 140.306 150.684C140.014 150.684 139.757 150.729 139.533 150.82C139.31 150.911 139.121 151.039 138.966 151.203C138.811 151.367 138.688 151.563 138.597 151.791C138.51 152.014 138.453 152.26 138.426 152.529L138.07 152.734C138.07 152.288 138.114 151.868 138.2 151.477C138.291 151.085 138.43 150.738 138.617 150.438C138.804 150.132 139.041 149.895 139.328 149.727C139.62 149.553 139.966 149.467 140.367 149.467C140.458 149.467 140.563 149.478 140.682 149.501C140.8 149.519 140.882 149.54 140.928 149.562ZM146.185 155.735V151.928C146.185 151.636 146.125 151.383 146.007 151.169C145.893 150.95 145.72 150.782 145.487 150.663C145.255 150.545 144.968 150.485 144.626 150.485C144.307 150.485 144.027 150.54 143.785 150.649C143.548 150.759 143.361 150.902 143.225 151.08C143.092 151.258 143.026 151.449 143.026 151.654H141.762C141.762 151.39 141.83 151.128 141.967 150.868C142.104 150.608 142.299 150.374 142.555 150.164C142.814 149.95 143.124 149.781 143.484 149.658C143.849 149.531 144.255 149.467 144.701 149.467C145.239 149.467 145.713 149.558 146.123 149.74C146.538 149.923 146.861 150.198 147.094 150.567C147.331 150.932 147.449 151.39 147.449 151.941V155.387C147.449 155.633 147.47 155.895 147.511 156.173C147.556 156.451 147.622 156.69 147.709 156.891V157H146.39C146.326 156.854 146.276 156.66 146.239 156.419C146.203 156.173 146.185 155.945 146.185 155.735ZM146.403 152.516L146.417 153.404H145.139C144.779 153.404 144.457 153.434 144.175 153.493C143.892 153.548 143.655 153.632 143.464 153.746C143.272 153.86 143.127 154.004 143.026 154.177C142.926 154.345 142.876 154.544 142.876 154.771C142.876 155.004 142.928 155.216 143.033 155.407C143.138 155.599 143.295 155.751 143.505 155.865C143.719 155.975 143.981 156.029 144.291 156.029C144.678 156.029 145.02 155.947 145.316 155.783C145.613 155.619 145.847 155.419 146.021 155.182C146.198 154.945 146.294 154.715 146.308 154.491L146.848 155.1C146.816 155.291 146.729 155.503 146.588 155.735C146.447 155.968 146.257 156.191 146.021 156.405C145.788 156.615 145.51 156.79 145.187 156.932C144.868 157.068 144.507 157.137 144.106 157.137C143.605 157.137 143.165 157.039 142.787 156.843C142.413 156.647 142.122 156.385 141.912 156.057C141.707 155.724 141.604 155.353 141.604 154.942C141.604 154.546 141.682 154.197 141.837 153.896C141.992 153.591 142.215 153.338 142.507 153.138C142.799 152.933 143.149 152.778 143.56 152.673C143.97 152.568 144.428 152.516 144.934 152.516H146.403ZM150.703 151.183V157H149.438V149.604H150.635L150.703 151.183ZM150.402 153.021L149.876 153.001C149.881 152.495 149.956 152.028 150.102 151.6C150.247 151.167 150.452 150.791 150.717 150.472C150.981 150.153 151.296 149.907 151.66 149.733C152.029 149.556 152.437 149.467 152.884 149.467C153.248 149.467 153.576 149.517 153.868 149.617C154.16 149.713 154.408 149.868 154.613 150.082C154.823 150.296 154.982 150.574 155.092 150.916C155.201 151.253 155.256 151.666 155.256 152.153V157H153.984V152.14C153.984 151.752 153.927 151.442 153.813 151.21C153.7 150.973 153.533 150.802 153.314 150.697C153.096 150.588 152.827 150.533 152.508 150.533C152.193 150.533 151.906 150.599 151.646 150.731C151.391 150.864 151.17 151.046 150.983 151.278C150.801 151.511 150.658 151.777 150.553 152.078C150.452 152.374 150.402 152.689 150.402 153.021ZM160.137 156.098C160.438 156.098 160.715 156.036 160.971 155.913C161.226 155.79 161.436 155.621 161.6 155.407C161.764 155.188 161.857 154.94 161.88 154.662H163.083C163.06 155.1 162.912 155.507 162.639 155.886C162.37 156.259 162.017 156.562 161.579 156.795C161.142 157.023 160.661 157.137 160.137 157.137C159.581 157.137 159.095 157.039 158.681 156.843C158.271 156.647 157.929 156.378 157.655 156.036C157.386 155.694 157.184 155.302 157.047 154.86C156.915 154.414 156.849 153.942 156.849 153.445V153.158C156.849 152.661 156.915 152.192 157.047 151.75C157.184 151.303 157.386 150.909 157.655 150.567C157.929 150.226 158.271 149.957 158.681 149.761C159.095 149.565 159.581 149.467 160.137 149.467C160.715 149.467 161.221 149.585 161.654 149.822C162.087 150.055 162.427 150.374 162.673 150.779C162.924 151.18 163.06 151.636 163.083 152.146H161.88C161.857 151.841 161.771 151.565 161.62 151.319C161.474 151.073 161.274 150.877 161.019 150.731C160.768 150.581 160.474 150.506 160.137 150.506C159.749 150.506 159.424 150.583 159.159 150.738C158.899 150.889 158.692 151.094 158.537 151.354C158.387 151.609 158.277 151.894 158.209 152.208C158.145 152.518 158.113 152.835 158.113 153.158V153.445C158.113 153.769 158.145 154.088 158.209 154.402C158.273 154.717 158.38 155.002 158.53 155.257C158.685 155.512 158.893 155.717 159.152 155.872C159.417 156.022 159.745 156.098 160.137 156.098Z" fill="white"/>
<g clip-path="url(#clip0_38_4464)">
<path d="M36 54C44.8366 54 52 46.8366 52 38C52 29.1634 44.8366 22 36 22C27.1634 22 20 29.1634 20 38C20 46.8366 27.1634 54 36 54Z" fill="white"/>
<g clip-path="url(#clip1_38_4464)">
<path d="M42.9567 23.5876C40.8532 22.5705 38.4933 22 36.0002 22C33.507 22 31.1472 22.5705 29.0437 23.5876L27.6523 38L29.0437 52.4124C31.1472 53.4295 33.507 54 36.0002 54C38.4933 54 40.8532 53.4295 42.9567 52.4124L44.348 38L42.9567 23.5876Z" fill="#FFDA44"/>
<path d="M35.9999 32.4336L37.3812 36.6848H41.8517L38.2352 39.3125L39.6165 43.564L35.9999 40.9365L32.3834 43.564L33.7649 39.3125L30.1484 36.6848H34.6186L35.9999 32.4336Z" fill="#496E2D"/>
<path d="M29.0435 23.5879C23.6916 26.1758 20 31.6564 20 37.9997C20 44.343 23.6916 49.8236 29.0435 52.4115V23.5879Z" fill="#496E2D"/>
<path d="M42.9561 23.5879V52.4115C48.3079 49.8236 51.9996 44.343 51.9996 37.9997C51.9996 31.6564 48.3079 26.1758 42.9561 23.5879Z" fill="#D80027"/>
</g>
</g>
<rect x="19" y="21" width="34" height="34" rx="17" stroke="white" stroke-width="2"/>
<path d="M188.301 45.32C186.861 45.32 185.601 45.0333 184.521 44.46C183.454 43.8733 182.621 43.0533 182.021 42C181.434 40.9467 181.141 39.72 181.141 38.32C181.141 36.88 181.448 35.6067 182.061 34.5C182.688 33.3933 183.541 32.5267 184.621 31.9C185.714 31.26 186.968 30.94 188.381 30.94C189.954 30.94 191.188 31.2467 192.081 31.86L191.541 35.04C191.154 34.8533 190.748 34.72 190.321 34.64C189.908 34.5467 189.514 34.5 189.141 34.5C188.048 34.5 187.188 34.8267 186.561 35.48C185.934 36.1333 185.621 37.04 185.621 38.2C185.621 39.2933 185.921 40.1533 186.521 40.78C187.134 41.3933 187.981 41.7 189.061 41.7C189.488 41.7 189.874 41.66 190.221 41.58C190.581 41.5 191.021 41.3533 191.541 41.14L192.101 44.3C190.941 44.98 189.674 45.32 188.301 45.32ZM193.538 45V31.24H203.018V34.28H197.838V37.06H202.638V39.74H197.838V45H193.538ZM202.869 45L206.669 31.24H213.149L217.129 45H212.229L211.709 42.36H208.149L207.569 45H202.869ZM208.569 39.9H211.229L209.929 33.88L208.569 39.9ZM221.356 38.66C221.356 37.1267 221.649 35.7867 222.236 34.64C222.823 33.48 223.636 32.5733 224.676 31.92C225.716 31.2667 226.923 30.94 228.296 30.94C229.749 30.94 230.956 31.2667 231.916 31.92L231.096 34.8C230.683 34.5867 230.269 34.4267 229.856 34.32C229.443 34.2 229.043 34.14 228.656 34.14C227.696 34.14 226.929 34.4733 226.356 35.14C225.796 35.7933 225.463 36.7267 225.356 37.94C225.649 37.4067 226.063 36.98 226.596 36.66C227.129 36.34 227.703 36.18 228.316 36.18C229.169 36.18 229.909 36.3533 230.536 36.7C231.163 37.0333 231.649 37.5133 231.996 38.14C232.343 38.7667 232.516 39.5 232.516 40.34C232.516 41.2867 232.289 42.1267 231.836 42.86C231.396 43.58 230.776 44.14 229.976 44.54C229.176 44.94 228.243 45.14 227.176 45.14C225.349 45.14 223.923 44.5733 222.896 43.44C221.869 42.2933 221.356 40.7 221.356 38.66ZM225.356 39.62C225.503 41.38 226.116 42.26 227.196 42.26C227.703 42.26 228.109 42.1067 228.416 41.8C228.736 41.4933 228.896 41.0933 228.896 40.6C228.896 40.1467 228.743 39.7867 228.436 39.52C228.129 39.24 227.716 39.1 227.196 39.1C226.503 39.1 225.889 39.2733 225.356 39.62ZM233.211 38.66C233.211 37.1267 233.505 35.7867 234.091 34.64C234.678 33.48 235.491 32.5733 236.531 31.92C237.571 31.2667 238.778 30.94 240.151 30.94C241.605 30.94 242.811 31.2667 243.771 31.92L242.951 34.8C242.538 34.5867 242.125 34.4267 241.711 34.32C241.298 34.2 240.898 34.14 240.511 34.14C239.551 34.14 238.785 34.4733 238.211 35.14C237.651 35.7933 237.318 36.7267 237.211 37.94C237.505 37.4067 237.918 36.98 238.451 36.66C238.985 36.34 239.558 36.18 240.171 36.18C241.025 36.18 241.765 36.3533 242.391 36.7C243.018 37.0333 243.505 37.5133 243.851 38.14C244.198 38.7667 244.371 39.5 244.371 40.34C244.371 41.2867 244.145 42.1267 243.691 42.86C243.251 43.58 242.631 44.14 241.831 44.54C241.031 44.94 240.098 45.14 239.031 45.14C237.205 45.14 235.778 44.5733 234.751 43.44C233.725 42.2933 233.211 40.7 233.211 38.66ZM237.211 39.62C237.358 41.38 237.971 42.26 239.051 42.26C239.558 42.26 239.965 42.1067 240.271 41.8C240.591 41.4933 240.751 41.0933 240.751 40.6C240.751 40.1467 240.598 39.7867 240.291 39.52C239.985 39.24 239.571 39.1 239.051 39.1C238.358 39.1 237.745 39.2733 237.211 39.62ZM251.347 45.16C250.134 45.16 249.054 44.86 248.107 44.26C247.16 43.6467 246.414 42.8067 245.867 41.74C245.334 40.66 245.067 39.4267 245.067 38.04C245.067 36.6667 245.334 35.4467 245.867 34.38C246.414 33.3133 247.16 32.4733 248.107 31.86C249.054 31.2467 250.134 30.94 251.347 30.94C252.254 30.94 253.087 31.12 253.847 31.48C254.607 31.8267 255.267 32.32 255.827 32.96C256.387 33.5867 256.82 34.3333 257.127 35.2C257.447 36.0667 257.607 37.0133 257.607 38.04C257.607 39.4133 257.334 40.64 256.787 41.72C256.254 42.7867 255.514 43.6267 254.567 44.24C253.634 44.8533 252.56 45.16 251.347 45.16ZM251.347 41.74C252.014 41.74 252.534 41.4133 252.907 40.76C253.294 40.1067 253.487 39.2 253.487 38.04C253.487 36.9067 253.294 36.0133 252.907 35.36C252.534 34.6933 252.014 34.36 251.347 34.36C250.667 34.36 250.134 34.6867 249.747 35.34C249.374 35.9933 249.187 36.8933 249.187 38.04C249.187 39.1733 249.38 40.0733 249.767 40.74C250.167 41.4067 250.694 41.74 251.347 41.74ZM259.248 48.38L258.548 46.62C259.721 46.22 260.308 45.72 260.308 45.12C259.774 45.12 259.328 44.9267 258.968 44.54C258.621 44.1533 258.448 43.6667 258.448 43.08C258.448 42.4933 258.648 42.0133 259.048 41.64C259.461 41.2533 259.994 41.06 260.648 41.06C261.368 41.06 261.928 41.3133 262.328 41.82C262.741 42.3133 262.948 42.9933 262.948 43.86C262.948 44.9933 262.628 45.9533 261.988 46.74C261.348 47.5267 260.434 48.0733 259.248 48.38ZM270.077 45.16C268.864 45.16 267.784 44.86 266.837 44.26C265.891 43.6467 265.144 42.8067 264.597 41.74C264.064 40.66 263.797 39.4267 263.797 38.04C263.797 36.6667 264.064 35.4467 264.597 34.38C265.144 33.3133 265.891 32.4733 266.837 31.86C267.784 31.2467 268.864 30.94 270.077 30.94C270.984 30.94 271.817 31.12 272.577 31.48C273.337 31.8267 273.997 32.32 274.557 32.96C275.117 33.5867 275.551 34.3333 275.857 35.2C276.177 36.0667 276.337 37.0133 276.337 38.04C276.337 39.4133 276.064 40.64 275.517 41.72C274.984 42.7867 274.244 43.6267 273.297 44.24C272.364 44.8533 271.291 45.16 270.077 45.16ZM270.077 41.74C270.744 41.74 271.264 41.4133 271.637 40.76C272.024 40.1067 272.217 39.2 272.217 38.04C272.217 36.9067 272.024 36.0133 271.637 35.36C271.264 34.6933 270.744 34.36 270.077 34.36C269.397 34.36 268.864 34.6867 268.477 35.34C268.104 35.9933 267.917 36.8933 267.917 38.04C267.917 39.1733 268.111 40.0733 268.497 40.74C268.897 41.4067 269.424 41.74 270.077 41.74ZM283.652 45.16C282.438 45.16 281.358 44.86 280.412 44.26C279.465 43.6467 278.718 42.8067 278.172 41.74C277.638 40.66 277.372 39.4267 277.372 38.04C277.372 36.6667 277.638 35.4467 278.172 34.38C278.718 33.3133 279.465 32.4733 280.412 31.86C281.358 31.2467 282.438 30.94 283.652 30.94C284.558 30.94 285.392 31.12 286.152 31.48C286.912 31.8267 287.572 32.32 288.132 32.96C288.692 33.5867 289.125 34.3333 289.432 35.2C289.752 36.0667 289.912 37.0133 289.912 38.04C289.912 39.4133 289.638 40.64 289.092 41.72C288.558 42.7867 287.818 43.6267 286.872 44.24C285.938 44.8533 284.865 45.16 283.652 45.16ZM283.652 41.74C284.318 41.74 284.838 41.4133 285.212 40.76C285.598 40.1067 285.792 39.2 285.792 38.04C285.792 36.9067 285.598 36.0133 285.212 35.36C284.838 34.6933 284.318 34.36 283.652 34.36C282.972 34.36 282.438 34.6867 282.052 35.34C281.678 35.9933 281.492 36.8933 281.492 38.04C281.492 39.1733 281.685 40.0733 282.072 40.74C282.472 41.4067 282.998 41.74 283.652 41.74ZM297.226 45.16C296.012 45.16 294.932 44.86 293.986 44.26C293.039 43.6467 292.292 42.8067 291.746 41.74C291.212 40.66 290.946 39.4267 290.946 38.04C290.946 36.6667 291.212 35.4467 291.746 34.38C292.292 33.3133 293.039 32.4733 293.986 31.86C294.932 31.2467 296.012 30.94 297.226 30.94C298.132 30.94 298.966 31.12 299.726 31.48C300.486 31.8267 301.146 32.32 301.706 32.96C302.266 33.5867 302.699 34.3333 303.006 35.2C303.326 36.0667 303.486 37.0133 303.486 38.04C303.486 39.4133 303.212 40.64 302.666 41.72C302.132 42.7867 301.392 43.6267 300.446 44.24C299.512 44.8533 298.439 45.16 297.226 45.16ZM297.226 41.74C297.892 41.74 298.412 41.4133 298.786 40.76C299.172 40.1067 299.366 39.2 299.366 38.04C299.366 36.9067 299.172 36.0133 298.786 35.36C298.412 34.6933 297.892 34.36 297.226 34.36C296.546 34.36 296.012 34.6867 295.626 35.34C295.252 35.9933 295.066 36.8933 295.066 38.04C295.066 39.1733 295.259 40.0733 295.646 40.74C296.046 41.4067 296.572 41.74 297.226 41.74Z" fill="white"/>
<path d="M73.68 45.32C72.24 45.32 70.98 45.0333 69.9 44.46C68.8333 43.8733 68 43.0533 67.4 42C66.8133 40.9467 66.52 39.72 66.52 38.32C66.52 36.88 66.8267 35.6067 67.44 34.5C68.0667 33.3933 68.92 32.5267 70 31.9C71.0933 31.26 72.3467 30.94 73.76 30.94C75.3333 30.94 76.5667 31.2467 77.46 31.86L76.92 35.04C76.5333 34.8533 76.1267 34.72 75.7 34.64C75.2867 34.5467 74.8933 34.5 74.52 34.5C73.4267 34.5 72.5667 34.8267 71.94 35.48C71.3133 36.1333 71 37.04 71 38.2C71 39.2933 71.3 40.1533 71.9 40.78C72.5133 41.3933 73.36 41.7 74.44 41.7C74.8667 41.7 75.2533 41.66 75.6 41.58C75.96 41.5 76.4 41.3533 76.92 41.14L77.48 44.3C76.32 44.98 75.0533 45.32 73.68 45.32ZM78.9164 45V31.24H88.3964V34.28H83.2164V37.06H88.0164V39.74H83.2164V45H78.9164ZM88.248 45L92.048 31.24H98.528L102.508 45H97.608L97.088 42.36H93.528L92.948 45H88.248ZM93.948 39.9H96.608L95.308 33.88L93.948 39.9Z" fill="white"/>
<defs>
<filter id="filter0_i_38_4464" x="0" y="0" width="328" height="180" filterUnits="userSpaceOnUse" color-interpolation-filters="sRGB">
<feFlood flood-opacity="0" result="BackgroundImageFix"/>
<feBlend mode="normal" in="SourceGraphic" in2="BackgroundImageFix" result="shape"/>
<feColorMatrix in="SourceAlpha" type="matrix" values="0 0 0 0 0 0 0 0 0 0 0 0 0 0 0 0 0 0 127 0" result="hardAlpha"/>
<feOffset dy="1"/>
<feComposite in2="hardAlpha" operator="arithmetic" k2="-1" k3="1"/>
<feColorMatrix type="matrix" values="0 0 0 0 1 0 0 0 0 1 0 0 0 0 1 0 0 0 0.504359 0"/>
<feBlend mode="normal" in2="shape" result="effect1_innerShadow_38_4464"/>
</filter>
<linearGradient id="paint0_linear_38_4464" x1="182.388" y1="-179" x2="7.88278" y2="256.444" gradientUnits="userSpaceOnUse">
<stop offset="0.359375" stop-color="#215CFF"/>
<stop offset="0.77503" stop-color="#04B159"/>
</linearGradient>
<clipPath id="clip0_38_4464">
<rect x="20" y="22" width="32" height="32" rx="16" fill="white"/>
</clipPath>
<clipPath id="clip1_38_4464">
<rect width="32" height="32" fill="white" transform="translate(20 22)"/>
</clipPath>
</defs>
</svg>
