<svg width="328" height="180" viewBox="0 0 328 180" fill="none" xmlns="http://www.w3.org/2000/svg">
<g filter="url(#filter0_i_38_4530)">
<rect width="328" height="180" rx="10" fill="url(#paint0_linear_38_4530)"/>
</g>
<path d="M292.725 138.566H281.774V157.433H292.725V138.566Z" fill="#FF5F00"/>
<path d="M282.47 148C282.47 144.167 284.347 140.767 287.233 138.567C285.112 136.967 282.435 136 279.515 136C272.597 136 267 141.367 267 148C267 154.633 272.597 160 279.515 160C282.435 160 285.112 159.033 287.233 157.433C284.347 155.267 282.47 151.833 282.47 148Z" fill="#EB001B"/>
<path d="M307.5 148C307.5 154.633 301.903 160 294.985 160C292.065 160 289.388 159.033 287.268 157.433C290.188 155.233 292.03 151.833 292.03 148C292.03 144.167 290.153 140.767 287.268 138.567C289.388 136.967 292.065 136 294.985 136C301.903 136 307.5 141.4 307.5 148Z" fill="#F79E1B"/>
<path d="M26.8496 147.047H28.8936V153.623C28.8936 154.389 28.7295 155.034 28.4014 155.558C28.0778 156.082 27.6289 156.476 27.0547 156.74C26.485 157.005 25.8288 157.137 25.0859 157.137C24.3431 157.137 23.6823 157.005 23.1035 156.74C22.5293 156.476 22.0781 156.082 21.75 155.558C21.4264 155.034 21.2646 154.389 21.2646 153.623V147.047H23.3154V153.623C23.3154 154.07 23.3861 154.434 23.5273 154.717C23.6686 154.999 23.8714 155.207 24.1357 155.339C24.4046 155.471 24.7214 155.537 25.0859 155.537C25.4596 155.537 25.7764 155.471 26.0361 155.339C26.3005 155.207 26.501 154.999 26.6377 154.717C26.779 154.434 26.8496 154.07 26.8496 153.623V147.047ZM32.3867 151.183V157H30.418V149.604H32.2637L32.3867 151.183ZM32.0996 153.042H31.5664C31.5664 152.495 31.637 152.003 31.7783 151.565C31.9196 151.123 32.1178 150.747 32.373 150.438C32.6283 150.123 32.9313 149.884 33.2822 149.72C33.6377 149.551 34.0342 149.467 34.4717 149.467C34.818 149.467 35.1348 149.517 35.4219 149.617C35.709 149.717 35.9551 149.877 36.1602 150.096C36.3698 150.314 36.5293 150.604 36.6387 150.964C36.7526 151.324 36.8096 151.764 36.8096 152.283V157H34.8271V152.276C34.8271 151.948 34.7816 151.693 34.6904 151.511C34.5993 151.328 34.4648 151.201 34.2871 151.128C34.1139 151.05 33.8997 151.012 33.6445 151.012C33.3802 151.012 33.1501 151.064 32.9541 151.169C32.7627 151.274 32.6032 151.42 32.4756 151.606C32.3525 151.789 32.2591 152.003 32.1953 152.249C32.1315 152.495 32.0996 152.759 32.0996 153.042ZM40.3848 149.604V157H38.4092V149.604H40.3848ZM38.2861 147.676C38.2861 147.389 38.3864 147.152 38.5869 146.965C38.7874 146.778 39.0563 146.685 39.3936 146.685C39.7262 146.685 39.9928 146.778 40.1934 146.965C40.3984 147.152 40.501 147.389 40.501 147.676C40.501 147.963 40.3984 148.2 40.1934 148.387C39.9928 148.574 39.7262 148.667 39.3936 148.667C39.0563 148.667 38.7874 148.574 38.5869 148.387C38.3864 148.2 38.2861 147.963 38.2861 147.676ZM45.6348 149.604V150.998H41.3281V149.604H45.6348ZM42.3945 147.778H44.3633V154.771C44.3633 154.986 44.3906 155.15 44.4453 155.264C44.5046 155.378 44.5911 155.457 44.7051 155.503C44.819 155.544 44.9626 155.564 45.1357 155.564C45.2588 155.564 45.3682 155.56 45.4639 155.551C45.5641 155.537 45.6484 155.523 45.7168 155.51L45.7236 156.959C45.555 157.014 45.3727 157.057 45.1768 157.089C44.9808 157.121 44.7643 157.137 44.5273 157.137C44.0944 157.137 43.7161 157.066 43.3926 156.925C43.0736 156.779 42.8275 156.547 42.6543 156.228C42.4811 155.909 42.3945 155.489 42.3945 154.97V147.778ZM50.1602 157.137C49.5859 157.137 49.071 157.046 48.6152 156.863C48.1595 156.676 47.7721 156.419 47.4531 156.091C47.1387 155.763 46.8971 155.382 46.7285 154.949C46.5599 154.512 46.4756 154.047 46.4756 153.555V153.281C46.4756 152.721 46.5553 152.208 46.7148 151.743C46.8743 151.278 47.1022 150.875 47.3984 150.533C47.6992 150.191 48.0638 149.929 48.4922 149.747C48.9206 149.56 49.4036 149.467 49.9414 149.467C50.4655 149.467 50.9303 149.553 51.3359 149.727C51.7415 149.9 52.0811 150.146 52.3545 150.465C52.6325 150.784 52.8421 151.167 52.9834 151.613C53.1247 152.055 53.1953 152.548 53.1953 153.09V153.91H47.3164V152.598H51.2607V152.447C51.2607 152.174 51.2106 151.93 51.1104 151.716C51.0146 151.497 50.8688 151.324 50.6729 151.196C50.4769 151.069 50.2262 151.005 49.9209 151.005C49.6611 151.005 49.4378 151.062 49.251 151.176C49.0641 151.29 48.9115 151.449 48.793 151.654C48.679 151.859 48.5924 152.101 48.5332 152.379C48.4785 152.652 48.4512 152.953 48.4512 153.281V153.555C48.4512 153.851 48.4922 154.124 48.5742 154.375C48.6608 154.626 48.7816 154.842 48.9365 155.024C49.096 155.207 49.2874 155.348 49.5107 155.448C49.7386 155.549 49.9961 155.599 50.2832 155.599C50.6387 155.599 50.9691 155.53 51.2744 155.394C51.5843 155.252 51.8509 155.04 52.0742 154.758L53.0312 155.797C52.8763 156.02 52.6644 156.234 52.3955 156.439C52.1312 156.645 51.8122 156.813 51.4385 156.945C51.0648 157.073 50.6387 157.137 50.1602 157.137ZM58.6846 155.387V146.5H60.667V157H58.8828L58.6846 155.387ZM54.0088 153.391V153.247C54.0088 152.682 54.0726 152.169 54.2002 151.709C54.3278 151.244 54.5146 150.845 54.7607 150.513C55.0068 150.18 55.3099 149.923 55.6699 149.74C56.0299 149.558 56.4401 149.467 56.9004 149.467C57.3333 149.467 57.7116 149.558 58.0352 149.74C58.3633 149.923 58.6413 150.182 58.8691 150.52C59.1016 150.852 59.2884 151.246 59.4297 151.702C59.571 152.153 59.6735 152.648 59.7373 153.186V153.5C59.6735 154.015 59.571 154.493 59.4297 154.936C59.2884 155.378 59.1016 155.765 58.8691 156.098C58.6413 156.426 58.3633 156.681 58.0352 156.863C57.707 157.046 57.3242 157.137 56.8867 157.137C56.4264 157.137 56.0163 157.043 55.6562 156.856C55.3008 156.67 55 156.408 54.7539 156.07C54.5124 155.733 54.3278 155.337 54.2002 154.881C54.0726 154.425 54.0088 153.928 54.0088 153.391ZM55.9775 153.247V153.391C55.9775 153.696 56.0003 153.981 56.0459 154.245C56.096 154.509 56.1758 154.744 56.2852 154.949C56.3991 155.15 56.5449 155.307 56.7227 155.421C56.9049 155.53 57.126 155.585 57.3857 155.585C57.723 155.585 58.001 155.51 58.2197 155.359C58.4385 155.204 58.6048 154.993 58.7188 154.724C58.8372 154.455 58.9056 154.145 58.9238 153.794V152.898C58.9102 152.611 58.8691 152.354 58.8008 152.126C58.737 151.894 58.6413 151.695 58.5137 151.531C58.3906 151.367 58.2357 151.24 58.0488 151.148C57.8665 151.057 57.6501 151.012 57.3994 151.012C57.1442 151.012 56.9255 151.071 56.7432 151.189C56.5609 151.303 56.4128 151.461 56.2988 151.661C56.1895 151.862 56.1074 152.099 56.0527 152.372C56.0026 152.641 55.9775 152.933 55.9775 153.247ZM70.9961 154.396C70.9961 154.218 70.9688 154.058 70.9141 153.917C70.8639 153.771 70.7682 153.639 70.627 153.521C70.4857 153.397 70.2874 153.277 70.0322 153.158C69.777 153.04 69.4466 152.917 69.041 152.789C68.5898 152.643 68.1615 152.479 67.7559 152.297C67.3548 152.115 66.9993 151.903 66.6895 151.661C66.3841 151.415 66.1426 151.13 65.9648 150.807C65.7917 150.483 65.7051 150.107 65.7051 149.679C65.7051 149.264 65.7962 148.888 65.9785 148.551C66.1608 148.209 66.416 147.917 66.7441 147.676C67.0723 147.43 67.4596 147.241 67.9062 147.108C68.3574 146.976 68.8519 146.91 69.3896 146.91C70.1234 146.91 70.7637 147.042 71.3105 147.307C71.8574 147.571 72.2812 147.933 72.582 148.394C72.8874 148.854 73.04 149.38 73.04 149.973H71.0029C71.0029 149.681 70.9414 149.426 70.8184 149.207C70.6999 148.984 70.5176 148.808 70.2715 148.681C70.0299 148.553 69.7246 148.489 69.3555 148.489C69 148.489 68.7038 148.544 68.4668 148.653C68.2298 148.758 68.0521 148.902 67.9336 149.084C67.8151 149.262 67.7559 149.462 67.7559 149.686C67.7559 149.854 67.7969 150.007 67.8789 150.144C67.9655 150.28 68.0931 150.408 68.2617 150.526C68.4303 150.645 68.6377 150.757 68.8838 150.861C69.1299 150.966 69.4147 151.069 69.7383 151.169C70.2806 151.333 70.7568 151.518 71.167 151.723C71.5817 151.928 71.9281 152.158 72.2061 152.413C72.484 152.668 72.6937 152.958 72.835 153.281C72.9762 153.605 73.0469 153.972 73.0469 154.382C73.0469 154.815 72.9626 155.202 72.7939 155.544C72.6253 155.886 72.3815 156.175 72.0625 156.412C71.7435 156.649 71.363 156.829 70.9209 156.952C70.4788 157.075 69.9844 157.137 69.4375 157.137C68.9453 157.137 68.46 157.073 67.9814 156.945C67.5029 156.813 67.0677 156.615 66.6758 156.351C66.2884 156.086 65.9785 155.749 65.7461 155.339C65.5137 154.929 65.3975 154.443 65.3975 153.883H67.4551C67.4551 154.193 67.5029 154.455 67.5986 154.669C67.6943 154.883 67.8288 155.056 68.002 155.188C68.1797 155.321 68.3893 155.416 68.6309 155.476C68.877 155.535 69.1458 155.564 69.4375 155.564C69.793 155.564 70.0846 155.514 70.3125 155.414C70.5449 155.314 70.7158 155.175 70.8252 154.997C70.9391 154.819 70.9961 154.619 70.9961 154.396ZM77.9414 149.604V150.998H73.6348V149.604H77.9414ZM74.7012 147.778H76.6699V154.771C76.6699 154.986 76.6973 155.15 76.752 155.264C76.8112 155.378 76.8978 155.457 77.0117 155.503C77.1257 155.544 77.2692 155.564 77.4424 155.564C77.5654 155.564 77.6748 155.56 77.7705 155.551C77.8708 155.537 77.9551 155.523 78.0234 155.51L78.0303 156.959C77.8617 157.014 77.6794 157.057 77.4834 157.089C77.2874 157.121 77.071 157.137 76.834 157.137C76.401 157.137 76.0228 157.066 75.6992 156.925C75.3802 156.779 75.1341 156.547 74.9609 156.228C74.7878 155.909 74.7012 155.489 74.7012 154.97V147.778ZM83.0547 155.332V152.037C83.0547 151.8 83.016 151.597 82.9385 151.429C82.861 151.256 82.7402 151.121 82.5762 151.025C82.4167 150.93 82.2093 150.882 81.9541 150.882C81.7354 150.882 81.5462 150.921 81.3867 150.998C81.2272 151.071 81.1042 151.178 81.0176 151.319C80.931 151.456 80.8877 151.618 80.8877 151.805H78.9189C78.9189 151.49 78.9919 151.192 79.1377 150.909C79.2835 150.627 79.4954 150.378 79.7734 150.164C80.0514 149.945 80.3818 149.774 80.7646 149.651C81.152 149.528 81.585 149.467 82.0635 149.467C82.6377 149.467 83.1481 149.562 83.5947 149.754C84.0413 149.945 84.3923 150.232 84.6475 150.615C84.9072 150.998 85.0371 151.477 85.0371 152.051V155.216C85.0371 155.621 85.0622 155.954 85.1123 156.214C85.1624 156.469 85.2354 156.692 85.3311 156.884V157H83.3418C83.2461 156.799 83.1732 156.549 83.123 156.248C83.0775 155.943 83.0547 155.637 83.0547 155.332ZM83.3145 152.495L83.3281 153.609H82.2275C81.9678 153.609 81.7422 153.639 81.5508 153.698C81.3594 153.757 81.2021 153.842 81.0791 153.951C80.9561 154.056 80.8649 154.179 80.8057 154.32C80.751 154.462 80.7236 154.617 80.7236 154.785C80.7236 154.954 80.7624 155.106 80.8398 155.243C80.9173 155.375 81.029 155.48 81.1748 155.558C81.3206 155.631 81.4915 155.667 81.6875 155.667C81.9837 155.667 82.2412 155.608 82.46 155.489C82.6787 155.371 82.8473 155.225 82.9658 155.052C83.0889 154.879 83.1527 154.715 83.1572 154.56L83.6768 155.394C83.6038 155.58 83.5036 155.774 83.376 155.975C83.2529 156.175 83.0957 156.364 82.9043 156.542C82.7129 156.715 82.4827 156.859 82.2139 156.973C81.945 157.082 81.626 157.137 81.2568 157.137C80.7874 157.137 80.3613 157.043 79.9785 156.856C79.6003 156.665 79.2995 156.403 79.0762 156.07C78.8574 155.733 78.748 155.35 78.748 154.922C78.748 154.535 78.821 154.19 78.9668 153.89C79.1126 153.589 79.3268 153.336 79.6094 153.131C79.8965 152.921 80.2542 152.764 80.6826 152.659C81.111 152.55 81.6077 152.495 82.1729 152.495H83.3145ZM90.1777 149.604V150.998H85.8711V149.604H90.1777ZM86.9375 147.778H88.9062V154.771C88.9062 154.986 88.9336 155.15 88.9883 155.264C89.0475 155.378 89.1341 155.457 89.248 155.503C89.362 155.544 89.5055 155.564 89.6787 155.564C89.8018 155.564 89.9111 155.56 90.0068 155.551C90.1071 155.537 90.1914 155.523 90.2598 155.51L90.2666 156.959C90.098 157.014 89.9157 157.057 89.7197 157.089C89.5238 157.121 89.3073 157.137 89.0703 157.137C88.6374 157.137 88.2591 157.066 87.9355 156.925C87.6165 156.779 87.3704 156.547 87.1973 156.228C87.0241 155.909 86.9375 155.489 86.9375 154.97V147.778ZM94.7031 157.137C94.1289 157.137 93.6139 157.046 93.1582 156.863C92.7025 156.676 92.3151 156.419 91.9961 156.091C91.6816 155.763 91.4401 155.382 91.2715 154.949C91.1029 154.512 91.0186 154.047 91.0186 153.555V153.281C91.0186 152.721 91.0983 152.208 91.2578 151.743C91.4173 151.278 91.6452 150.875 91.9414 150.533C92.2422 150.191 92.6068 149.929 93.0352 149.747C93.4635 149.56 93.9466 149.467 94.4844 149.467C95.0085 149.467 95.4733 149.553 95.8789 149.727C96.2845 149.9 96.624 150.146 96.8975 150.465C97.1755 150.784 97.3851 151.167 97.5264 151.613C97.6676 152.055 97.7383 152.548 97.7383 153.09V153.91H91.8594V152.598H95.8037V152.447C95.8037 152.174 95.7536 151.93 95.6533 151.716C95.5576 151.497 95.4118 151.324 95.2158 151.196C95.0199 151.069 94.7692 151.005 94.4639 151.005C94.2041 151.005 93.9808 151.062 93.7939 151.176C93.6071 151.29 93.4544 151.449 93.3359 151.654C93.222 151.859 93.1354 152.101 93.0762 152.379C93.0215 152.652 92.9941 152.953 92.9941 153.281V153.555C92.9941 153.851 93.0352 154.124 93.1172 154.375C93.2038 154.626 93.3245 154.842 93.4795 155.024C93.639 155.207 93.8304 155.348 94.0537 155.448C94.2816 155.549 94.5391 155.599 94.8262 155.599C95.1816 155.599 95.512 155.53 95.8174 155.394C96.1273 155.252 96.3939 155.04 96.6172 154.758L97.5742 155.797C97.4193 156.02 97.2074 156.234 96.9385 156.439C96.6742 156.645 96.3551 156.813 95.9814 156.945C95.6077 157.073 95.1816 157.137 94.7031 157.137ZM102.858 154.956C102.858 154.815 102.817 154.687 102.735 154.573C102.653 154.459 102.501 154.354 102.277 154.259C102.059 154.159 101.742 154.067 101.327 153.985C100.953 153.903 100.605 153.801 100.281 153.678C99.9622 153.55 99.6842 153.397 99.4473 153.22C99.2148 153.042 99.0326 152.832 98.9004 152.591C98.7682 152.345 98.7021 152.064 98.7021 151.75C98.7021 151.44 98.7682 151.148 98.9004 150.875C99.0371 150.602 99.2308 150.36 99.4814 150.15C99.7367 149.936 100.047 149.77 100.411 149.651C100.78 149.528 101.195 149.467 101.655 149.467C102.298 149.467 102.849 149.569 103.31 149.774C103.774 149.979 104.13 150.262 104.376 150.622C104.627 150.978 104.752 151.383 104.752 151.839H102.783C102.783 151.647 102.742 151.477 102.66 151.326C102.583 151.171 102.46 151.05 102.291 150.964C102.127 150.873 101.913 150.827 101.648 150.827C101.43 150.827 101.241 150.866 101.081 150.943C100.922 151.016 100.799 151.117 100.712 151.244C100.63 151.367 100.589 151.504 100.589 151.654C100.589 151.768 100.612 151.871 100.657 151.962C100.707 152.049 100.787 152.128 100.896 152.201C101.006 152.274 101.147 152.342 101.32 152.406C101.498 152.465 101.717 152.52 101.977 152.57C102.51 152.68 102.986 152.823 103.405 153.001C103.825 153.174 104.157 153.411 104.403 153.712C104.649 154.008 104.772 154.398 104.772 154.881C104.772 155.209 104.7 155.51 104.554 155.783C104.408 156.057 104.198 156.296 103.925 156.501C103.651 156.701 103.323 156.859 102.94 156.973C102.562 157.082 102.136 157.137 101.662 157.137C100.974 157.137 100.391 157.014 99.9121 156.768C99.4382 156.521 99.0781 156.209 98.832 155.831C98.5905 155.448 98.4697 155.056 98.4697 154.655H100.336C100.345 154.924 100.413 155.141 100.541 155.305C100.673 155.469 100.84 155.587 101.04 155.66C101.245 155.733 101.466 155.77 101.703 155.77C101.958 155.77 102.17 155.735 102.339 155.667C102.507 155.594 102.635 155.498 102.722 155.38C102.813 155.257 102.858 155.116 102.858 154.956ZM112.716 157H110.549L110.562 155.4H112.716C113.254 155.4 113.707 155.28 114.076 155.038C114.445 154.792 114.723 154.434 114.91 153.965C115.102 153.495 115.197 152.928 115.197 152.263V151.777C115.197 151.267 115.143 150.818 115.033 150.431C114.928 150.043 114.771 149.717 114.562 149.453C114.352 149.189 114.094 148.991 113.789 148.858C113.484 148.722 113.133 148.653 112.736 148.653H110.508V147.047H112.736C113.402 147.047 114.01 147.161 114.562 147.389C115.118 147.612 115.598 147.933 116.004 148.353C116.41 148.772 116.722 149.273 116.94 149.856C117.164 150.435 117.275 151.08 117.275 151.791V152.263C117.275 152.969 117.164 153.614 116.94 154.197C116.722 154.781 116.41 155.282 116.004 155.701C115.603 156.116 115.122 156.437 114.562 156.665C114.006 156.888 113.39 157 112.716 157ZM111.711 147.047V157H109.66V147.047H111.711ZM118.328 153.377V153.233C118.328 152.691 118.406 152.192 118.561 151.736C118.715 151.276 118.941 150.877 119.237 150.54C119.534 150.203 119.898 149.941 120.331 149.754C120.764 149.562 121.261 149.467 121.821 149.467C122.382 149.467 122.881 149.562 123.318 149.754C123.756 149.941 124.123 150.203 124.419 150.54C124.72 150.877 124.948 151.276 125.103 151.736C125.257 152.192 125.335 152.691 125.335 153.233V153.377C125.335 153.915 125.257 154.414 125.103 154.874C124.948 155.33 124.72 155.729 124.419 156.07C124.123 156.408 123.758 156.67 123.325 156.856C122.892 157.043 122.396 157.137 121.835 157.137C121.274 157.137 120.775 157.043 120.338 156.856C119.905 156.67 119.538 156.408 119.237 156.07C118.941 155.729 118.715 155.33 118.561 154.874C118.406 154.414 118.328 153.915 118.328 153.377ZM120.297 153.233V153.377C120.297 153.687 120.324 153.976 120.379 154.245C120.434 154.514 120.52 154.751 120.639 154.956C120.762 155.157 120.921 155.314 121.117 155.428C121.313 155.542 121.552 155.599 121.835 155.599C122.108 155.599 122.343 155.542 122.539 155.428C122.735 155.314 122.892 155.157 123.011 154.956C123.129 154.751 123.216 154.514 123.271 154.245C123.33 153.976 123.359 153.687 123.359 153.377V153.233C123.359 152.933 123.33 152.65 123.271 152.386C123.216 152.117 123.127 151.88 123.004 151.675C122.885 151.465 122.728 151.301 122.532 151.183C122.336 151.064 122.099 151.005 121.821 151.005C121.543 151.005 121.306 151.064 121.11 151.183C120.919 151.301 120.762 151.465 120.639 151.675C120.52 151.88 120.434 152.117 120.379 152.386C120.324 152.65 120.297 152.933 120.297 153.233ZM128.623 146.5V157H126.647V146.5H128.623ZM132.328 146.5V157H130.353V146.5H132.328ZM137.947 155.332V152.037C137.947 151.8 137.909 151.597 137.831 151.429C137.754 151.256 137.633 151.121 137.469 151.025C137.309 150.93 137.102 150.882 136.847 150.882C136.628 150.882 136.439 150.921 136.279 150.998C136.12 151.071 135.997 151.178 135.91 151.319C135.824 151.456 135.78 151.618 135.78 151.805H133.812C133.812 151.49 133.884 151.192 134.03 150.909C134.176 150.627 134.388 150.378 134.666 150.164C134.944 149.945 135.274 149.774 135.657 149.651C136.045 149.528 136.478 149.467 136.956 149.467C137.53 149.467 138.041 149.562 138.487 149.754C138.934 149.945 139.285 150.232 139.54 150.615C139.8 150.998 139.93 151.477 139.93 152.051V155.216C139.93 155.621 139.955 155.954 140.005 156.214C140.055 156.469 140.128 156.692 140.224 156.884V157H138.234C138.139 156.799 138.066 156.549 138.016 156.248C137.97 155.943 137.947 155.637 137.947 155.332ZM138.207 152.495L138.221 153.609H137.12C136.86 153.609 136.635 153.639 136.443 153.698C136.252 153.757 136.095 153.842 135.972 153.951C135.849 154.056 135.757 154.179 135.698 154.32C135.644 154.462 135.616 154.617 135.616 154.785C135.616 154.954 135.655 155.106 135.732 155.243C135.81 155.375 135.922 155.48 136.067 155.558C136.213 155.631 136.384 155.667 136.58 155.667C136.876 155.667 137.134 155.608 137.353 155.489C137.571 155.371 137.74 155.225 137.858 155.052C137.981 154.879 138.045 154.715 138.05 154.56L138.569 155.394C138.496 155.58 138.396 155.774 138.269 155.975C138.146 156.175 137.988 156.364 137.797 156.542C137.605 156.715 137.375 156.859 137.106 156.973C136.838 157.082 136.519 157.137 136.149 157.137C135.68 157.137 135.254 157.043 134.871 156.856C134.493 156.665 134.192 156.403 133.969 156.07C133.75 155.733 133.641 155.35 133.641 154.922C133.641 154.535 133.714 154.19 133.859 153.89C134.005 153.589 134.219 153.336 134.502 153.131C134.789 152.921 135.147 152.764 135.575 152.659C136.004 152.55 136.5 152.495 137.065 152.495H138.207ZM143.416 151.217V157H141.447V149.604H143.3L143.416 151.217ZM145.645 149.556L145.61 151.381C145.515 151.367 145.398 151.356 145.262 151.347C145.13 151.333 145.009 151.326 144.899 151.326C144.621 151.326 144.38 151.363 144.175 151.436C143.974 151.504 143.806 151.606 143.669 151.743C143.537 151.88 143.437 152.046 143.368 152.242C143.304 152.438 143.268 152.661 143.259 152.912L142.862 152.789C142.862 152.311 142.91 151.871 143.006 151.47C143.102 151.064 143.241 150.711 143.423 150.41C143.61 150.109 143.838 149.877 144.106 149.713C144.375 149.549 144.683 149.467 145.029 149.467C145.139 149.467 145.25 149.476 145.364 149.494C145.478 149.508 145.572 149.528 145.645 149.556ZM150.573 154.956C150.573 154.815 150.532 154.687 150.45 154.573C150.368 154.459 150.215 154.354 149.992 154.259C149.773 154.159 149.457 154.067 149.042 153.985C148.668 153.903 148.32 153.801 147.996 153.678C147.677 153.55 147.399 153.397 147.162 153.22C146.93 153.042 146.747 152.832 146.615 152.591C146.483 152.345 146.417 152.064 146.417 151.75C146.417 151.44 146.483 151.148 146.615 150.875C146.752 150.602 146.946 150.36 147.196 150.15C147.451 149.936 147.761 149.77 148.126 149.651C148.495 149.528 148.91 149.467 149.37 149.467C150.013 149.467 150.564 149.569 151.024 149.774C151.489 149.979 151.845 150.262 152.091 150.622C152.341 150.978 152.467 151.383 152.467 151.839H150.498C150.498 151.647 150.457 151.477 150.375 151.326C150.298 151.171 150.174 151.05 150.006 150.964C149.842 150.873 149.628 150.827 149.363 150.827C149.145 150.827 148.955 150.866 148.796 150.943C148.636 151.016 148.513 151.117 148.427 151.244C148.345 151.367 148.304 151.504 148.304 151.654C148.304 151.768 148.326 151.871 148.372 151.962C148.422 152.049 148.502 152.128 148.611 152.201C148.721 152.274 148.862 152.342 149.035 152.406C149.213 152.465 149.432 152.52 149.691 152.57C150.225 152.68 150.701 152.823 151.12 153.001C151.539 153.174 151.872 153.411 152.118 153.712C152.364 154.008 152.487 154.398 152.487 154.881C152.487 155.209 152.414 155.51 152.269 155.783C152.123 156.057 151.913 156.296 151.64 156.501C151.366 156.701 151.038 156.859 150.655 156.973C150.277 157.082 149.851 157.137 149.377 157.137C148.689 157.137 148.105 157.014 147.627 156.768C147.153 156.521 146.793 156.209 146.547 155.831C146.305 155.448 146.185 155.056 146.185 154.655H148.051C148.06 154.924 148.128 155.141 148.256 155.305C148.388 155.469 148.554 155.587 148.755 155.66C148.96 155.733 149.181 155.77 149.418 155.77C149.673 155.77 149.885 155.735 150.054 155.667C150.222 155.594 150.35 155.498 150.437 155.38C150.528 155.257 150.573 155.116 150.573 154.956Z" fill="white"/>
<g clip-path="url(#clip0_38_4530)">
<path d="M36 53C44.8366 53 52 45.8366 52 37C52 28.1634 44.8366 21 36 21C27.1634 21 20 28.1634 20 37C20 45.8366 27.1634 53 36 53Z" fill="white"/>
<g clip-path="url(#clip1_38_4530)">
<path d="M51.999 36.9995C51.999 41.2731 50.3348 45.291 47.3129 48.3129C44.291 51.3348 40.2731 52.999 35.9995 52.999C31.7259 52.999 27.708 51.3348 24.6861 48.3129C21.6642 45.291 20 41.2731 20 36.9995C20 32.7259 21.6642 28.708 24.6861 25.6861C27.708 22.6642 31.7259 21 35.9995 21C40.2731 21 44.291 22.6642 47.3129 25.6861C50.3348 28.708 51.999 32.7259 51.999 36.9995Z" fill="#EFEFEF"/>
<path d="M27.7554 23.4779H27.4378C27.5703 23.3937 27.7039 23.3118 27.8386 23.2316L27.7554 23.4779ZM36.0001 21V36.8905L20.001 36.8987C20.019 33.9406 20.8359 31.1086 22.3477 28.6477L22.7965 28.9947L22.5709 29.6983C22.5466 29.7735 22.5731 29.8558 22.6367 29.9027C22.6367 29.9027 22.7415 29.9824 22.8515 29.906L23.4636 29.4807L24.0466 29.9037C24.1108 29.9505 24.1979 29.9507 24.2625 29.9044C24.327 29.8579 24.3545 29.7755 24.3308 29.6995L24.1141 29.0061L24.7059 28.5535C24.7687 28.5056 24.7938 28.4227 24.7685 28.348C24.7431 28.2731 24.6729 28.2227 24.5939 28.2227H23.8758L23.6339 27.5582C23.6075 27.4852 23.538 27.4424 23.4609 27.4369C23.3269 27.4274 23.2862 27.5622 23.2862 27.5622L23.063 28.2228H22.6181C23.2134 27.3193 23.9041 26.4693 24.6868 25.6865C25.384 24.9894 26.1347 24.3655 26.9287 23.8165L27.489 24.2497L27.2631 24.9536C27.2389 25.0286 27.2656 25.1109 27.329 25.158C27.329 25.158 27.4355 25.2362 27.5438 25.161L28.1559 24.7358L28.7389 25.1587C28.8033 25.2055 28.8903 25.2057 28.9548 25.1595C29.0192 25.113 29.0469 25.0305 29.0232 24.9547L28.8065 24.2612L29.3983 23.8085C29.4609 23.7606 29.4862 23.6779 29.4609 23.6031C29.4355 23.5283 29.3653 23.4778 29.2862 23.4778H28.5682L28.3689 22.93C30.6841 21.67 33.2905 21 36.0001 21ZM24.7684 33.0646C24.743 32.9896 24.6728 32.9393 24.5938 32.9393H23.8758L23.6339 32.2747C23.6339 32.2747 23.6063 32.1534 23.4586 32.1534C23.3804 32.1534 23.3111 32.2046 23.2862 32.2788L23.063 32.9394H22.3379C22.2592 32.9394 22.1889 32.9896 22.1635 33.0643C22.138 33.1388 22.1629 33.2214 22.2253 33.2696L22.7965 33.7112L22.5709 34.415C22.5466 34.4903 22.5731 34.5724 22.6367 34.6194C22.6367 34.6194 22.7274 34.7088 22.8515 34.6226L23.4636 34.1972L24.0466 34.6204C24.1108 34.6672 24.1979 34.6674 24.2625 34.6211C24.327 34.5746 24.3545 34.4923 24.3308 34.4164L24.1141 33.7228L24.7059 33.2701C24.7685 33.222 24.7937 33.1394 24.7684 33.0646ZM29.4608 33.0646C29.4354 32.9896 29.3652 32.9393 29.2862 32.9393H28.5682L28.3263 32.2747C28.3263 32.2747 28.2795 32.1482 28.151 32.1534C28.0729 32.1566 28.0037 32.2046 27.9786 32.2788L27.7554 32.9394H27.0303C26.9515 32.9394 26.8812 32.9896 26.856 33.0643C26.8304 33.1388 26.8552 33.2214 26.9176 33.2696L27.4891 33.7112L27.2632 34.415C27.239 34.4903 27.2656 34.5724 27.3291 34.6194C27.3291 34.6194 27.4301 34.7017 27.5439 34.6226L28.156 34.1972L28.739 34.6204C28.8033 34.6672 28.8904 34.6674 28.9549 34.6211C29.0193 34.5746 29.0469 34.4923 29.0232 34.4164L28.8066 33.7228L29.3984 33.2701C29.4608 33.222 29.4861 33.1394 29.4608 33.0646ZM29.4608 28.348C29.4354 28.2732 29.3652 28.2228 29.2862 28.2228H28.5682L28.3263 27.5583C28.3263 27.5583 28.2865 27.437 28.151 27.437C28.0729 27.437 28.0037 27.4882 27.9786 27.5623L27.7554 28.2229H27.0303C26.9515 28.2229 26.8812 28.273 26.856 28.3478C26.8304 28.4223 26.8552 28.5048 26.9176 28.5531L27.4891 28.9948L27.2632 29.6984C27.239 29.7736 27.2656 29.8559 27.3291 29.9028C27.3291 29.9028 27.4255 29.9883 27.5439 29.9061L28.156 29.4807L28.739 29.9038C28.8033 29.9505 28.8904 29.9507 28.9549 29.9044C29.0193 29.858 29.0469 29.7755 29.0232 29.6996L28.8066 29.0062L29.3984 28.5535C29.4608 28.5057 29.4861 28.4228 29.4608 28.348ZM34.1533 33.0646C34.1278 32.9896 34.0576 32.9393 33.9786 32.9393H33.2605L33.0188 32.2747C32.9924 32.2018 32.923 32.1554 32.8455 32.1534C32.7044 32.1498 32.6711 32.2788 32.6711 32.2788L32.4478 32.9394H31.7228C31.6439 32.9394 31.5738 32.9896 31.5483 33.0643C31.5228 33.1388 31.5476 33.2214 31.61 33.2696L32.1815 33.7112L31.9555 34.415C31.9315 34.4903 31.9579 34.5724 32.0214 34.6194C32.0214 34.6194 32.1276 34.6981 32.2362 34.6226L32.8484 34.1972L33.4313 34.6204C33.4956 34.6672 33.5827 34.6674 33.6473 34.6211C33.7118 34.5746 33.7394 34.4923 33.7157 34.4164L33.499 33.7228L34.0908 33.2701C34.1534 33.222 34.1785 33.1394 34.1533 33.0646ZM34.1533 28.348C34.1278 28.2732 34.0576 28.2228 33.9786 28.2228H33.2605L33.0188 27.5583C32.9924 27.4853 32.923 27.4348 32.8455 27.437C32.7001 27.4411 32.6711 27.5623 32.6711 27.5623L32.4478 28.2229H31.7228C31.6439 28.2229 31.5738 28.273 31.5483 28.3478C31.5228 28.4223 31.5476 28.5048 31.61 28.5531L32.1815 28.9948L31.9555 29.6984C31.9315 29.7736 31.9579 29.8559 32.0214 29.9028C32.0214 29.9028 32.1179 29.9883 32.2362 29.9061L32.8484 29.4807L33.4313 29.9038C33.4956 29.9505 33.5827 29.9507 33.6473 29.9044C33.7118 29.858 33.7394 29.7755 33.7157 29.6996L33.499 29.0062L34.0908 28.5535C34.1534 28.5057 34.1785 28.4228 34.1533 28.348ZM34.1533 23.6031C34.1278 23.5283 34.0576 23.4778 33.9786 23.4778H33.2605L33.0188 22.8133C33.0188 22.8133 32.9747 22.6849 32.8434 22.6919C32.7653 22.6961 32.6961 22.7431 32.6711 22.8173L32.4478 23.4779L31.7228 23.4778C31.6439 23.4779 31.5738 23.5281 31.5483 23.6026C31.5228 23.6774 31.5476 23.7599 31.61 23.8079L32.1815 24.2497L31.9555 24.9536C31.9315 25.0286 31.9569 25.1124 32.0214 25.158C32.1356 25.2385 32.2362 25.161 32.2362 25.161L32.8484 24.7358L33.4313 25.1587C33.4956 25.2055 33.5827 25.2057 33.6473 25.1595C33.7118 25.113 33.7394 25.0305 33.7157 24.9547L33.499 24.2612L34.0908 23.8085C34.1534 23.7607 34.1785 23.678 34.1533 23.6031Z" fill="#0152B7"/>
<path d="M51.9997 37.0002C51.9997 38.8005 51.7043 40.556 51.1359 42.211H20.8638C20.2954 40.556 20 38.8005 20 37.0002C20 36.9676 20 36.9343 20.0007 36.9017H51.999C51.9997 36.9343 51.9997 36.9676 51.9997 37.0002ZM23.945 47.5203C24.182 47.7912 24.4292 48.0561 24.6865 48.3135C27.7086 51.3355 31.7262 53 35.9998 53C40.2735 53 44.2911 51.3355 47.3131 48.3135C47.5705 48.0561 47.8177 47.7912 48.0547 47.5203H23.945ZM35.9998 31.5931H51.0666C50.3739 29.6563 49.3043 27.8627 47.8958 26.3008H35.9998V31.5931Z" fill="#D90028"/>
<path opacity="0.13" d="M51.9994 36.9996C51.9994 41.2732 50.3349 45.2908 47.3128 48.3129C44.2908 51.3349 40.2732 52.9994 35.9995 52.9994C32.7384 52.9994 29.6268 52.0303 26.9932 50.2287C29.696 51.4056 32.6773 51.8212 35.6715 51.4069C39.9662 50.8127 43.7719 48.5811 46.3886 45.1245C49.0045 41.6671 50.1182 37.3982 49.524 33.1042C49.0038 29.3508 47.2347 25.9708 44.4891 23.4316C45.5003 24.0666 46.4476 24.8211 47.3128 25.6863C50.3349 28.7083 51.9994 32.7259 51.9994 36.9996Z" fill="#160204"/>
<path opacity="0.25" d="M43.6052 22.9151C40.7563 22.0934 37.7275 22.054 34.7863 22.8316C30.499 23.9657 26.9106 26.7011 24.6804 30.534C22.4509 34.3676 21.8472 38.8396 22.9813 43.1268C23.6733 45.7441 24.9623 48.1006 26.7341 50.0476C26.0115 49.5328 25.3269 48.9535 24.6865 48.3131C21.6645 45.2911 20 41.2735 20 36.9998C20 32.7262 21.6645 28.7086 24.6865 25.6865C27.7086 22.6645 31.7262 21 35.9998 21C38.6993 21 41.2962 21.6642 43.6052 22.9151Z" fill="white"/>
</g>
</g>
<rect x="19" y="20" width="34" height="34" rx="17" stroke="white" stroke-width="2"/>
<path d="M230.593 46.7V45.22C229.82 45.1933 229.06 45.0867 228.313 44.9C227.566 44.7133 226.933 44.48 226.413 44.2L227.313 41.66C227.82 41.8733 228.346 42.0533 228.893 42.2C229.453 42.3467 230.02 42.4333 230.593 42.46V39.58C230.1 39.4333 229.6 39.2667 229.093 39.08C228.586 38.8933 228.12 38.6533 227.693 38.36C227.28 38.0533 226.94 37.6733 226.673 37.22C226.42 36.7667 226.293 36.2067 226.293 35.54C226.293 34.4467 226.673 33.5467 227.433 32.84C228.206 32.1333 229.26 31.68 230.593 31.48V29.54H232.293V31.38C233 31.3933 233.686 31.4933 234.353 31.68C235.02 31.8533 235.56 32.08 235.973 32.36L235.113 34.76C234.633 34.5333 234.16 34.3533 233.693 34.22C233.24 34.0867 232.773 34.0133 232.293 34V36.88C232.773 37.0267 233.26 37.2 233.753 37.4C234.246 37.6 234.7 37.8533 235.113 38.16C235.526 38.4533 235.86 38.8267 236.113 39.28C236.366 39.72 236.493 40.26 236.493 40.9C236.493 42.0867 236.12 43.04 235.373 43.76C234.64 44.48 233.613 44.9333 232.293 45.12V46.7H230.593ZM229.533 35.22C229.533 35.4733 229.626 35.6867 229.813 35.86C230.013 36.02 230.273 36.1667 230.593 36.3V34.16C229.886 34.3467 229.533 34.7 229.533 35.22ZM232.293 42.32C232.96 42.1067 233.293 41.7267 233.293 41.18C233.293 40.94 233.2 40.74 233.013 40.58C232.84 40.42 232.6 40.2733 232.293 40.14V42.32ZM237.194 41.5C237.194 40.1 238.094 39.0733 239.894 38.42C239.361 38.0733 238.907 37.6267 238.534 37.08C238.161 36.5333 237.974 35.8267 237.974 34.96C237.974 34.1333 238.187 33.42 238.614 32.82C239.054 32.22 239.647 31.76 240.394 31.44C241.141 31.1067 241.994 30.94 242.954 30.94C243.821 30.94 244.587 31.08 245.254 31.36C245.921 31.6267 246.441 32 246.814 32.48C247.201 32.96 247.394 33.52 247.394 34.16C247.394 34.8133 247.234 35.3667 246.914 35.82C246.594 36.26 246.081 36.6333 245.374 36.94C245.894 37.18 246.374 37.4733 246.814 37.82C247.267 38.1533 247.627 38.5667 247.894 39.06C248.174 39.5533 248.314 40.16 248.314 40.88C248.314 41.7867 248.061 42.5733 247.554 43.24C247.047 43.8933 246.374 44.3933 245.534 44.74C244.707 45.0867 243.787 45.26 242.774 45.26C241.654 45.26 240.674 45.1067 239.834 44.8C239.007 44.4933 238.361 44.06 237.894 43.5C237.427 42.94 237.194 42.2733 237.194 41.5ZM241.234 34.32C241.234 34.7733 241.461 35.14 241.914 35.42C242.381 35.6867 242.941 35.9467 243.594 36.2C244.034 35.8 244.254 35.2933 244.254 34.68C244.254 33.68 243.747 33.18 242.734 33.18C242.267 33.18 241.901 33.2867 241.634 33.5C241.367 33.7133 241.234 33.9867 241.234 34.32ZM240.994 40.88C240.994 41.4 241.154 41.8267 241.474 42.16C241.794 42.48 242.234 42.64 242.794 42.64C243.354 42.64 243.794 42.5133 244.114 42.26C244.434 41.9933 244.594 41.64 244.594 41.2C244.594 40.8133 244.367 40.4867 243.914 40.22C243.474 39.9533 242.721 39.64 241.654 39.28C241.214 39.76 240.994 40.2933 240.994 40.88ZM248.926 35.74C248.926 34.8067 249.139 33.98 249.566 33.26C250.006 32.54 250.626 31.9733 251.426 31.56C252.226 31.1467 253.173 30.94 254.266 30.94C255.559 30.94 256.633 31.2133 257.486 31.76C258.353 32.3067 258.999 33.0667 259.426 34.04C259.866 35 260.086 36.1267 260.086 37.42C260.086 38.9267 259.793 40.2667 259.206 41.44C258.633 42.6 257.826 43.5067 256.786 44.16C255.746 44.8133 254.533 45.14 253.146 45.14C252.439 45.14 251.779 45.0667 251.166 44.92C250.553 44.76 250.006 44.5067 249.526 44.16L250.346 41.28C250.733 41.4933 251.133 41.66 251.546 41.78C251.959 41.8867 252.373 41.94 252.786 41.94C253.759 41.94 254.526 41.6067 255.086 40.94C255.659 40.26 255.993 39.3267 256.086 38.14C255.753 38.7533 255.299 39.2 254.726 39.48C254.166 39.76 253.633 39.9 253.126 39.9C252.273 39.9 251.526 39.7267 250.886 39.38C250.259 39.0333 249.773 38.5467 249.426 37.92C249.093 37.2933 248.926 36.5667 248.926 35.74ZM252.546 35.48C252.546 35.9333 252.699 36.3 253.006 36.58C253.326 36.8467 253.739 36.98 254.246 36.98C254.566 36.98 254.886 36.94 255.206 36.86C255.526 36.7667 255.819 36.6333 256.086 36.46C255.939 34.7 255.326 33.82 254.246 33.82C253.726 33.82 253.313 33.9733 253.006 34.28C252.699 34.5867 252.546 34.9867 252.546 35.48ZM267.402 45.16C266.188 45.16 265.108 44.86 264.162 44.26C263.215 43.6467 262.468 42.8067 261.922 41.74C261.388 40.66 261.122 39.4267 261.122 38.04C261.122 36.6667 261.388 35.4467 261.922 34.38C262.468 33.3133 263.215 32.4733 264.162 31.86C265.108 31.2467 266.188 30.94 267.402 30.94C268.308 30.94 269.142 31.12 269.902 31.48C270.662 31.8267 271.322 32.32 271.882 32.96C272.442 33.5867 272.875 34.3333 273.182 35.2C273.502 36.0667 273.662 37.0133 273.662 38.04C273.662 39.4133 273.388 40.64 272.842 41.72C272.308 42.7867 271.568 43.6267 270.622 44.24C269.688 44.8533 268.615 45.16 267.402 45.16ZM267.402 41.74C268.068 41.74 268.588 41.4133 268.962 40.76C269.348 40.1067 269.542 39.2 269.542 38.04C269.542 36.9067 269.348 36.0133 268.962 35.36C268.588 34.6933 268.068 34.36 267.402 34.36C266.722 34.36 266.188 34.6867 265.802 35.34C265.428 35.9933 265.242 36.8933 265.242 38.04C265.242 39.1733 265.435 40.0733 265.822 40.74C266.222 41.4067 266.748 41.74 267.402 41.74ZM276.645 45.12C275.912 45.12 275.352 44.9267 274.965 44.54C274.578 44.14 274.385 43.6533 274.385 43.08C274.385 42.4933 274.592 42.0133 275.005 41.64C275.418 41.2533 275.965 41.06 276.645 41.06C277.325 41.06 277.865 41.26 278.265 41.66C278.678 42.06 278.885 42.5333 278.885 43.08C278.885 43.6933 278.692 44.1867 278.305 44.56C277.932 44.9333 277.378 45.12 276.645 45.12ZM284.128 45.26C283.515 45.26 282.895 45.1933 282.268 45.06C281.642 44.94 280.995 44.7333 280.328 44.44L280.968 41.38C281.408 41.5933 281.888 41.76 282.408 41.88C282.928 41.9867 283.415 42.04 283.868 42.04C284.588 42.04 285.115 41.9067 285.448 41.64C285.782 41.36 285.948 40.98 285.948 40.5C285.948 40.0733 285.815 39.74 285.548 39.5C285.282 39.26 284.935 39.14 284.508 39.14C283.802 39.14 283.175 39.4133 282.628 39.96L280.468 39.04L281.128 31.24H288.988L288.688 34.24H284.128L283.888 36.72C284.208 36.4667 284.555 36.2867 284.928 36.18C285.315 36.0733 285.682 36.02 286.028 36.02C286.935 36.02 287.668 36.2133 288.228 36.6C288.802 36.9867 289.222 37.4933 289.488 38.12C289.755 38.7467 289.888 39.42 289.888 40.14C289.888 41.3 289.648 42.26 289.168 43.02C288.688 43.78 288.015 44.3467 287.148 44.72C286.295 45.08 285.288 45.26 284.128 45.26ZM297.226 45.16C296.012 45.16 294.932 44.86 293.986 44.26C293.039 43.6467 292.292 42.8067 291.746 41.74C291.212 40.66 290.946 39.4267 290.946 38.04C290.946 36.6667 291.212 35.4467 291.746 34.38C292.292 33.3133 293.039 32.4733 293.986 31.86C294.932 31.2467 296.012 30.94 297.226 30.94C298.132 30.94 298.966 31.12 299.726 31.48C300.486 31.8267 301.146 32.32 301.706 32.96C302.266 33.5867 302.699 34.3333 303.006 35.2C303.326 36.0667 303.486 37.0133 303.486 38.04C303.486 39.4133 303.212 40.64 302.666 41.72C302.132 42.7867 301.392 43.6267 300.446 44.24C299.512 44.8533 298.439 45.16 297.226 45.16ZM297.226 41.74C297.892 41.74 298.412 41.4133 298.786 40.76C299.172 40.1067 299.366 39.2 299.366 38.04C299.366 36.9067 299.172 36.0133 298.786 35.36C298.412 34.6933 297.892 34.36 297.226 34.36C296.546 34.36 296.012 34.6867 295.626 35.34C295.252 35.9933 295.066 36.8933 295.066 38.04C295.066 39.1733 295.259 40.0733 295.646 40.74C296.046 41.4067 296.572 41.74 297.226 41.74Z" fill="white"/>
<path d="M73.54 45.32C72.2067 45.32 71.0333 45.08 70.02 44.6C69.0067 44.12 68.22 43.4333 67.66 42.54C67.1 41.6333 66.82 40.5533 66.82 39.3V31.24H71.26V39.1C71.26 39.9933 71.4733 40.6533 71.9 41.08C72.34 41.4933 72.9133 41.7 73.62 41.7C74.3667 41.7 74.9333 41.4867 75.32 41.06C75.72 40.6333 75.92 40.0467 75.92 39.3V31.24H80.42V39.3C80.42 40.4867 80.1267 41.5333 79.54 42.44C78.9533 43.3467 78.14 44.0533 77.1 44.56C76.0733 45.0667 74.8867 45.32 73.54 45.32ZM86.5344 45.32C85.6944 45.32 84.841 45.2133 83.9744 45C83.1077 44.8 82.3744 44.5267 81.7744 44.18L82.4944 40.92C83.2677 41.3333 83.9877 41.6067 84.6544 41.74C85.3344 41.86 85.961 41.92 86.5344 41.92C87.0677 41.92 87.4677 41.8333 87.7344 41.66C88.0144 41.4867 88.1544 41.2533 88.1544 40.96C88.1544 40.6933 88.001 40.4867 87.6944 40.34C87.3877 40.18 86.9877 40.0333 86.4944 39.9C86.0144 39.7667 85.501 39.6133 84.9544 39.44C84.4077 39.2533 83.8877 39.0133 83.3944 38.72C82.9144 38.4133 82.521 38.0133 82.2144 37.52C81.9077 37.0133 81.7544 36.38 81.7544 35.62C81.7544 34.66 81.9877 33.8333 82.4544 33.14C82.921 32.4333 83.5877 31.8933 84.4544 31.52C85.321 31.1333 86.341 30.94 87.5144 30.94C88.301 30.94 89.0677 31.0467 89.8144 31.26C90.5744 31.46 91.181 31.7333 91.6344 32.08L90.9544 35.02C90.2744 34.74 89.661 34.54 89.1144 34.42C88.581 34.2867 88.0744 34.22 87.5944 34.22C87.0344 34.22 86.6077 34.3 86.3144 34.46C86.021 34.62 85.8744 34.8333 85.8744 35.1C85.8744 35.3533 86.0277 35.56 86.3344 35.72C86.641 35.88 87.0344 36.0333 87.5144 36.18C87.9944 36.3267 88.5077 36.4933 89.0544 36.68C89.601 36.8667 90.1144 37.1133 90.5944 37.42C91.0744 37.7267 91.4677 38.1267 91.7744 38.62C92.081 39.1133 92.2344 39.7333 92.2344 40.48C92.2344 42.0267 91.7277 43.22 90.7144 44.06C89.7144 44.9 88.321 45.32 86.5344 45.32ZM93.6039 45V31.24H98.3839C100.384 31.24 102.011 31.5267 103.264 32.1C104.531 32.6733 105.457 33.4667 106.044 34.48C106.644 35.4933 106.944 36.6733 106.944 38.02C106.944 40.22 106.217 41.9333 104.764 43.16C103.324 44.3867 101.131 45 98.1839 45H93.6039ZM98.0239 41.5H99.3039C100.371 41.5 101.164 41.18 101.684 40.54C102.204 39.8867 102.464 39.0333 102.464 37.98C102.464 37.0067 102.211 36.2267 101.704 35.64C101.211 35.04 100.411 34.74 99.3039 34.74H98.0239V41.5Z" fill="white"/>
<defs>
<filter id="filter0_i_38_4530" x="0" y="0" width="328" height="180" filterUnits="userSpaceOnUse" color-interpolation-filters="sRGB">
<feFlood flood-opacity="0" result="BackgroundImageFix"/>
<feBlend mode="normal" in="SourceGraphic" in2="BackgroundImageFix" result="shape"/>
<feColorMatrix in="SourceAlpha" type="matrix" values="0 0 0 0 0 0 0 0 0 0 0 0 0 0 0 0 0 0 127 0" result="hardAlpha"/>
<feOffset dy="1"/>
<feComposite in2="hardAlpha" operator="arithmetic" k2="-1" k3="1"/>
<feColorMatrix type="matrix" values="0 0 0 0 1 0 0 0 0 1 0 0 0 0 1 0 0 0 0.504359 0"/>
<feBlend mode="normal" in2="shape" result="effect1_innerShadow_38_4530"/>
</filter>
<linearGradient id="paint0_linear_38_4530" x1="182.388" y1="-179" x2="7.88278" y2="256.444" gradientUnits="userSpaceOnUse">
<stop offset="0.359375" stop-color="#8E3BF9"/>
<stop offset="0.855027" stop-color="#00C5FF"/>
</linearGradient>
<clipPath id="clip0_38_4530">
<rect x="20" y="21" width="32" height="32" rx="16" fill="white"/>
</clipPath>
<clipPath id="clip1_38_4530">
<rect width="32" height="32" fill="white" transform="translate(20 21)"/>
</clipPath>
</defs>
</svg>
