<svg xmlns="http://www.w3.org/2000/svg" width="328" height="180" fill="none"><g filter="url(#a)"><rect width="328" height="180" fill="url(#b)" rx="10"/></g><path fill="#FF5F00" d="M293.725 138.566h-10.951v18.867h10.951z"/><path fill="#EB001B" d="M283.47 148c0-3.833 1.877-7.233 4.763-9.433a12.8 12.8 0 0 0-7.718-2.567c-6.918 0-12.515 5.367-12.515 12s5.597 12 12.515 12c2.92 0 5.597-.967 7.718-2.567-2.886-2.166-4.763-5.6-4.763-9.433"/><path fill="#F79E1B" d="M308.5 148c0 6.633-5.597 12-12.515 12-2.92 0-5.597-.967-7.717-2.567 2.92-2.2 4.762-5.6 4.762-9.433s-1.877-7.233-4.762-9.433a12.78 12.78 0 0 1 7.717-2.567c6.918 0 12.515 5.4 12.515 12"/><path fill="#fff" d="m23.773 153.992 1.976-6.945h.957l-.554 2.7L24.026 157h-.95zm-2.043-6.945 1.572 6.808.471 3.145h-.943l-2.413-9.953zm7.533 6.802 1.538-6.802h1.32L29.713 157h-.944zm-2.413-6.802 1.92 6.945.698 3.008h-.95l-2.051-7.253-.56-2.7zm9.392 10.09q-.772 0-1.401-.26a3.2 3.2 0 0 1-1.073-.745 3.3 3.3 0 0 1-.684-1.135 4.2 4.2 0 0 1-.24-1.435v-.288q0-.902.267-1.606.267-.711.725-1.203a3.1 3.1 0 0 1 1.039-.745 3 3 0 0 1 1.203-.253q.793 0 1.367.273a2.5 2.5 0 0 1 .95.766q.37.485.547 1.148.178.656.178 1.436v.567h-5.523v-1.032h4.258v-.096a3.2 3.2 0 0 0-.205-.957 1.7 1.7 0 0 0-.547-.765q-.375-.301-1.025-.301a1.72 1.72 0 0 0-1.415.718 2.7 2.7 0 0 0-.403.868 4.4 4.4 0 0 0-.144 1.182v.288q0 .525.144.991.15.458.43.806.288.35.69.547.411.198.93.198.67 0 1.135-.273t.814-.731l.765.608q-.24.363-.608.69-.37.328-.91.534-.532.204-1.264.205m8.661-2.099q0-.273-.123-.506-.116-.239-.485-.43-.362-.2-1.094-.342a9 9 0 0 1-1.114-.308 3.4 3.4 0 0 1-.84-.431 1.8 1.8 0 0 1-.527-.594 1.66 1.66 0 0 1-.185-.8q0-.437.192-.827.198-.39.553-.691.363-.3.868-.471a3.5 3.5 0 0 1 1.128-.171q.89 0 1.518.314.629.315.964.841.335.52.335 1.155h-1.265q0-.308-.184-.594a1.37 1.37 0 0 0-.527-.486q-.342-.19-.84-.191-.527 0-.855.164a1.1 1.1 0 0 0-.472.403 1.01 1.01 0 0 0-.075.889.8.8 0 0 0 .26.294q.184.129.52.246.334.116.854.232.909.205 1.497.493.588.287.875.704t.287 1.011q0 .486-.205.889a2 2 0 0 1-.581.697q-.376.288-.902.451a4 4 0 0 1-1.17.158q-.977 0-1.654-.349-.676-.348-1.025-.902a2.16 2.16 0 0 1-.349-1.169h1.272q.027.52.3.827.274.3.67.431.398.123.786.123.52 0 .869-.137.355-.137.54-.376a.87.87 0 0 0 .184-.547m6.023-5.434v.97h-4v-.97zm-2.646-1.798h1.265v7.362q0 .377.116.567a.55.55 0 0 0 .3.253q.186.062.397.062.158 0 .329-.028a8 8 0 0 0 .266-.054L50.96 157a3 3 0 0 1-.397.089q-.239.048-.58.048-.465 0-.855-.185a1.37 1.37 0 0 1-.622-.615q-.225-.438-.226-1.176zm11.478.123L56.463 157h-1.347l3.794-9.953h.868zM62.519 157l-3.301-9.071-.02-.882h.867L63.873 157zm-.17-3.685v1.081h-5.592v-1.081zM66.9 157h-1.264v-8.176q0-.8.287-1.346.294-.555.84-.834.547-.288 1.3-.288a3.6 3.6 0 0 1 .875.11l-.069 1.032a2 2 0 0 0-.328-.048 5 5 0 0 0-.356-.013q-.402 0-.697.164a1.02 1.02 0 0 0-.437.464q-.15.308-.15.759zm1.573-7.396v.97h-4.006v-.97zm2.672 1.162V157h-1.264v-7.396h1.23zm2.311-1.204-.007 1.176a2 2 0 0 0-.3-.041 3 3 0 0 0-.315-.013q-.438 0-.772.136a1.6 1.6 0 0 0-.568.383 1.8 1.8 0 0 0-.369.588 2.8 2.8 0 0 0-.17.738l-.356.205q0-.67.13-1.257.136-.589.416-1.039a2 2 0 0 1 .711-.711q.438-.26 1.04-.26.135 0 .314.034a1 1 0 0 1 .246.061m2.543.042V157h-1.272v-7.396zm-1.367-1.962q0-.308.184-.52.192-.212.56-.212.364 0 .555.212a.73.73 0 0 1 .198.52.7.7 0 0 1-.198.505q-.191.206-.554.206-.37 0-.56-.206a.74.74 0 0 1-.185-.505m6.357 8.456q.451 0 .834-.185a1.7 1.7 0 0 0 .63-.506q.245-.328.28-.745h1.203q-.034.656-.445 1.224a3.05 3.05 0 0 1-2.502 1.251q-.834 0-1.456-.294a2.9 2.9 0 0 1-1.025-.807 3.6 3.6 0 0 1-.609-1.176 5 5 0 0 1-.198-1.415v-.287q0-.745.198-1.408.206-.67.609-1.183.41-.512 1.025-.806.622-.294 1.456-.294.868 0 1.518.355.65.35 1.018.957.377.602.41 1.367h-1.203a1.8 1.8 0 0 0-.26-.827 1.6 1.6 0 0 0-.6-.588 1.7 1.7 0 0 0-.883-.225q-.58 0-.977.232-.39.226-.622.616-.225.383-.329.854-.095.465-.095.95v.287q0 .486.096.957.095.473.32.855.233.382.623.615.396.226.984.226m8.73-.363v-3.807q0-.438-.178-.759a1.17 1.17 0 0 0-.52-.506q-.349-.178-.86-.178-.48 0-.842.164-.355.165-.56.431a.94.94 0 0 0-.199.574h-1.264q0-.396.205-.786a2.3 2.3 0 0 1 .588-.704q.39-.321.93-.506a3.7 3.7 0 0 1 1.216-.191q.807 0 1.422.273.623.274.97.827.357.548.356 1.374v3.446q0 .369.062.786.068.417.198.718V157h-1.32a2.4 2.4 0 0 1-.15-.581 5 5 0 0 1-.054-.684m.219-3.219.013.888h-1.278q-.54 0-.964.089a2.2 2.2 0 0 0-.711.253 1.2 1.2 0 0 0-.437.431q-.15.253-.15.594 0 .35.156.636.157.287.472.458.321.165.786.164.582 0 1.026-.246t.704-.601q.266-.355.287-.691l.54.609a1.8 1.8 0 0 1-.26.635q-.211.35-.567.67-.349.315-.834.527a2.7 2.7 0 0 1-1.08.205q-.752 0-1.32-.294a2.26 2.26 0 0 1-.875-.786 2.1 2.1 0 0 1-.307-1.115q0-.594.232-1.046.232-.458.67-.758.438-.308 1.053-.465t1.374-.157zm4.3-1.333V157h-1.265v-7.396h1.196zm-.302 1.838-.526-.02q.007-.759.226-1.401.218-.65.615-1.128.396-.478.943-.739.554-.266 1.224-.266.547 0 .984.15.438.144.745.465.315.321.479.834.165.506.164 1.237V157h-1.272v-4.86q0-.582-.17-.93a1.05 1.05 0 0 0-.5-.513q-.327-.164-.806-.164-.473 0-.861.198a2.1 2.1 0 0 0-.663.547 2.8 2.8 0 0 0-.431.8q-.15.444-.15.943m16.448.814h1.312a4.2 4.2 0 0 1-.54 1.688 3.16 3.16 0 0 1-1.237 1.183q-.8.43-1.996.431-.875 0-1.593-.328a3.55 3.55 0 0 1-1.224-.93 4.4 4.4 0 0 1-.793-1.456 6.2 6.2 0 0 1-.273-1.901v-.991q0-1.046.273-1.893.28-.855.8-1.463a3.6 3.6 0 0 1 1.265-.937 4.1 4.1 0 0 1 1.661-.328q1.128 0 1.907.424t1.21 1.176q.438.745.54 1.729h-1.312a3.7 3.7 0 0 0-.356-1.196 1.85 1.85 0 0 0-.738-.779q-.478-.274-1.251-.274-.663 0-1.169.253a2.36 2.36 0 0 0-.841.718q-.335.465-.506 1.114-.17.65-.17 1.443v1.004q0 .732.15 1.374.157.643.472 1.128.314.486.799.766.486.273 1.149.273.84 0 1.34-.266a1.75 1.75 0 0 0 .752-.766q.26-.498.369-1.196m4.429-6.788V157h-1.319v-9.953zm4.17 4.477v1.08h-4.457v-1.08zm.677-4.477v1.08h-5.134v-1.08zm4.095.882L120.461 157h-1.347l3.794-9.953h.868zm2.762 9.071-3.302-9.071-.021-.882h.868l3.808 9.953zm-.171-3.685v1.081h-5.592v-1.081zm8.025 3.685h-1.265v-8.176q0-.8.288-1.346.293-.555.84-.834.548-.288 1.299-.288a3.6 3.6 0 0 1 .875.11l-.068 1.032a2 2 0 0 0-.328-.048 5 5 0 0 0-.356-.013 1.4 1.4 0 0 0-.697.164 1.03 1.03 0 0 0-.438.464q-.15.308-.15.759zm1.572-7.396v.97h-4.006v-.97zm2.673 1.162V157h-1.264v-7.396h1.23zm2.311-1.204-.007 1.176a2 2 0 0 0-.301-.041 3 3 0 0 0-.314-.013 2 2 0 0 0-.773.136 1.6 1.6 0 0 0-.567.383q-.232.246-.369.588a2.8 2.8 0 0 0-.171.738l-.356.205q0-.67.13-1.257.137-.589.417-1.039.28-.459.711-.711.438-.26 1.039-.26.137 0 .315.034.177.028.246.061m5.257 6.173v-3.807q0-.438-.178-.759a1.16 1.16 0 0 0-.52-.506q-.348-.178-.861-.178-.478 0-.841.164a1.46 1.46 0 0 0-.56.431.94.94 0 0 0-.199.574h-1.264q0-.396.205-.786t.588-.704a2.9 2.9 0 0 1 .929-.506 3.7 3.7 0 0 1 1.217-.191q.807 0 1.422.273.622.274.971.827.355.548.355 1.374v3.446q0 .369.062.786.067.417.198.718V157h-1.319a2.4 2.4 0 0 1-.151-.581 5 5 0 0 1-.054-.684m.218-3.219.014.888h-1.278q-.54 0-.964.089-.424.082-.711.253a1.2 1.2 0 0 0-.438.431q-.15.253-.15.594 0 .35.157.636t.472.458q.321.165.786.164.58 0 1.025-.246t.705-.601q.266-.355.287-.691l.54.609a1.8 1.8 0 0 1-.26.635 3.09 3.09 0 0 1-1.401 1.197q-.479.204-1.081.205-.752 0-1.319-.294a2.26 2.26 0 0 1-.875-.786 2.1 2.1 0 0 1-.308-1.115q0-.594.233-1.046.232-.458.67-.758.437-.308 1.053-.465t1.374-.157zm4.3-1.333V157h-1.265v-7.396h1.197zm-.301 1.838-.526-.02q.007-.759.226-1.401.218-.65.615-1.128t.943-.739a2.8 2.8 0 0 1 1.224-.266q.546 0 .984.15.438.144.745.465.315.321.479.834.164.506.164 1.237V157h-1.272v-4.86q0-.582-.171-.93a1.05 1.05 0 0 0-.499-.513q-.327-.164-.806-.164-.472 0-.862.198a2.1 2.1 0 0 0-.663.547 2.8 2.8 0 0 0-.43.8 2.9 2.9 0 0 0-.151.943m9.735 3.077q.45 0 .834-.185t.629-.506a1.4 1.4 0 0 0 .28-.745h1.203a2.26 2.26 0 0 1-.444 1.224 3.04 3.04 0 0 1-2.502 1.251q-.835 0-1.456-.294a2.9 2.9 0 0 1-1.026-.807 3.6 3.6 0 0 1-.608-1.176 5 5 0 0 1-.198-1.415v-.287q0-.745.198-1.408.205-.67.608-1.183.411-.512 1.026-.806.621-.294 1.456-.294.867 0 1.517.355.65.35 1.019.957.376.602.41 1.367h-1.203a1.8 1.8 0 0 0-.26-.827 1.687 1.687 0 0 0-1.483-.813q-.581 0-.978.232-.39.226-.622.616-.225.383-.328.854-.096.465-.096.95v.287q0 .486.096.957.096.473.321.855.233.382.622.615.397.226.985.226"/><g clip-path="url(#c)"><path fill="#fff" d="M36 54c8.837 0 16-7.163 16-16s-7.163-16-16-16-16 7.163-16 16 7.163 16 16 16"/><g clip-path="url(#d)"><path fill="#FFDA44" d="M42.957 23.588A15.9 15.9 0 0 0 36 22c-2.493 0-4.853.57-6.956 1.588L27.652 38l1.392 14.412A15.9 15.9 0 0 0 36 54c2.493 0 4.853-.57 6.957-1.588L44.348 38z"/><path fill="#496E2D" d="m36 32.434 1.381 4.25h4.47l-3.616 2.629 1.382 4.251L36 40.937l-3.617 2.627 1.382-4.251-3.617-2.628h4.47zM29.044 23.588C23.692 26.176 20 31.656 20 38c0 6.343 3.692 11.824 9.044 14.411z"/><path fill="#D80027" d="M42.956 23.588V52.41C48.308 49.824 52 44.344 52 38c0-6.344-3.692-11.824-9.044-14.412"/></g></g><rect width="34" height="34" x="19" y="21" stroke="#fff" stroke-width="2" rx="17"/><path fill="#fff" d="M188.301 45.32q-2.16 0-3.78-.86a6.34 6.34 0 0 1-2.5-2.46q-.88-1.58-.88-3.68 0-2.16.92-3.82a6.85 6.85 0 0 1 2.56-2.6q1.64-.96 3.76-.96 2.36 0 3.7.92l-.54 3.18a4.9 4.9 0 0 0-1.22-.4 5.4 5.4 0 0 0-1.18-.14q-1.64 0-2.58.98t-.94 2.72q0 1.64.9 2.58.92.92 2.54.92.64 0 1.16-.12.54-.12 1.32-.44l.56 3.16a7.4 7.4 0 0 1-3.8 1.02m5.237-.32V31.24h9.48v3.04h-5.18v2.78h4.8v2.68h-4.8V45zm9.331 0 3.8-13.76h6.48l3.98 13.76h-4.9l-.52-2.64h-3.56l-.58 2.64zm5.7-5.1h2.66l-1.3-6.02zm12.787-1.24q0-2.3.88-4.02.88-1.74 2.44-2.72t3.62-.98q2.18 0 3.62.98l-.82 2.88a6 6 0 0 0-1.24-.48 4.3 4.3 0 0 0-1.2-.18q-1.44 0-2.3 1-.84.98-1 2.8a3.36 3.36 0 0 1 1.24-1.28 3.3 3.3 0 0 1 1.72-.48q1.28 0 2.22.52a3.53 3.53 0 0 1 1.46 1.44q.52.94.52 2.2 0 1.42-.68 2.52-.66 1.08-1.86 1.68t-2.8.6q-2.74 0-4.28-1.7-1.54-1.72-1.54-4.78m4 .96q.22 2.64 1.84 2.64.76 0 1.22-.46.48-.46.48-1.2 0-.68-.46-1.08-.46-.42-1.24-.42-1.04 0-1.84.52m7.855-.96q0-2.3.88-4.02.88-1.74 2.44-2.72t3.62-.98q2.18 0 3.62.98l-.82 2.88a6 6 0 0 0-1.24-.48 4.3 4.3 0 0 0-1.2-.18q-1.44 0-2.3 1-.84.98-1 2.8.44-.8 1.24-1.28a3.3 3.3 0 0 1 1.72-.48q1.281 0 2.22.52a3.53 3.53 0 0 1 1.46 1.44q.52.94.52 2.2 0 1.42-.68 2.52-.66 1.08-1.86 1.68t-2.8.6q-2.74 0-4.28-1.7-1.54-1.72-1.54-4.78m4 .96q.22 2.64 1.84 2.64.76 0 1.22-.46.48-.46.48-1.2 0-.68-.46-1.08-.46-.42-1.24-.42-1.04 0-1.84.52m14.136 5.54q-1.82 0-3.24-.9-1.42-.92-2.24-2.52-.8-1.62-.8-3.7 0-2.06.8-3.66.82-1.6 2.24-2.52t3.24-.92q1.36 0 2.5.54 1.14.52 1.98 1.48a6.7 6.7 0 0 1 1.3 2.24q.48 1.3.48 2.84 0 2.06-.82 3.68-.8 1.6-2.22 2.52-1.4.92-3.22.92m0-3.42q1 0 1.56-.98.58-.98.58-2.72 0-1.7-.58-2.68-.56-1-1.56-1-1.02 0-1.6.98-.56.98-.56 2.7 0 1.7.58 2.7.6 1 1.58 1m7.901 6.64-.7-1.76q1.76-.6 1.76-1.5-.8 0-1.34-.58-.52-.58-.52-1.46t.6-1.44q.62-.58 1.6-.58 1.08 0 1.68.76.62.74.62 2.04 0 1.7-.96 2.88t-2.74 1.64m10.829-3.22q-1.82 0-3.24-.9-1.42-.92-2.24-2.52-.8-1.62-.8-3.7 0-2.06.8-3.66.82-1.6 2.24-2.52t3.24-.92q1.36 0 2.5.54 1.14.52 1.98 1.48.84.94 1.3 2.24.48 1.3.48 2.84 0 2.06-.82 3.68-.8 1.6-2.22 2.52-1.4.92-3.22.92m0-3.42q1 0 1.56-.98.58-.98.58-2.72 0-1.7-.58-2.68-.56-1-1.56-1-1.02 0-1.6.98-.56.98-.56 2.7 0 1.7.58 2.7.6 1 1.58 1m13.575 3.42q-1.821 0-3.24-.9-1.42-.92-2.24-2.52-.8-1.62-.8-3.7 0-2.06.8-3.66.82-1.6 2.24-2.52 1.419-.92 3.24-.92 1.36 0 2.5.54 1.14.52 1.98 1.48a6.7 6.7 0 0 1 1.3 2.24q.48 1.3.48 2.84 0 2.06-.82 3.68-.801 1.6-2.22 2.52-1.4.92-3.22.92m0-3.42q.999 0 1.56-.98.58-.98.58-2.72 0-1.7-.58-2.68-.561-1-1.56-1-1.02 0-1.6.98-.56.98-.56 2.7 0 1.7.58 2.7.6 1 1.58 1m13.574 3.42q-1.821 0-3.24-.9-1.42-.92-2.24-2.52-.8-1.62-.8-3.7 0-2.06.8-3.66.82-1.6 2.24-2.52 1.419-.92 3.24-.92 1.36 0 2.5.54 1.14.52 1.98 1.48a6.7 6.7 0 0 1 1.3 2.24q.48 1.3.48 2.84 0 2.06-.82 3.68-.801 1.6-2.22 2.52-1.4.92-3.22.92m0-3.42q.999 0 1.56-.98.58-.98.58-2.72 0-1.7-.58-2.68-.561-1-1.56-1-1.02 0-1.6.98-.56.98-.56 2.7 0 1.7.58 2.7.6 1 1.58 1M73.68 45.32q-2.16 0-3.78-.86A6.34 6.34 0 0 1 67.4 42q-.88-1.58-.88-3.68 0-2.16.92-3.82A6.85 6.85 0 0 1 70 31.9q1.64-.96 3.76-.96 2.36 0 3.7.92l-.54 3.18a4.9 4.9 0 0 0-1.22-.4 5.4 5.4 0 0 0-1.18-.14q-1.64 0-2.58.98T71 38.2q0 1.64.9 2.58.92.92 2.54.92.64 0 1.16-.12.54-.12 1.32-.44l.56 3.16a7.4 7.4 0 0 1-3.8 1.02m5.236-.32V31.24h9.48v3.04h-5.18v2.78h4.8v2.68h-4.8V45zm9.332 0 3.8-13.76h6.48l3.98 13.76h-4.9l-.52-2.64h-3.56l-.58 2.64zm5.7-5.1h2.66l-1.3-6.02z"/><defs><clipPath id="c"><rect width="32" height="32" x="20" y="22" fill="#fff" rx="16"/></clipPath><clipPath id="d"><path fill="#fff" d="M20 22h32v32H20z"/></clipPath><linearGradient id="b" x1="182.388" x2="7.883" y1="-179" y2="256.444" gradientUnits="userSpaceOnUse"><stop offset=".359" stop-color="#215CFF"/><stop offset=".775" stop-color="#04B159"/></linearGradient><filter id="a" width="328" height="180" x="0" y="0" color-interpolation-filters="sRGB" filterUnits="userSpaceOnUse"><feFlood flood-opacity="0" result="BackgroundImageFix"/><feBlend in="SourceGraphic" in2="BackgroundImageFix" result="shape"/><feColorMatrix in="SourceAlpha" result="hardAlpha" values="0 0 0 0 0 0 0 0 0 0 0 0 0 0 0 0 0 0 127 0"/><feOffset dy="1"/><feComposite in2="hardAlpha" k2="-1" k3="1" operator="arithmetic"/><feColorMatrix values="0 0 0 0 1 0 0 0 0 1 0 0 0 0 1 0 0 0 0.504359 0"/><feBlend in2="shape" result="effect1_innerShadow_38_4464"/></filter></defs></svg>